<svg width="436" height="313" viewBox="0 0 436 313" fill="none" xmlns="http://www.w3.org/2000/svg">
<path d="M396.508 1.85645H123.908V266.456H396.508V1.85645Z" fill="white"/>
<path d="M396.508 1.85664V266.457H123.908V1.85664H396.508ZM396.508 0.556641H123.908C123.208 0.556641 122.608 1.15664 122.608 1.85664V266.457C122.608 267.157 123.208 267.757 123.908 267.757H396.508C397.208 267.757 397.808 267.157 397.808 266.457V1.85664C397.908 1.15664 397.308 0.556641 396.508 0.556641Z" fill="#231F20"/>
<path d="M203.108 34.7568H265.108C266.008 34.7568 266.708 35.4568 266.708 36.3568V37.9568C266.708 38.8568 266.008 39.5568 265.108 39.5568H203.108C202.208 39.5568 201.508 38.8568 201.508 37.9568V36.3568C201.508 35.4568 202.208 34.7568 203.108 34.7568Z" fill="#D1D3D4"/>
<path d="M227.908 57.3564H203.508V84.8564H227.908V57.3564Z" fill="#D1D3D4"/>
<path d="M243.008 59.3564H359.708C361.708 59.3564 363.308 60.9564 363.308 62.9564C363.308 64.9564 361.708 66.5564 359.708 66.5564H243.008C241.008 66.5564 239.408 64.9564 239.408 62.9564C239.408 60.9564 241.008 59.3564 243.008 59.3564Z" fill="#D1D3D4"/>
<path d="M243.008 73.1567H322.808C324.808 73.1567 326.408 74.7567 326.408 76.7567C326.408 78.7567 324.808 80.3567 322.808 80.3567H243.008C241.008 80.3567 239.408 78.7567 239.408 76.7567C239.408 74.7567 241.008 73.1567 243.008 73.1567Z" fill="#D1D3D4"/>
<path d="M227.908 171.856H203.508V199.356H227.908V171.856Z" fill="#D1D3D4"/>
<path d="M243.008 173.957H359.708C361.708 173.957 363.308 175.557 363.308 177.557C363.308 179.557 361.708 181.157 359.708 181.157H243.008C241.008 181.157 239.408 179.557 239.408 177.557C239.408 175.557 241.008 173.957 243.008 173.957Z" fill="#D1D3D4"/>
<path d="M243.008 187.657H322.808C324.808 187.657 326.408 189.257 326.408 191.257C326.408 193.257 324.808 194.857 322.808 194.857H243.008C241.008 194.857 239.408 193.257 239.408 191.257C239.408 189.257 241.008 187.657 243.008 187.657Z" fill="#D1D3D4"/>
<path d="M227.908 214.557H203.508V242.057H227.908V214.557Z" fill="#D1D3D4"/>
<path d="M243.008 216.557H359.708C361.708 216.557 363.308 218.157 363.308 220.157C363.308 222.157 361.708 223.757 359.708 223.757H243.008C241.008 223.757 239.408 222.157 239.408 220.157C239.408 218.157 241.008 216.557 243.008 216.557Z" fill="#D1D3D4"/>
<path d="M243.008 230.356H322.808C324.808 230.356 326.408 231.956 326.408 233.956C326.408 235.956 324.808 237.556 322.808 237.556H243.008C241.008 237.556 239.408 235.956 239.408 233.956C239.408 231.956 241.008 230.356 243.008 230.356Z" fill="#D1D3D4"/>
<path d="M135.008 14.0568C136.61 14.0568 137.908 12.7585 137.908 11.1568C137.908 9.55521 136.61 8.25684 135.008 8.25684C133.406 8.25684 132.108 9.55521 132.108 11.1568C132.108 12.7585 133.406 14.0568 135.008 14.0568Z" fill="#23D4D4"/>
<path d="M145.208 14.0568C146.81 14.0568 148.108 12.7585 148.108 11.1568C148.108 9.55521 146.81 8.25684 145.208 8.25684C143.606 8.25684 142.308 9.55521 142.308 11.1568C142.308 12.7585 143.606 14.0568 145.208 14.0568Z" fill="#D1D3D4"/>
<path d="M155.408 14.0568C157.01 14.0568 158.308 12.7585 158.308 11.1568C158.308 9.55521 157.01 8.25684 155.408 8.25684C153.806 8.25684 152.508 9.55521 152.508 11.1568C152.508 12.7585 153.806 14.0568 155.408 14.0568Z" fill="#D1D3D4"/>
<path d="M182.708 20.3564H181.208V266.456H182.708V20.3564Z" fill="#D1D3D4"/>
<path d="M396.508 19.6567H123.908V21.1567H396.508V19.6567Z" fill="#D1D3D4"/>
<path d="M434.808 297.157H23.9081C23.5081 297.157 23.2081 296.857 23.2081 296.457C23.2081 296.057 23.5081 295.757 23.9081 295.757H434.808C435.208 295.757 435.508 296.057 435.508 296.457C435.508 296.857 435.208 297.157 434.808 297.157Z" fill="#D1D3D4"/>
<path d="M390.108 220.457C390.308 217.757 389.708 215.057 388.508 212.657C387.508 210.957 385.908 209.557 385.008 207.757C383.508 204.557 384.608 200.857 384.208 197.357C383.908 194.457 382.608 191.757 380.608 189.657C378.808 187.857 376.408 186.557 374.708 184.657C371.808 181.557 371.008 177.057 369.408 173.157C367.108 167.657 363.108 162.957 358.008 159.757C361.108 165.957 354.008 173.957 357.208 180.157C358.208 182.157 360.208 183.557 360.908 185.657C362.708 190.657 356.708 196.157 358.608 201.057C359.608 203.557 362.208 204.957 363.508 207.357C365.208 210.557 363.908 214.357 364.008 217.957C364.208 222.957 367.208 227.357 370.808 230.757C373.008 232.857 375.508 234.757 377.908 236.657C380.808 238.957 382.008 241.357 384.508 237.657C388.008 232.557 390.008 226.557 390.108 220.457Z" fill="#23D4D4"/>
<path d="M393.408 223.257C392.508 219.457 391.808 215.257 393.408 211.657C395.208 207.557 399.608 204.657 400.108 200.257C400.408 197.357 399.008 194.457 399.508 191.557C400.008 188.657 402.408 186.757 404.408 184.657C408.808 179.757 411.508 173.557 411.908 166.957C414.708 170.657 417.508 174.357 419.008 178.757C420.508 183.157 420.508 188.257 418.008 192.057C417.308 192.957 416.708 193.957 416.208 195.057C415.308 197.857 417.708 200.557 419.008 203.157C420.508 206.257 420.208 209.957 418.108 212.757C415.608 215.857 410.708 217.157 409.408 220.957C409.108 222.357 408.908 223.857 409.008 225.357C408.508 230.557 404.808 234.957 399.808 236.357C396.808 237.057 396.908 235.857 396.308 233.357C395.508 229.957 394.208 226.657 393.408 223.257Z" fill="#23D4D4"/>
<path d="M383.808 195.657C381.708 188.257 380.808 180.657 378.608 173.257C376.708 167.557 374.308 161.957 371.608 156.557L380.708 160.457C383.608 161.657 386.808 163.157 388.208 165.957C390.608 170.957 386.308 177.357 388.808 182.257C389.708 183.957 391.308 185.257 392.408 186.757C395.108 190.557 394.708 195.757 393.208 200.157C392.608 202.057 389.808 211.857 387.308 209.157C386.308 208.057 386.208 204.057 385.808 202.557C385.308 200.257 384.508 198.057 383.808 195.657Z" fill="#23D4D4"/>
<path d="M388.908 293.557C387.108 281.557 381.408 239.057 381.308 238.657L382.708 238.457C382.808 238.857 388.508 281.257 390.308 293.357L388.908 293.557Z" fill="#231F20"/>
<path d="M390.908 304.857H389.408C389.508 290.557 395.408 235.957 398.908 232.257L400.008 233.257C397.708 235.757 391.008 285.357 390.908 304.857Z" fill="#231F20"/>
<path d="M394.008 302.157L392.508 302.057C393.908 271.257 387.308 206.557 387.308 205.857L388.808 205.757C388.808 206.457 395.408 271.257 394.008 302.157Z" fill="#231F20"/>
<path d="M373.208 259.057H407.208L404.807 297.657C404.407 304.357 399.408 309.557 393.508 309.557H386.908C380.908 309.557 376.008 304.357 375.608 297.657L373.208 259.057Z" fill="white"/>
<path d="M393.508 310.257H386.908C380.608 310.257 375.308 304.757 374.808 297.657L372.408 259.057C372.408 258.657 372.708 258.257 373.108 258.257C373.108 258.257 373.108 258.257 373.208 258.257H407.208C407.408 258.257 407.608 258.357 407.708 258.457C407.808 258.657 407.908 258.857 407.908 259.057L405.508 297.657C405.108 304.757 399.808 310.257 393.508 310.257ZM374.008 259.757L376.308 297.557C376.708 303.857 381.308 308.757 386.908 308.757H393.508C399.008 308.757 403.708 303.857 404.108 297.557L406.408 259.757H374.008Z" fill="#231F20"/>
<path d="M105.508 285.356C105.308 286.656 106.608 301.656 106.608 301.656C106.608 301.656 124.908 304.856 125.008 303.656C125.108 302.456 130.608 296.856 130.608 296.856L123.208 293.456L122.608 275.356L105.508 285.356Z" fill="white"/>
<path d="M123.608 304.457C119.908 304.457 111.708 303.157 106.508 302.257C106.208 302.157 106.008 301.957 105.908 301.657C105.808 300.157 104.608 286.557 104.808 285.257C104.808 285.057 104.908 284.857 105.108 284.757L122.108 274.657C122.408 274.457 122.808 274.557 123.008 274.957C123.108 275.057 123.108 275.157 123.108 275.257L123.708 292.957L130.708 296.257C130.908 296.357 131.008 296.557 131.108 296.757C131.108 296.957 131.108 297.157 130.908 297.357C128.408 299.857 125.708 303.057 125.508 303.757C125.508 303.957 125.408 304.157 125.208 304.357C124.808 304.357 124.208 304.457 123.608 304.457ZM107.208 301.057C114.708 302.357 122.908 303.457 124.408 303.157C125.008 301.757 127.708 298.757 129.408 296.957L122.808 293.957C122.608 293.857 122.408 293.657 122.408 293.357L121.808 276.357L106.008 285.757C106.108 287.457 106.808 295.657 107.208 301.057Z" fill="#231F20"/>
<path d="M49.9076 286.556L47.2076 305.156H59.4076L66.5076 285.356L49.9076 286.556Z" fill="white"/>
<path d="M59.4077 305.757H47.2077C47.0077 305.757 46.8077 305.657 46.7077 305.557C46.6077 305.357 46.5077 305.257 46.5077 305.057L49.2077 286.557C49.2077 286.257 49.5077 286.057 49.8077 285.957L66.4077 284.657C66.8077 284.657 67.1077 284.957 67.1077 285.257C67.1077 285.357 67.1077 285.457 67.1077 285.557L60.0077 305.357C59.9077 305.657 59.7077 305.757 59.4077 305.757ZM48.0077 304.457H58.9077L65.5077 286.057L50.5077 287.257L48.0077 304.457Z" fill="#231F20"/>
<path d="M90.5077 35.3568C90.1077 35.2568 89.7077 35.2568 89.3077 35.2568C87.4077 35.6568 85.5077 36.3568 83.6077 37.1568C80.6077 35.1568 76.6077 35.4568 73.3077 36.7568C64.9077 39.7568 60.3077 47.0568 56.2077 54.4568C54.3077 57.8568 51.6077 61.3568 50.3077 64.8568C48.2077 70.1568 48.0077 74.6568 44.3077 79.4568C40.8077 84.0568 36.5077 87.8568 32.7077 92.1568C27.6077 98.0568 23.5077 105.057 22.5077 112.757C20.2077 129.257 36.0077 145.457 52.0077 144.257C68.0077 143.057 85.4077 138.857 95.2077 126.157C106.008 112.057 107.108 90.5568 105.408 73.5568C104.508 64.6568 104.708 55.1568 100.908 46.8568C99.5077 43.8568 97.3077 39.4568 95.0077 37.1568C93.7077 36.0568 92.2077 35.4568 90.5077 35.3568Z" fill="white"/>
<path d="M50.4077 144.957C43.1077 144.957 35.6077 141.557 29.9077 135.557C23.7077 128.957 20.8077 120.657 21.8077 112.657C22.8077 105.657 26.2077 98.5566 32.2077 91.6566C33.7077 89.8566 35.4077 88.1566 37.0077 86.4566C39.4077 84.0566 41.6077 81.5566 43.7077 78.9566C46.1077 75.8566 47.0077 72.7566 48.0077 69.5566C48.5077 67.9566 49.0077 66.2566 49.7077 64.5566C50.8077 62.1566 52.0077 59.8566 53.5077 57.6566C54.3077 56.4566 55.0077 55.2566 55.7077 54.0566C59.8077 46.6566 64.6077 39.1566 73.2077 36.0566C75.6077 35.1566 80.2077 34.0566 83.8077 36.3566C85.6077 35.5566 87.5077 35.0566 89.4077 34.5566C89.8077 34.5566 90.3077 34.5566 90.7077 34.6566C92.5077 34.7566 94.2077 35.5566 95.5077 36.7566C97.3077 38.5566 99.3077 41.8566 101.508 46.6566C104.508 53.2566 105.008 60.4566 105.608 67.5566C105.708 69.5566 105.908 71.5566 106.108 73.5566C107.408 86.5566 107.908 110.857 95.8077 126.557C87.5077 137.357 73.3077 143.357 52.1077 144.957C51.5077 144.957 50.9077 144.957 50.4077 144.957ZM78.6077 36.3566C76.9077 36.3566 75.2077 36.7566 73.5077 37.3566C65.3077 40.2566 60.7077 47.5566 56.7077 54.7566C56.0077 55.9566 55.3077 57.1566 54.5077 58.3566C53.1077 60.4566 51.8077 62.6566 50.8077 65.0566C50.1077 66.7566 49.6077 68.3566 49.2077 69.9566C48.2077 73.3566 47.3077 76.5566 44.7077 79.8566C42.6077 82.5566 40.3077 85.0566 37.9077 87.4566C36.3077 89.0566 34.7077 90.8566 33.1077 92.5566C27.3077 99.2566 23.9077 106.057 23.0077 112.857C22.0077 120.457 24.8077 128.357 30.7077 134.657C36.6077 140.957 44.5077 144.157 51.8077 143.657C72.5077 142.057 86.5077 136.257 94.5077 125.757C106.308 110.357 105.808 86.5566 104.508 73.6566C104.308 71.6566 104.108 69.6566 104.008 67.6566C103.508 60.7566 103.008 53.5566 100.108 47.2566C98.0077 42.6566 96.1077 39.4566 94.4077 37.7566C93.3077 36.7566 91.9077 36.1566 90.4077 36.0566C90.0077 35.9566 89.6077 36.0566 89.2077 35.9566C87.4077 36.3566 85.7077 36.9566 84.0077 37.6566C83.8077 37.8566 83.4077 37.9566 83.1077 37.7566C81.9077 36.8566 80.3077 36.3566 78.6077 36.3566Z" fill="#231F20"/>
<path d="M114.408 148.857L102.008 83.9565L66.4077 86.7565L66.5077 142.457L114.408 148.857Z" fill="white"/>
<path d="M114.408 149.556L66.5077 143.156C66.2077 143.156 65.9077 142.856 65.9077 142.456L65.8077 86.8564C65.8077 86.5564 66.1077 86.2564 66.4077 86.1564L102.008 83.3564C102.308 83.3564 102.608 83.5564 102.708 83.8564L115.108 148.756C115.108 148.956 115.108 149.156 114.908 149.356C114.708 149.456 114.508 149.556 114.408 149.556ZM67.2077 141.856L113.508 148.056L101.408 84.6564L67.0077 87.3564L67.2077 141.856Z" fill="#231F20"/>
<path d="M66.5076 142.456C66.5076 142.456 51.6076 247.956 47.2076 287.556L66.3076 290.556C66.3076 290.556 79.4076 235.456 91.7076 199.756L103.608 290.556L124.908 287.756L118.308 142.356H66.5076V142.456Z" fill="#231F20"/>
<path d="M36.5077 117.157L58.2077 123.457L55.0077 177.657L79.8077 176.957L74.8077 90.1566L95.0077 89.3566C95.0077 90.1566 101.508 160.857 103.508 177.657L127.708 170.257L117.808 120.257L131.408 113.257C131.408 113.257 123.008 79.8566 95.0077 81.4566C69.2077 82.9566 78.2077 82.9566 78.7077 82.9566C78.2077 82.9566 58.2077 83.0566 49.1077 95.3566C39.9077 107.757 36.5077 117.157 36.5077 117.157Z" fill="#23D4D4"/>
<path d="M92.2078 77.8568L94.5078 90.4568C94.5078 90.4568 94.6078 97.7568 86.5078 97.1568C81.7078 96.7568 77.2078 94.1568 74.5078 90.1568C73.7078 84.9568 72.8078 79.7568 72.0078 74.5568C71.0078 68.7568 69.5078 62.7568 69.2078 56.9568C75.3078 58.8568 82.8078 51.2568 84.7078 46.2568C85.7078 49.3568 84.9078 52.7568 82.8078 55.2568C86.2078 54.0568 88.9078 51.2568 90.0078 47.8568C90.1078 47.6568 94.7078 51.8568 95.0078 52.3568C96.3078 54.2568 97.3078 56.3568 98.0078 58.5568C99.2078 62.4568 100.208 68.2568 98.2078 72.0568C95.6078 76.9568 92.2078 77.8568 92.2078 77.8568Z" fill="white"/>
<path d="M87.4077 97.7565C87.1077 97.7565 86.8077 97.7565 86.4077 97.7565C81.3077 97.3565 76.8077 94.6566 74.0077 90.3566C73.9077 90.2566 73.9077 90.1566 73.9077 90.1566L71.3077 74.5565C71.0077 72.7565 70.6077 70.8565 70.3077 69.0565C69.4077 65.0565 68.8077 60.9566 68.5077 56.8566C68.5077 56.6566 68.6077 56.4565 68.8077 56.2565C69.0077 56.1565 69.2077 56.0566 69.4077 56.1566C75.0077 57.9566 82.2077 50.5566 84.0077 45.8566C84.1077 45.5566 84.4077 45.4565 84.6077 45.4565C84.9077 45.4565 85.1077 45.6565 85.2077 45.9565C86.0077 48.4565 85.8077 51.1565 84.6077 53.5565C86.8077 52.1565 88.4077 50.0565 89.2077 47.5565C89.3077 47.3565 89.5077 47.1565 89.7077 47.0565C90.6077 46.9565 95.3077 51.8566 95.4077 51.8566C96.8077 53.8566 97.8077 55.9565 98.5077 58.2565C99.3077 60.9565 101.008 67.7565 98.7077 72.2565C97.5077 74.8565 95.5077 76.9565 92.9077 78.2565C93.3077 80.6565 95.1077 90.2565 95.1077 90.2565C95.1077 92.3565 94.3077 94.3566 92.9077 95.8566C91.5077 97.2566 89.5077 97.9565 87.4077 97.7565ZM75.1077 89.8566C77.8077 93.6566 81.9077 96.0565 86.5077 96.4565C88.4077 96.7565 90.4077 96.2565 91.9077 94.9565C93.1077 93.7565 93.7077 92.1565 93.7077 90.4565C93.7077 90.4565 91.4077 78.1565 91.4077 77.9565C91.3077 77.6565 91.5077 77.2566 91.9077 77.1566C92.0077 77.1566 95.1077 76.1566 97.4077 71.6566C99.5077 67.6566 97.9077 61.2566 97.1077 58.6566C96.5077 56.5566 95.5077 54.4566 94.2077 52.6566C93.9077 52.2566 91.3077 49.8565 90.0077 48.7565C88.7077 52.0565 86.0077 54.5565 82.7077 55.7565C82.3077 55.8565 82.0077 55.6566 81.9077 55.3566C81.8077 55.1566 81.9077 54.8566 82.0077 54.6566C83.6077 52.8566 84.4077 50.5566 84.2077 48.1566C81.5077 52.8566 75.3077 58.6566 69.7077 57.6566C70.1077 61.3566 70.6077 65.0565 71.4077 68.7565C71.8077 70.6565 72.1077 72.4566 72.4077 74.3566L75.1077 89.8566Z" fill="#231F20"/>
<path d="M72.5077 65.5565C72.1077 64.6565 71.5077 63.9565 70.6077 63.4565C69.8077 63.0565 68.9077 62.7565 68.0077 62.6565C67.5077 62.5565 67.0077 62.5565 66.5077 62.6565C66.2077 62.7565 65.9077 62.9565 65.6077 63.1565C64.9077 63.6565 64.4077 64.3565 64.2077 65.1565C64.1077 65.8565 64.2077 66.4565 64.4077 67.0565C64.6077 67.7565 64.9077 68.4565 65.3077 69.0565C66.9077 71.5565 70.3077 72.3565 72.8077 70.7565C72.8077 70.7565 72.8077 70.7565 72.9077 70.7565" fill="white"/>
<path d="M69.9078 72.1565C69.5078 72.1565 69.1078 72.1565 68.6078 72.0565C67.0078 71.7565 65.7078 70.7565 64.8078 69.3565C64.4078 68.6565 64.1078 67.9565 63.9078 67.2565C63.6078 66.5565 63.6078 65.7565 63.7078 65.0565C63.9078 64.1565 64.5078 63.2565 65.3078 62.7565C65.6078 62.4565 66.0078 62.2565 66.4078 62.1565C67.0078 62.0565 67.6078 62.0565 68.1078 62.1565C69.1078 62.2565 70.0078 62.5565 70.9078 63.0565C71.9078 63.5565 72.6078 64.4565 73.0078 65.4565C73.1078 65.7565 73.0078 66.0565 72.7078 66.2565C72.4078 66.3565 72.1078 66.2565 71.9078 65.9565C71.6078 65.1565 71.0078 64.5565 70.2078 64.1565C69.5078 63.7565 68.6078 63.5565 67.8078 63.4565C67.4078 63.3565 67.0078 63.3565 66.6078 63.4565C66.3078 63.5565 66.1078 63.6565 65.9078 63.8565C65.3078 64.2565 64.9078 64.8565 64.7078 65.4565C64.6078 66.0565 64.7078 66.5565 64.9078 67.1565C65.1078 67.7565 65.3078 68.4565 65.7078 68.9565C66.4078 70.0565 67.5078 70.8565 68.8078 71.0565C70.1078 71.3565 71.4078 71.0565 72.5078 70.3565C72.8078 70.1565 73.1078 70.2565 73.3078 70.5565C73.5078 70.8565 73.4078 71.1565 73.1078 71.3565C72.3078 71.8565 71.1078 72.1565 69.9078 72.1565Z" fill="#231F20"/>
<path d="M92.9077 82.8568C92.9077 82.8568 88.0077 85.2568 84.0077 82.5568C80.0077 79.8568 79.8077 76.2568 79.8077 76.2568C79.8077 76.2568 87.2077 79.9568 92.1077 78.0568L92.9077 82.8568Z" fill="#231F20"/>
<path d="M88.4078 84.4565C86.7078 84.4565 85.0078 83.9565 83.6078 83.0565C79.4078 80.1565 79.2078 76.4565 79.2078 76.2565C79.2078 76.0565 79.3078 75.8565 79.5078 75.6565C79.7078 75.5565 79.9078 75.5565 80.2078 75.6565C80.3078 75.6565 87.4078 79.2565 92.0078 77.4565C92.2078 77.3565 92.4078 77.3565 92.6078 77.4565C92.8078 77.5565 92.9078 77.7565 92.9078 77.9565L93.6078 82.6565C93.6078 82.9565 93.5078 83.1565 93.3078 83.3565C91.7078 84.0565 90.0078 84.4565 88.4078 84.4565ZM80.7078 77.3565C81.4078 79.2565 82.7078 80.8565 84.4078 81.9565C87.4078 84.0565 91.0078 82.8565 92.2078 82.3565L91.7078 78.8565C87.8078 79.9565 82.9078 78.2565 80.7078 77.3565Z" fill="#231F20"/>
<path d="M90.4077 57.7568C90.4077 57.7568 95.7077 62.9568 94.9077 64.2568C94.1077 65.5568 91.3077 65.3568 91.3077 65.3568" fill="white"/>
<path d="M91.7077 65.9568H91.3077C90.9077 65.8568 90.7077 65.5568 90.8077 65.2568C90.9077 64.9568 91.1077 64.7568 91.4077 64.7568C92.2077 64.7568 94.0077 64.6568 94.4077 63.9568C94.5077 63.3568 92.4077 60.6568 90.0077 58.2568C89.7077 58.0568 89.7077 57.5568 90.0077 57.3568C90.3077 57.0568 90.7077 57.0568 90.9077 57.3568C93.5077 59.9568 96.4077 63.2568 95.5077 64.6568C94.6077 66.0568 92.5077 65.9568 91.7077 65.9568Z" fill="#231F20"/>
<path d="M84.2791 60.7268C84.7853 60.5057 84.9447 59.7521 84.6353 59.0436C84.3258 58.335 83.6647 57.9398 83.1586 58.1608C82.6525 58.3819 82.493 59.1354 82.8025 59.844C83.1119 60.5525 83.773 60.9478 84.2791 60.7268Z" fill="#231F20"/>
<path d="M95.3774 58.7482C95.8835 58.5272 96.043 57.7736 95.7335 57.0651C95.4241 56.3565 94.763 55.9613 94.2569 56.1823C93.7507 56.4033 93.5913 57.1569 93.9007 57.8655C94.2102 58.574 94.8713 58.9693 95.3774 58.7482Z" fill="#231F20"/>
<path d="M96.8077 67.3564C96.8077 67.3564 94.2077 73.4564 86.8077 69.5564L96.8077 67.3564Z" fill="white"/>
<path d="M91.4077 71.5565C89.7077 71.4565 88.0077 71.0565 86.5077 70.1565C86.2077 69.9565 86.1077 69.6565 86.2077 69.2565C86.4077 68.9565 86.8077 68.8565 87.1077 68.9565C89.4077 70.1565 91.5077 70.4565 93.1077 69.8565C94.4077 69.3565 95.5077 68.3565 96.1077 67.0565C96.3077 66.7565 96.7077 66.6565 97.0077 66.8565C97.3077 66.9565 97.4077 67.3565 97.3077 67.5565C96.5077 69.1565 95.2077 70.4565 93.5077 71.0565C92.8077 71.4565 92.1077 71.5565 91.4077 71.5565Z" fill="#231F20"/>
<path d="M115.908 120.457C115.908 120.457 132.308 166.157 143.608 160.757C148.508 158.457 171.808 122.257 172.608 121.457C174.208 119.957 176.508 120.057 178.008 118.557C178.708 117.757 179.408 116.757 179.808 115.757C180.608 114.157 181.408 112.157 180.108 110.857C179.908 110.657 179.508 110.357 179.508 109.957C179.508 109.557 179.808 109.357 180.108 109.257L182.108 108.157C182.608 107.857 183.108 107.457 182.908 106.957C182.708 106.457 182.008 106.357 181.408 106.457C175.808 107.557 169.308 111.257 164.508 114.057C164.808 112.557 165.008 111.057 165.108 109.557C165.208 108.357 164.908 106.857 163.708 106.657C162.508 106.457 161.808 107.657 161.308 108.757C159.108 114.157 157.708 118.357 154.108 123.057C150.508 127.757 146.808 132.657 143.108 137.457C141.208 137.157 131.308 113.157 131.308 113.157" fill="white"/>
<path d="M141.608 161.957C140.808 161.957 140.008 161.757 139.208 161.457C128.208 156.957 115.708 122.257 115.208 120.757C115.108 120.457 115.308 120.057 115.608 119.857C115.908 119.657 116.308 119.957 116.508 120.257C116.608 120.657 129.408 155.857 139.808 160.157C140.908 160.657 142.208 160.657 143.308 160.157C146.908 158.457 162.108 135.857 168.608 126.157C171.308 122.157 172.008 121.157 172.208 120.957C173.108 120.257 174.108 119.657 175.108 119.357C176.008 119.157 176.808 118.657 177.508 118.057C178.208 117.257 178.808 116.357 179.208 115.357C180.208 113.357 180.408 111.957 179.608 111.157L179.508 111.057C179.108 110.757 178.908 110.257 178.908 109.857C179.008 109.257 179.308 108.857 179.808 108.557L181.808 107.457C182.208 107.257 182.308 107.057 182.308 106.957C182.108 106.957 181.808 106.957 181.608 106.957C176.208 108.057 169.808 111.557 164.908 114.557C164.608 114.757 164.208 114.657 164.008 114.357C163.908 114.257 163.908 114.057 163.908 113.857C164.208 112.357 164.408 110.957 164.508 109.457C164.508 108.657 164.408 107.357 163.708 107.257C163.008 107.157 162.208 108.557 162.108 108.957C161.708 109.857 161.408 110.657 161.108 111.557C159.408 115.757 157.908 119.457 154.908 123.457C151.308 128.257 147.608 133.057 143.908 137.857C143.708 138.057 143.508 138.157 143.308 138.057C141.308 137.757 134.708 122.457 131.008 113.357C130.908 113.057 131.008 112.657 131.408 112.457C131.708 112.357 132.108 112.457 132.308 112.857C136.608 123.257 141.708 134.357 143.408 136.457C146.908 131.857 150.508 127.257 154.008 122.557C156.908 118.657 158.408 115.057 160.108 110.957C160.408 110.157 160.808 109.257 161.208 108.357C162.008 106.457 163.108 105.657 164.308 105.857C165.908 106.157 166.308 107.957 166.208 109.457C166.108 110.557 166.008 111.557 165.908 112.657C170.708 109.857 176.608 106.757 181.808 105.657C183.008 105.457 183.908 105.757 184.108 106.657C184.208 107.057 184.208 107.857 182.908 108.657L180.908 109.757C180.708 109.857 180.608 109.957 180.608 109.957C180.608 109.957 180.808 110.057 180.808 110.157L180.908 110.257C182.608 112.057 181.208 114.957 180.708 115.957C180.208 117.057 179.508 118.057 178.808 118.957C178.008 119.757 176.908 120.257 175.808 120.557C174.908 120.757 174.008 121.257 173.308 121.857C173.108 122.057 171.608 124.257 169.908 126.857C158.608 143.757 147.608 159.657 144.108 161.257C143.208 161.757 142.408 161.957 141.608 161.957Z" fill="#231F20"/>
<path d="M56.0077 160.857C55.6077 160.857 55.4077 160.557 55.4077 160.157L58.2077 99.6566C58.2077 99.2566 58.5077 99.0566 58.9077 99.0566C59.3077 99.0566 59.6077 99.3566 59.5077 99.7566L56.7077 160.257C56.7077 160.557 56.4077 160.857 56.0077 160.857Z" fill="#231F20"/>
<path d="M112.708 112.057C112.408 112.057 112.208 111.857 112.108 111.657L107.108 99.9566C107.008 99.5566 107.208 99.2566 107.608 99.1566C107.908 99.0566 108.208 99.1566 108.408 99.4566L113.408 111.157C113.508 111.457 113.408 111.857 113.008 112.057C112.908 112.057 112.808 112.057 112.708 112.057Z" fill="#231F20"/>
<path d="M61.6077 297.157C61.6077 297.157 50.7077 291.157 46.1077 297.157C41.5077 303.157 41.1077 310.857 41.1077 310.857C41.1077 310.857 64.0077 314.657 64.2077 310.857C64.4077 307.057 61.6077 297.157 61.6077 297.157Z" fill="#231F20"/>
<path d="M5.30765 200.657L98.2076 175.557C101.208 174.757 104.308 176.557 105.108 179.557L116.308 221.057C117.108 224.057 115.308 227.157 112.308 227.957L19.4076 253.057C16.4076 253.857 13.3076 252.057 12.5076 249.057L1.40765 207.557C0.507648 204.557 2.30765 201.457 5.30765 200.657Z" fill="white"/>
<path d="M18.0077 253.857C15.2077 253.857 12.7077 251.957 11.9077 249.157L0.707703 207.657C-0.192297 204.257 1.8077 200.857 5.1077 199.957L97.9077 174.857C101.308 173.957 104.708 175.957 105.608 179.257L116.908 220.757C117.808 224.157 115.808 227.557 112.508 228.457L19.6077 253.557C19.1077 253.857 18.6077 253.857 18.0077 253.857ZM99.7077 176.057C99.3077 176.057 98.8077 176.157 98.4077 176.257L5.5077 201.357C2.9077 202.057 1.3077 204.757 2.0077 207.457L13.2077 248.957C13.9077 251.557 16.6077 253.157 19.3077 252.457L112.208 227.357C114.808 226.657 116.408 223.957 115.708 221.257L104.508 179.757C103.908 177.557 101.908 176.057 99.7077 176.057Z" fill="#231F20"/>
<path d="M40.495 206.175L16.9368 212.531L24.1005 239.082L47.6587 232.726L40.495 206.175Z" fill="#D1D3D4"/>
<path d="M51.6076 204.657L91.8076 193.857C93.7076 193.357 95.6076 194.457 96.1076 196.357L96.2076 196.557C96.7076 198.457 95.6076 200.357 93.7076 200.857L53.5076 211.557C51.6076 212.057 49.7076 210.957 49.2076 209.057L49.1076 208.857C48.7076 207.057 49.8076 205.157 51.6076 204.657Z" fill="#D1D3D4"/>
<path d="M54.9077 217.957L86.3077 209.457C88.0077 208.957 89.7077 209.957 90.1077 211.657L90.3077 212.557C90.8077 214.257 89.8077 215.957 88.1077 216.357L56.7077 224.857C55.0077 225.357 53.3077 224.357 52.9077 222.657L52.7077 221.757C52.2077 220.157 53.2077 218.457 54.9077 217.957Z" fill="#D1D3D4"/>
<path d="M36.5078 117.157C36.5078 117.157 20.6078 155.157 22.3078 159.557C23.9078 163.957 40.3078 191.257 40.3078 191.257C40.3078 191.257 45.1078 206.157 51.6078 202.757C55.8078 200.557 53.6078 187.757 53.6078 187.757L58.4078 186.457C58.4078 186.457 50.5078 183.157 49.6078 181.657C48.7078 180.157 40.3078 156.857 40.3078 156.857L54.8078 122.557" fill="white"/>
<path d="M49.6076 203.857C49.0076 203.857 48.4076 203.757 47.8076 203.457C43.1076 201.557 40.0076 192.457 39.6076 191.457C38.5076 189.657 23.2076 164.057 21.6076 159.757C19.9076 155.257 34.2076 120.857 35.8076 116.957C35.9076 116.557 36.3076 116.357 36.6076 116.457C37.0076 116.557 37.2076 116.957 37.1076 117.257C37.1076 117.257 37.1076 117.357 37.0076 117.357C30.7076 132.557 21.7076 156.157 22.8076 159.257C24.4076 163.557 40.6076 190.557 40.7076 190.857C40.7076 190.857 40.7076 190.957 40.8076 190.957C40.8076 191.057 43.9076 200.457 48.2076 202.157C49.2076 202.557 50.2076 202.457 51.1076 201.957C54.2076 200.357 53.3076 191.057 52.7076 187.657C52.6076 187.357 52.8076 186.957 53.2076 186.857L56.1076 186.057C53.6076 184.957 49.5076 182.957 48.8076 181.757C47.9076 180.157 39.8076 157.857 39.4076 156.857C39.3076 156.657 39.3076 156.557 39.4076 156.357L53.9076 122.057C54.1076 121.757 54.5076 121.557 54.8076 121.757C55.1076 121.957 55.2076 122.257 55.1076 122.557L40.7076 156.557C43.1076 163.157 49.2076 179.757 49.9076 180.957C50.4076 181.857 54.6076 183.957 58.3076 185.457C58.6076 185.557 58.8076 185.957 58.7076 186.357C58.6076 186.557 58.4076 186.757 58.2076 186.757L54.0076 187.857C54.4076 190.657 55.7076 200.857 51.6076 202.957C51.2076 203.657 50.4076 203.857 49.6076 203.857Z" fill="#231F20"/>
<path d="M128.108 292.257L122.308 299.757L103.408 295.957L102.608 305.757C102.608 305.757 142.708 314.057 144.308 309.657C145.908 305.257 128.108 292.257 128.108 292.257Z" fill="#231F20"/>
<path d="M174.508 89.2568H328.008C332.508 89.2568 336.108 92.8568 336.108 97.3568V135.357C336.108 139.857 332.508 143.457 328.008 143.457H174.508C170.008 143.457 166.408 139.857 166.408 135.357V97.3568C166.408 92.8568 170.008 89.2568 174.508 89.2568Z" fill="white"/>
<path d="M328.008 144.157H174.508C169.708 144.157 165.708 140.257 165.708 135.357V97.3566C165.708 92.5566 169.608 88.5566 174.508 88.5566H328.008C332.808 88.5566 336.808 92.4566 336.808 97.3566V135.357C336.808 140.257 332.808 144.157 328.008 144.157ZM174.508 89.9566C170.408 89.9566 167.108 93.2566 167.108 97.3566V135.357C167.108 139.457 170.408 142.757 174.508 142.757H328.008C332.108 142.757 335.408 139.457 335.408 135.357V97.3566C335.408 93.2566 332.108 89.9566 328.008 89.9566H174.508Z" fill="#231F20"/>
<path d="M204.508 102.657H180.108V130.157H204.508V102.657Z" fill="#D1D3D4"/>
<path d="M237.824 109.711V123.807H234.504V112.694L230.106 113.814V111.748L237.448 109.711H237.824Z" fill="#1D51A1"/>
<path d="M252.482 109.711V123.807H249.162V112.694L244.765 113.814V111.748L252.106 109.711H252.482Z" fill="#1D51A1"/>
<path d="M261.177 109.75L265.186 116.305L269.221 109.75H273.004L266.94 118.661V123.807H263.445V118.661L257.368 109.75H261.177Z" fill="#1D51A1"/>
<path d="M283.904 117.116L282.05 116.749L282.964 109.75H292.323V111.401H284.931L284.38 115.224C284.714 115.076 285.136 114.937 285.646 114.809C286.163 114.68 286.756 114.616 287.425 114.616C288.268 114.616 289.024 114.728 289.692 114.954C290.36 115.172 290.928 115.488 291.396 115.9C291.872 116.312 292.236 116.807 292.486 117.387C292.737 117.966 292.862 118.613 292.862 119.327C292.862 120.003 292.741 120.624 292.499 121.19C292.265 121.757 291.91 122.252 291.434 122.677C290.958 123.096 290.356 123.421 289.63 123.652C288.911 123.884 288.064 124 287.086 124C286.351 124 285.654 123.923 284.994 123.768C284.343 123.607 283.758 123.366 283.24 123.044C282.731 122.716 282.313 122.31 281.987 121.828C281.67 121.339 281.469 120.766 281.386 120.109H283.591C283.691 120.637 283.892 121.081 284.192 121.442C284.493 121.802 284.885 122.075 285.37 122.262C285.863 122.442 286.435 122.532 287.086 122.532C287.638 122.532 288.126 122.458 288.552 122.31C288.978 122.162 289.337 121.95 289.63 121.673C289.922 121.396 290.143 121.062 290.294 120.669C290.452 120.277 290.532 119.836 290.532 119.346C290.532 118.902 290.452 118.49 290.294 118.111C290.135 117.731 289.897 117.399 289.579 117.116C289.27 116.833 288.89 116.614 288.439 116.46C287.988 116.299 287.471 116.218 286.886 116.218C286.109 116.218 285.52 116.299 285.119 116.46C284.727 116.621 284.322 116.839 283.904 117.116Z" fill="black"/>
<path fill-rule="evenodd" clip-rule="evenodd" d="M219.408 112.887L219.845 111.883L220.146 109.75H220.998L227.851 123.807H224.193L219.408 112.887ZM219.408 112.887L218.968 111.883L218.655 109.75H217.816L211 123.807H214.646L219.408 112.887Z" fill="#1D51A1"/>
<path d="M220.146 109.75H218.655L218.968 111.883L219.408 112.887L219.845 111.883L220.146 109.75Z" fill="#1D51A1"/>
<path fill-rule="evenodd" clip-rule="evenodd" d="M325.223 122.185C325.741 121.586 326 120.859 326 120.003C326 119.256 325.745 118.593 325.236 118.014C324.735 117.435 324.046 116.981 323.169 116.653C323.085 116.621 323.001 116.591 322.916 116.562C322.929 116.557 322.942 116.552 322.956 116.547C323.766 116.231 324.405 115.8 324.873 115.253C325.34 114.706 325.574 114.091 325.574 113.409C325.574 112.591 325.34 111.896 324.873 111.323C324.413 110.751 323.778 110.313 322.968 110.01C322.158 109.708 321.231 109.557 320.187 109.557C319.151 109.557 318.228 109.708 317.418 110.01C316.608 110.313 315.969 110.751 315.501 111.323C315.042 111.896 314.812 112.591 314.812 113.409C314.812 114.091 315.042 114.706 315.501 115.253C315.961 115.8 316.595 116.231 317.405 116.547C317.415 116.55 317.425 116.554 317.435 116.558C316.897 116.733 316.42 116.961 316.002 117.242C315.493 117.589 315.096 117.998 314.812 118.468C314.536 118.931 314.399 119.443 314.399 120.003C314.399 120.859 314.653 121.586 315.163 122.185C315.672 122.777 316.366 123.228 317.243 123.537C318.12 123.846 319.105 124 320.199 124C321.294 124 322.275 123.846 323.144 123.537C324.021 123.228 324.714 122.777 325.223 122.185ZM317.435 116.558C317.528 116.593 317.622 116.626 317.718 116.657C318.459 116.899 319.286 117.02 320.199 117.02C321.21 117.02 322.115 116.867 322.916 116.562C322.91 116.56 322.904 116.558 322.899 116.556C322.877 116.549 322.856 116.542 322.834 116.535C322.04 116.279 321.154 116.151 320.174 116.151C319.322 116.151 318.541 116.247 317.831 116.44C317.696 116.476 317.563 116.516 317.435 116.558ZM323.231 118.584C323.524 118.983 323.67 119.443 323.67 119.964C323.67 120.505 323.528 120.968 323.244 121.355C322.968 121.734 322.571 122.027 322.054 122.233C321.536 122.433 320.918 122.532 320.199 122.532C319.481 122.532 318.859 122.433 318.333 122.233C317.815 122.027 317.414 121.734 317.13 121.355C316.854 120.968 316.716 120.505 316.716 119.964C316.716 119.443 316.858 118.983 317.142 118.584C317.426 118.178 317.823 117.863 318.333 117.638C318.85 117.412 319.464 117.3 320.174 117.3C320.868 117.3 321.477 117.412 322.004 117.638C322.53 117.863 322.939 118.178 323.231 118.584ZM322.868 112.192C323.127 112.553 323.256 112.968 323.256 113.438C323.256 113.92 323.127 114.342 322.868 114.703C322.609 115.063 322.25 115.343 321.791 115.542C321.339 115.742 320.809 115.842 320.199 115.842C319.59 115.842 319.055 115.742 318.596 115.542C318.136 115.343 317.777 115.063 317.518 114.703C317.268 114.342 317.142 113.92 317.142 113.438C317.142 112.942 317.268 112.514 317.518 112.154C317.777 111.793 318.132 111.516 318.583 111.323C319.043 111.124 319.577 111.024 320.187 111.024C320.797 111.024 321.331 111.13 321.791 111.343C322.25 111.549 322.609 111.832 322.868 112.192Z" fill="black"/>
<path d="M320.174 116.151C319.322 116.151 318.541 116.247 317.831 116.44C317.696 116.476 317.563 116.516 317.435 116.558C317.528 116.593 317.622 116.626 317.718 116.657C318.459 116.899 319.286 117.02 320.199 117.02C321.21 117.02 322.115 116.867 322.916 116.562L322.899 116.556C322.877 116.549 322.856 116.542 322.834 116.535C322.04 116.279 321.154 116.151 320.174 116.151Z" fill="black"/>
<path d="M302.742 107C301.625 107 300.716 107.71 300.716 108.582C300.716 109.455 301.625 110.165 302.742 110.165C303.859 110.165 304.768 109.455 304.768 108.582C304.768 107.71 303.859 107 302.742 107ZM301.647 110.265C300.458 110.265 300.237 110.852 300.237 111.333V116.975C300.237 117.461 300.738 117.852 301.361 117.852L306.494 117.836C306.494 117.836 307.546 119.144 308.427 120.184C308.692 120.497 309.042 120.771 309.558 120.771C310.231 120.771 310.846 120.34 310.775 119.82C310.746 119.614 310.689 119.423 310.531 119.239C309.744 118.322 308.892 117.114 308.033 116.371C307.818 116.181 307.51 116.041 307.159 116.046L302.914 116.058V112.546L305.942 114.179C306.379 114.414 306.973 114.324 307.274 113.989C307.575 113.648 307.467 113.184 307.031 112.949C307.031 112.949 303.888 111.255 302.313 110.405C302.134 110.316 301.833 110.265 301.647 110.265ZM310.553 111.344C310.481 111.344 310.41 111.367 310.352 111.406L309.014 114.861H304.31C304.153 114.861 304.024 114.962 304.024 115.085V115.169C304.024 115.292 304.153 115.392 304.31 115.392H309.164C309.25 115.392 309.329 115.364 309.379 115.331L310.832 111.792C310.947 111.702 310.947 111.562 310.832 111.478L310.761 111.423C310.703 111.367 310.632 111.344 310.553 111.344ZM299.7 113.391C296.929 114.039 294.881 116.058 294.881 118.484C294.881 121.447 297.946 123.807 301.633 123.807C304.46 123.807 306.916 122.426 307.918 120.447L306.902 119.25C306.444 121.151 304.289 122.616 301.633 122.616C298.633 122.616 296.27 120.743 296.27 118.484C296.27 116.745 297.681 115.236 299.7 114.632V113.391Z" fill="#010202"/>
</svg>
