<svg width="300" height="46" viewBox="0 0 300 46" fill="none" xmlns="http://www.w3.org/2000/svg">
<path d="M69.9749 7.33577V45.4775H61.3139V15.4082L49.842 18.4387V12.848L68.9944 7.33577H69.9749Z" fill="#1D51A1"/>
<path d="M108.214 7.33577V45.4775H99.5533V15.4082L88.0815 18.4387V12.848L107.234 7.33577H108.214Z" fill="#1D51A1"/>
<path d="M130.897 7.44026L141.355 25.1788L151.879 7.44026H161.75L145.931 31.5532V45.4775H136.812V31.5532L120.961 7.44026H130.897Z" fill="#1D51A1"/>
<path d="M190.184 27.3732L185.347 26.3805L187.733 7.44026H212.147V11.9076H192.864L191.426 22.2528C192.298 21.8523 193.398 21.4778 194.727 21.1295C196.078 20.7812 197.625 20.607 199.368 20.607C201.569 20.607 203.541 20.9118 205.284 21.5214C207.027 22.1135 208.509 22.9669 209.729 24.0816C210.971 25.1962 211.919 26.5373 212.572 28.1047C213.226 29.6722 213.553 31.4225 213.553 33.3558C213.553 35.1845 213.237 36.8651 212.605 38.3978C211.995 39.9304 211.069 41.2715 209.827 42.4209C208.585 43.553 207.016 44.4325 205.12 45.0595C203.247 45.6865 201.035 46 198.486 46C196.568 46 194.749 45.791 193.028 45.373C191.328 44.9376 189.803 44.2845 188.452 43.4137C187.123 42.5254 186.033 41.4282 185.184 40.122C184.356 38.7984 183.833 37.2483 183.615 35.4718H189.367C189.628 36.9 190.151 38.1017 190.936 39.077C191.72 40.0523 192.744 40.7925 194.008 41.2976C195.294 41.7853 196.786 42.0291 198.486 42.0291C199.924 42.0291 201.198 41.8288 202.31 41.4282C203.421 41.0276 204.358 40.4529 205.12 39.704C205.883 38.9551 206.46 38.0495 206.853 36.9871C207.267 35.9247 207.474 34.7316 207.474 33.408C207.474 32.2063 207.267 31.0916 206.853 30.0641C206.439 29.0365 205.818 28.1396 204.99 27.3732C204.183 26.6069 203.192 26.0148 202.015 25.5968C200.839 25.1614 199.488 24.9437 197.963 24.9437C195.936 24.9437 194.4 25.1614 193.354 25.5968C192.33 26.0322 191.274 26.6243 190.184 27.3732Z" fill="black"/>
<path fill-rule="evenodd" clip-rule="evenodd" d="M21.9332 15.9283L23.0744 13.2138L23.8588 7.44026H26.0813L43.959 45.4775H34.4155L21.9332 15.9283ZM21.9332 15.9283L20.7866 13.2138L19.9695 7.44026H17.7797L0 45.4775H9.51084L21.9332 15.9283Z" fill="#1D51A1"/>
<path d="M23.8588 7.44026H19.9695L20.7866 13.2138L21.9332 15.9283L23.0744 13.2138L23.8588 7.44026Z" fill="#1D51A1"/>
<path fill-rule="evenodd" clip-rule="evenodd" d="M297.974 41.0886C299.325 39.4689 300 37.5008 300 35.1845C300 33.1642 299.335 31.3703 298.006 29.8028C296.699 28.2354 294.901 27.0075 292.614 26.1193C292.396 26.0333 292.176 25.9514 291.954 25.8736C291.988 25.8598 292.023 25.8459 292.058 25.8319C294.171 24.9785 295.838 23.8116 297.059 22.3312C298.279 20.8508 298.889 19.1876 298.889 17.3414C298.889 15.1296 298.279 13.2486 297.059 11.6986C295.86 10.1485 294.204 8.96419 292.091 8.14563C289.977 7.32706 287.559 6.91777 284.835 6.91777C282.133 6.91777 279.725 7.32706 277.612 8.14563C275.498 8.96419 273.832 10.1485 272.611 11.6986C271.413 13.2486 270.814 15.1296 270.814 17.3414C270.814 19.1876 271.413 20.8508 272.611 22.3312C273.81 23.8116 275.466 24.9785 277.579 25.8319C277.605 25.842 277.63 25.8521 277.655 25.8621C276.254 26.3374 275.008 26.9543 273.919 27.7129C272.59 28.6533 271.555 29.7593 270.814 31.0307C270.095 32.2846 269.735 33.6692 269.735 35.1845C269.735 37.5008 270.4 39.4689 271.729 41.0886C273.058 42.6909 274.867 43.91 277.154 44.746C279.442 45.582 282.013 46 284.868 46C287.722 46 290.282 45.582 292.548 44.746C294.836 43.91 296.645 42.6909 297.974 41.0886ZM277.655 25.8621C277.898 25.9575 278.144 26.0474 278.394 26.1319C280.327 26.7853 282.484 27.112 284.868 27.112C287.504 27.112 289.866 26.6992 291.954 25.8736C291.939 25.8685 291.924 25.8635 291.91 25.8584C291.854 25.839 291.797 25.8198 291.741 25.8009C289.67 25.1075 287.357 24.7608 284.802 24.7608C282.58 24.7608 280.543 25.022 278.69 25.5445C278.336 25.6422 277.991 25.7481 277.655 25.8621ZM292.777 31.3442C293.54 32.424 293.921 33.6692 293.921 35.08C293.921 36.5429 293.55 37.7969 292.81 38.8419C292.091 39.8695 291.056 40.6619 289.705 41.2192C288.354 41.7591 286.741 42.0291 284.868 42.0291C282.994 42.0291 281.371 41.7591 279.998 41.2192C278.647 40.6619 277.601 39.8695 276.86 38.8419C276.141 37.7969 275.782 36.5429 275.782 35.08C275.782 33.6692 276.152 32.424 276.893 31.3442C277.634 30.2469 278.669 29.3935 279.998 28.784C281.349 28.1744 282.95 27.8696 284.802 27.8696C286.611 27.8696 288.201 28.1744 289.574 28.784C290.947 29.3935 292.014 30.2469 292.777 31.3442ZM291.829 14.0498C292.505 15.0251 292.842 16.1484 292.842 17.4198C292.842 18.726 292.505 19.8668 291.829 20.8421C291.154 21.8174 290.217 22.575 289.018 23.115C287.842 23.6549 286.458 23.9248 284.868 23.9248C283.277 23.9248 281.883 23.6549 280.684 23.115C279.486 22.575 278.549 21.8174 277.873 20.8421C277.22 19.8668 276.893 18.726 276.893 17.4198C276.893 16.0788 277.22 14.9206 277.873 13.9453C278.549 12.9699 279.475 12.221 280.651 11.6986C281.85 11.1586 283.244 10.8887 284.835 10.8887C286.426 10.8887 287.82 11.1761 289.018 11.7508C290.217 12.3081 291.154 13.0744 291.829 14.0498Z" fill="black"/>
<path d="M284.802 24.7608C282.58 24.7608 280.543 25.022 278.69 25.5445C278.336 25.6422 277.991 25.7481 277.655 25.8621C277.898 25.9575 278.144 26.0474 278.394 26.1319C280.327 26.7853 282.484 27.112 284.868 27.112C287.504 27.112 289.866 26.6992 291.954 25.8736L291.91 25.8584C291.854 25.839 291.797 25.8198 291.741 25.8009C289.67 25.1075 287.357 24.7608 284.802 24.7608Z" fill="black"/>
<path d="M239.327 0C236.414 0 234.042 1.92137 234.042 4.28148C234.042 6.64159 236.414 8.56296 239.327 8.56296C242.241 8.56296 244.613 6.64159 244.613 4.28148C244.613 1.92137 242.241 0 239.327 0ZM236.47 8.83528C233.37 8.83528 232.791 10.4238 232.791 11.7249V26.99C232.791 28.3062 234.098 29.3652 235.723 29.3652L249.114 29.3198C249.114 29.3198 251.859 32.86 254.156 35.674C254.847 36.5212 255.762 37.2625 257.107 37.2625C258.863 37.2625 260.469 36.0976 260.282 34.6906C260.207 34.1308 260.058 33.6164 259.647 33.1172C257.593 30.636 255.37 27.3682 253.129 25.3561C252.569 24.8417 251.766 24.4634 250.85 24.4786L239.776 24.5088V15.0079L247.676 19.4255C248.815 20.0609 250.365 19.8189 251.149 18.9111C251.934 17.9883 251.654 16.7326 250.514 16.0972C250.514 16.0972 242.315 11.5131 238.207 9.21351C237.74 8.97144 236.955 8.83528 236.47 8.83528ZM259.703 11.7552C259.516 11.7552 259.329 11.8157 259.18 11.9216L255.688 21.2712H243.417C243.007 21.2712 242.67 21.5436 242.67 21.8764V22.1033C242.67 22.4362 243.007 22.7085 243.417 22.7085H256.08C256.304 22.7085 256.509 22.6328 256.64 22.5421L260.431 12.9655C260.73 12.7234 260.73 12.3452 260.431 12.1183L260.245 11.967C260.095 11.8157 259.908 11.7552 259.703 11.7552ZM231.39 17.2923C224.162 19.0473 218.821 24.5088 218.821 31.0748C218.821 39.0931 226.814 45.4775 236.432 45.4775C243.81 45.4775 250.215 41.7407 252.83 36.385L250.178 33.1474C248.983 38.2913 243.361 42.255 236.432 42.255C228.607 42.255 222.444 37.1869 222.444 31.0748C222.444 26.3697 226.123 22.2849 231.39 20.651V17.2923Z" fill="#010202"/>
</svg>
