<svg width="390" height="278" viewBox="0 0 390 278" fill="none" xmlns="http://www.w3.org/2000/svg">
<path d="M30.1723 227.445C29.8398 227.445 29.5073 227.195 29.5073 226.78V25.8813C29.5073 25.5488 29.7567 25.2163 30.1723 25.2163C30.5879 25.2163 30.8372 25.4657 30.8372 25.8813V226.78C30.7541 227.112 30.5048 227.445 30.1723 227.445Z" fill="black"/>
<path d="M138.892 227.445C138.559 227.445 138.31 227.195 138.227 226.78V25.8813C138.227 25.5488 138.476 25.2163 138.892 25.2163C139.307 25.2163 139.556 25.4657 139.556 25.8813V226.78C139.556 227.112 139.307 227.445 138.892 227.445Z" fill="black"/>
<path d="M247.694 227.445C247.362 227.445 247.113 227.195 247.03 226.78V25.8813C247.03 25.5488 247.279 25.2163 247.694 25.2163C248.11 25.2163 248.359 25.4657 248.359 25.8813V226.78C248.359 227.112 248.027 227.445 247.694 227.445Z" fill="black"/>
<path d="M356.497 227.445C356.164 227.445 355.832 227.195 355.832 226.78V25.8813C355.832 25.5488 356.081 25.2163 356.497 25.2163C356.913 25.2163 357.162 25.4657 357.162 25.8813V226.78C357.162 227.112 356.829 227.445 356.497 227.445Z" fill="black"/>
<path d="M381.349 27.1282H7.73014C7.39766 27.1282 7.06519 26.8789 7.06519 26.4633C7.06519 26.0477 7.31454 25.7983 7.73014 25.7983H381.349C381.682 25.7983 382.014 26.0477 382.014 26.4633C382.014 26.8789 381.682 27.1282 381.349 27.1282Z" fill="black"/>
<path d="M381.349 14.2445H7.73014C7.39766 14.2445 7.06519 13.9951 7.06519 13.5795C7.06519 13.1639 7.31454 12.9146 7.73014 12.9146H381.349C381.682 12.9146 382.014 13.1639 382.014 13.5795C382.014 13.9951 381.682 14.2445 381.349 14.2445Z" fill="black"/>
<path d="M388.498 228.525H0.66495C0.332475 228.525 0 228.275 0 227.86C0 227.444 0.249356 227.195 0.66495 227.195H388.498C388.83 227.195 389.163 227.444 389.163 227.86C389.163 228.275 388.83 228.525 388.498 228.525Z" fill="black"/>
<path d="M87.8568 73.7591C97.9101 73.7591 106.06 65.6093 106.06 55.5561C106.06 45.5028 97.9101 37.353 87.8568 37.353C77.8036 37.353 69.6538 45.5028 69.6538 55.5561C69.6538 65.6093 77.8036 73.7591 87.8568 73.7591Z" fill="#B4B4B4"/>
<path d="M87.8566 74.3407C77.4668 74.3407 69.0718 65.9457 69.0718 55.5559C69.0718 45.166 77.4668 36.771 87.8566 36.771C98.2465 36.771 106.642 45.166 106.642 55.5559C106.642 65.9457 98.2465 74.3407 87.8566 74.3407ZM87.8566 38.0178C78.1317 38.0178 70.3186 45.8309 70.3186 55.5559C70.3186 65.2808 78.1317 73.0939 87.8566 73.0939C97.5816 73.0939 105.395 65.2808 105.395 55.5559C105.395 45.8309 97.5816 38.0178 87.8566 38.0178Z" fill="black"/>
<path d="M78.1318 48.8231L87.8567 58.2986V42.0073" fill="#B4B4B4"/>
<path d="M87.8566 58.9634C87.6903 58.9634 87.5241 58.8803 87.441 58.7971L77.7161 49.3216C77.4667 49.0722 77.4667 48.6566 77.7161 48.4073C77.9654 48.1579 78.381 48.1579 78.6304 48.4073L87.2747 56.8854V42.0902C87.2747 41.7578 87.5241 41.4253 87.9397 41.4253C88.3553 41.4253 88.6046 41.6747 88.6046 42.0902V58.3816C88.6046 58.6309 88.4384 58.8803 88.189 58.9634C88.0228 58.9634 87.9397 58.9634 87.8566 58.9634Z" fill="black"/>
<path d="M186.103 69.1876L156.347 69.1045C146.871 69.1045 138.31 76.5852 137.229 85.8114L127.255 175.164L191.423 175.247L201.397 85.8945C202.478 76.7514 195.579 69.1876 186.103 69.1876Z" fill="#B4B4B4"/>
<path d="M191.506 175.912L127.338 175.829C127.172 175.829 127.006 175.746 126.839 175.663C126.756 175.496 126.673 175.33 126.673 175.164L136.647 85.8112C137.645 76.2525 146.539 68.5225 156.263 68.5225L186.02 68.6056C190.675 68.5225 195.08 70.4342 198.238 73.8421C201.148 77.1668 202.561 81.6552 201.979 86.0605L192.005 175.413C192.005 175.663 191.755 175.912 191.506 175.912ZM128.003 174.582L190.924 174.665L200.815 85.8943C201.314 81.8215 200.067 77.7487 197.407 74.6733C194.498 71.5147 190.425 69.7692 186.103 69.8524L156.347 69.7692C147.203 69.7692 138.892 77.0006 137.894 85.8943L128.003 174.582Z" fill="black"/>
<path d="M177.874 69.1876L148.118 69.1045C138.642 69.1045 130.081 76.5852 129.083 85.8114L119.109 175.164L183.277 175.247L193.251 85.9776C194.249 76.7514 187.433 69.1876 177.874 69.1876Z" fill="#B4B4B4"/>
<path d="M183.277 175.912L119.109 175.829C118.943 175.829 118.777 175.746 118.611 175.663C118.527 175.496 118.444 175.33 118.444 175.164L128.419 85.8112C129.499 76.2525 138.31 68.5225 148.035 68.5225L177.791 68.6056C182.446 68.5225 186.851 70.4342 190.01 73.8421C192.919 77.1668 194.332 81.6552 193.75 86.0605L183.776 175.413C183.776 175.663 183.61 175.912 183.277 175.912ZM119.774 174.582L182.695 174.665L192.586 85.8943C193.085 81.8215 191.838 77.7487 189.179 74.6733C186.269 71.5147 182.197 69.7692 177.874 69.8524L148.118 69.7692C138.975 69.7692 130.663 77.0006 129.665 85.8943L119.774 174.582Z" fill="black"/>
<path d="M178.955 90.0502L140.72 89.9671C140.388 89.9671 140.055 89.7178 140.055 89.3022C140.055 88.8866 140.305 88.6372 140.72 88.6372L178.955 88.7203C179.288 88.7203 179.62 88.9697 179.62 89.3853C179.537 89.7178 179.288 90.0502 178.955 90.0502Z" fill="black"/>
<path d="M176.96 107.422L138.725 107.339C138.393 107.339 138.061 107.089 138.061 106.674C138.061 106.258 138.31 106.009 138.725 106.009L176.96 106.092C177.293 106.092 177.625 106.341 177.625 106.757C177.625 107.172 177.376 107.422 176.96 107.422Z" fill="black"/>
<path d="M175.048 124.794L136.813 124.711C136.481 124.711 136.148 124.461 136.148 124.046C136.148 123.713 136.398 123.464 136.813 123.464L175.048 123.547C175.381 123.547 175.713 123.796 175.713 124.212C175.713 124.628 175.381 124.794 175.048 124.794Z" fill="black"/>
<path d="M286.677 142H13.2993V242.574H286.677V142Z" fill="#B4B4B4"/>
<path d="M286.677 243.155H13.299C12.9665 243.155 12.634 242.906 12.634 242.49V141.916C12.634 141.584 12.8834 141.335 13.299 141.251H286.677C287.009 141.251 287.342 141.501 287.342 141.916V242.49C287.342 242.906 287.009 243.155 286.677 243.155ZM13.9639 241.908H286.095V142.581H13.9639V241.908Z" fill="black"/>
<path d="M294.49 133.355H9.30933V143.828H294.49V133.355Z" fill="#B4B4B4"/>
<path d="M294.49 144.493H9.30924C8.97676 144.493 8.72741 144.244 8.64429 143.828V133.355C8.64429 133.023 8.89364 132.69 9.30924 132.69H294.49C294.823 132.69 295.155 132.94 295.155 133.355V143.828C295.155 144.244 294.823 144.493 294.49 144.493ZM9.89107 143.247H293.825V134.02H9.89107V143.247Z" fill="black"/>
<path d="M231.569 121.802L238.884 264.351L259.83 262.356L264.65 158.541L277.118 263.686L298.812 263.769L295.82 120.389L231.569 121.802Z" fill="#231F20"/>
<path d="M238.884 264.932C238.717 264.932 238.551 264.849 238.468 264.766C238.302 264.683 238.302 264.517 238.219 264.35L230.904 121.885C230.904 121.718 230.987 121.552 231.071 121.386C231.154 121.303 231.32 121.22 231.486 121.22L295.737 119.724C296.069 119.724 296.402 119.973 296.402 120.305L299.477 263.769C299.477 263.935 299.394 264.101 299.311 264.184C299.228 264.267 299.062 264.35 298.896 264.35L277.202 264.184C276.869 264.184 276.62 263.935 276.62 263.602L264.983 165.938L260.495 262.189C260.495 262.522 260.245 262.771 259.913 262.771L239.05 264.766H238.884V264.932ZM232.234 122.467L239.466 263.686L259.248 261.774L264.069 158.457C264.069 158.125 264.318 157.875 264.651 157.875C264.983 157.875 265.232 158.125 265.316 158.457L277.783 263.021L298.314 263.187L295.321 120.97L232.234 122.467Z" fill="#231F20"/>
<path d="M299.228 177.574C299.228 177.574 298.563 169.844 299.311 169.179C300.059 168.514 317.182 169.346 318.595 169.512C320.008 169.678 319.592 177.741 319.592 177.741L317.016 177.824C317.016 177.824 317.681 172.67 316.766 172.338C315.852 172.005 301.888 171.507 301.888 171.507L302.22 177.824L299.228 177.574Z" fill="#231F20"/>
<path d="M317.099 178.406C316.766 178.406 316.434 178.156 316.434 177.741V177.657C316.683 175.58 316.766 173.335 316.517 172.837C315.353 172.67 307.706 172.255 302.553 172.005L302.802 177.657C302.802 177.99 302.553 178.322 302.22 178.322H302.137L299.145 178.156C298.813 178.156 298.563 177.907 298.563 177.574C298.064 172.255 298.231 169.179 298.896 168.598C299.145 168.348 299.561 168.016 308.704 168.265C313.358 168.431 317.93 168.681 318.678 168.764C320.008 168.93 320.507 171.922 320.174 177.657C320.174 177.99 319.925 178.239 319.592 178.239L317.099 178.406ZM301.971 170.842C304.298 170.925 316.018 171.424 317.016 171.756C317.348 171.839 318.345 172.172 317.764 177.159H319.01C319.177 173.751 318.927 170.676 318.429 170.094C316.6 169.844 301.639 169.263 299.727 169.678C299.477 170.509 299.561 173.917 299.81 176.993L301.555 177.076L301.306 171.424C301.306 171.257 301.389 171.091 301.472 170.925C301.639 170.925 301.722 170.842 301.971 170.842Z" fill="#231F20"/>
<path d="M242.042 124.877L281.856 124.711C281.856 124.711 280.443 55.3067 278.615 53.5612C276.786 51.8157 252.848 55.3067 250.853 57.0522C248.858 58.7977 242.042 124.877 242.042 124.877Z" fill="#B4B4B4"/>
<path d="M242.042 125.459C241.876 125.459 241.71 125.376 241.544 125.293C241.461 125.127 241.377 124.961 241.377 124.794C242.957 109.251 248.359 58.2993 250.354 56.5538C251.767 55.3901 259.996 53.9771 264.651 53.3122C269.472 52.6472 277.7 51.816 278.947 53.0628C280.776 54.8914 282.023 108.337 282.355 124.628C282.355 124.794 282.272 124.961 282.189 125.044C282.106 125.127 281.939 125.21 281.773 125.21L242.042 125.459ZM275.539 53.6446C269.056 53.6446 252.931 55.972 251.185 57.4681C249.772 59.463 245.367 98.1964 242.707 124.213L281.191 124.046C280.61 96.9496 279.363 56.5538 278.199 53.894C277.285 53.6446 276.37 53.5615 275.539 53.6446Z" fill="#231F20"/>
<path d="M304.381 158.042C304.381 158.042 301.223 162.53 300.475 165.107C299.976 166.437 299.893 167.85 300.308 169.18L304.298 168.847C304.298 168.847 303.134 176.577 304.381 176.66C305.628 176.743 307.54 177.824 307.789 171.839C307.789 171.839 308.205 174.167 310.283 173.419C311.446 173.086 312.444 172.255 313.026 171.174C313.026 171.174 314.605 174.25 316.683 171.174C318.761 168.099 316.433 158.873 316.433 158.873V154.551L304.215 153.969L304.381 158.042Z" fill="#B4B4B4"/>
<path d="M305.545 177.325C305.296 177.325 304.963 177.325 304.714 177.242L304.298 177.159C304.049 177.159 303.799 176.992 303.633 176.826C302.802 175.829 303.218 171.756 303.55 169.429L300.308 169.678C300.059 169.678 299.81 169.512 299.644 169.262C299.228 167.766 299.311 166.187 299.81 164.774C300.558 162.447 303.135 158.623 303.716 157.709L303.55 153.802C303.55 153.47 303.799 153.137 304.132 153.137H304.215L316.434 153.719C316.766 153.719 317.015 154.052 317.015 154.384V158.623C317.265 159.62 319.26 168.182 317.182 171.34C316.434 172.504 315.602 173.003 314.688 173.003C314.023 172.92 313.441 172.587 313.026 172.171C312.361 172.92 311.446 173.584 310.532 173.917C309.867 174.166 309.119 174.166 308.454 173.834L308.288 173.751C308.039 175.33 307.623 176.41 306.958 176.909C306.459 177.242 306.044 177.408 305.545 177.325ZM304.548 175.995L304.88 176.078C305.462 176.161 305.794 176.161 306.044 175.995C306.293 175.829 306.958 174.665 307.124 171.839C307.124 171.506 307.374 171.257 307.706 171.257C308.039 171.257 308.288 171.423 308.371 171.756C308.454 172.171 308.703 172.587 309.036 172.836C309.368 173.003 309.701 173.003 310.033 172.836C311.031 172.504 311.862 171.839 312.361 170.925C312.444 170.675 312.693 170.592 312.943 170.592C313.192 170.592 313.441 170.675 313.524 170.925C313.691 171.174 314.189 171.922 314.688 171.922C315.187 171.922 315.769 171.34 316.101 170.842C317.68 168.514 316.434 161.532 315.769 159.039C315.769 158.956 315.769 158.956 315.769 158.872V155.132L304.797 154.633L304.963 158.041C304.963 158.207 304.963 158.291 304.88 158.457C304.88 158.457 301.805 162.945 301.057 165.273C300.724 166.27 300.558 167.434 300.724 168.514L304.215 168.182C304.381 168.182 304.548 168.265 304.714 168.348C304.88 168.514 304.88 168.68 304.88 168.847C304.464 171.756 304.215 175.247 304.548 175.995Z" fill="#231F20"/>
<path d="M273.295 50.0698C273.046 50.7348 272.63 150.062 272.63 150.062L298.231 148.316L298.813 154.135L319.01 155.797C319.01 155.797 320.174 113.24 318.429 96.6995C316.683 80.1589 307.623 63.3688 302.137 59.2129C291.581 51.2335 273.295 50.0698 273.295 50.0698Z" fill="#774CE8"/>
<path d="M255.175 51.483L255.591 151.309L227.081 150.062L228.494 102.352C228.494 102.352 200.649 124.794 193.75 104.014C188.597 88.6371 228.328 47.4102 228.328 47.4102L239.798 57.6338C239.798 57.6338 249.689 49.9868 255.175 51.483Z" fill="#774CE8"/>
<path d="M260.91 65.5307L262.489 68.6893L258.666 111.579L264.734 119.724L271.217 110.997L265.232 68.1906L267.31 65.032L264.318 62.6216L260.91 65.5307Z" fill="black"/>
<path d="M239.299 58.4653C240.297 56.7198 241.46 55.1406 242.873 53.6445C244.37 52.2314 246.115 51.0678 247.445 49.4885C248.359 48.408 249.024 47.2443 249.523 45.9144C251.435 41.5922 252.1 36.7713 251.435 32.1167C251.185 29.9556 249.357 22.6411 246.115 26.6308C245.45 27.462 244.951 28.4594 244.702 29.4569C244.951 28.2932 245.035 27.1295 244.951 25.9659C244.951 25.7165 244.868 25.384 244.619 25.3009C244.37 25.2178 244.12 25.384 243.871 25.5503C242.208 27.2127 241.128 29.2906 240.795 31.5348C241.377 29.9556 241.627 28.2101 241.71 26.5477C241.71 24.5528 239.466 27.8776 239.216 28.2932C238.468 29.7062 237.969 31.1192 237.637 32.6985C236.058 39.0155 235.393 45.4157 231.819 51.0678" fill="#B4B4B4"/>
<path d="M239.299 59.0472C239.216 59.0472 239.05 59.0472 238.967 58.9641C238.717 58.7979 238.634 58.3823 238.8 58.1329C239.798 56.3043 241.045 54.725 242.458 53.2289C243.04 52.6471 243.705 52.1484 244.369 51.6496C245.367 50.9016 246.198 50.0704 247.029 49.1561C247.86 48.1586 248.525 46.995 249.024 45.7482C250.853 41.5091 251.518 36.8545 250.936 32.2829C250.603 30.0387 249.523 26.5477 248.276 26.2153C247.777 26.049 247.112 26.6309 246.78 27.1296C246.198 27.8776 245.699 28.792 245.45 29.7063C245.367 30.0387 245.034 30.205 244.702 30.1219C244.453 30.0387 244.203 29.7063 244.286 29.4569C244.453 28.3764 244.536 27.2958 244.536 26.2153C243.538 27.2127 242.79 28.3764 242.291 29.7063C242.125 30.4543 241.959 31.2024 241.71 31.9505C241.627 32.2829 241.294 32.4492 240.962 32.3661C240.629 32.2829 240.463 31.9505 240.546 31.7011C240.629 30.953 240.878 30.1219 241.128 29.4569C241.294 28.7088 241.377 27.9608 241.377 27.1296C240.878 27.6283 240.463 28.2101 240.047 28.8751C239.299 30.205 238.8 31.618 238.468 33.1141C238.136 34.444 237.803 35.8571 237.554 37.187C236.473 42.091 235.393 47.1612 232.567 51.6496C232.4 51.899 231.985 51.9821 231.735 51.8159C231.486 51.6496 231.403 51.234 231.569 50.9847C234.312 46.6625 235.309 41.9247 236.39 36.9376C236.723 35.6077 236.972 34.1947 237.304 32.8648C237.637 31.2855 238.219 29.7894 238.967 28.2932C238.967 28.2932 240.712 25.301 241.959 25.6334C242.291 25.7165 242.624 25.9659 242.624 26.714C242.956 26.2153 243.372 25.7997 243.788 25.3841C244.12 24.9685 244.702 24.8023 245.201 24.9685C245.616 25.2178 245.949 25.6334 245.866 26.1321C245.866 26.2153 245.866 26.3815 245.866 26.4646L245.949 26.3815C246.863 25.2178 247.86 24.8022 248.775 25.0516C251.435 25.7997 252.349 32.1167 252.349 32.1167C253.014 36.9376 252.349 41.8416 250.354 46.2469C249.772 47.5768 249.024 48.8236 248.11 49.9873C247.279 50.9847 246.281 51.8159 245.284 52.6471C244.702 53.1458 244.037 53.6445 243.455 54.2263C242.125 55.6394 240.962 57.2186 240.047 58.881C239.715 58.9641 239.549 59.0472 239.299 59.0472Z" fill="#231F20"/>
<path d="M251.435 36.1064C251.268 36.3558 238.219 52.4808 238.219 52.4808L234.728 39.5974L248.027 24.8022L251.435 36.1064Z" fill="#231F20"/>
<path d="M238.302 53.0622H238.136C237.886 52.9791 237.72 52.8129 237.637 52.6466L234.146 39.7632C234.063 39.597 234.146 39.3476 234.312 39.1814L247.611 24.4694C247.778 24.3031 248.027 24.22 248.193 24.3031C248.443 24.3862 248.609 24.5525 248.692 24.7187L252.183 35.9398C252.266 36.106 252.183 36.3554 252.1 36.5216C251.934 36.7709 239.466 52.2311 238.884 52.896C238.635 53.0622 238.468 53.1454 238.302 53.0622ZM235.476 39.7632L238.635 51.1505L250.853 36.0229L247.778 26.1317L235.476 39.7632Z" fill="#231F20"/>
<path d="M251.767 3.93911C250.354 5.10277 248.941 6.51579 247.528 7.4301C244.951 9.17559 241.959 10.2561 238.883 10.5886C238.052 10.6717 239.548 17.5706 239.798 18.2356C240.712 20.8122 242.042 23.1396 243.954 25.1344C245.616 26.8799 247.445 28.4592 249.273 30.0384C251.601 32.0333 255.258 32.2826 258.167 32.6982C260.744 33.0307 263.487 33.6957 266.063 33.8619C268.64 34.0281 271.715 34.1944 274.043 33.1969C277.035 31.867 278.864 27.9605 279.861 25.0513C281.108 21.3941 281.523 17.2381 280.11 13.4978C279.612 12.0848 278.78 10.838 277.617 9.84054C276.204 8.67688 274.791 8.84311 273.128 8.84311C273.295 6.76514 272.63 5.6846 270.801 4.3547C266.645 1.19618 259.414 0.863703 254.51 2.52608C253.512 2.69232 252.598 3.19104 251.767 3.93911Z" fill="white"/>
<path d="M269.056 34.4437C268.225 34.4437 267.31 34.4437 266.562 34.3606H265.98C264.318 34.2775 262.656 34.0281 260.993 33.6956C259.996 33.5294 258.998 33.3631 258.084 33.1969L257.419 33.1138C254.676 32.7813 251.185 32.3657 248.858 30.454C246.946 28.9578 245.118 27.2955 243.455 25.55C241.543 23.472 240.13 21.0616 239.216 18.4849C239.216 18.4018 237.471 11.586 238.302 10.3392C238.468 10.173 238.634 10.0067 238.884 10.0067C241.876 9.67427 244.785 8.67685 247.279 6.93135C248.193 6.34952 249.024 5.60145 249.772 4.93649C250.271 4.43778 250.853 4.02219 251.435 3.52348C252.349 2.77541 253.346 2.19357 254.427 1.77797C259.248 0.198716 266.728 0.281838 271.217 3.68971C272.796 4.85338 273.71 6.01704 273.794 8.09501C275.29 7.92878 276.786 8.34437 278.033 9.25867C279.279 10.2561 280.194 11.6691 280.692 13.1653C282.355 17.5706 281.524 22.1421 280.443 25.1344C278.864 29.7059 276.786 32.532 274.292 33.6125C272.63 34.2775 270.884 34.5268 269.056 34.4437ZM239.216 11.1704C239.133 12.4172 240.047 17.3212 240.297 17.9862C241.128 20.4797 242.541 22.7239 244.286 24.6357C245.949 26.3812 247.694 27.9604 249.606 29.4566C251.684 31.1189 254.759 31.5345 257.502 31.867L258.167 31.9501C259.165 32.0332 260.162 32.2826 261.159 32.4488C262.739 32.7813 264.401 32.9475 265.98 33.1138H266.562C268.806 33.1969 271.632 33.3632 273.71 32.4488C275.872 31.5345 277.7 28.8747 279.196 24.7188C280.194 21.8927 281.025 17.6537 279.446 13.5809C279.03 12.251 278.199 11.0873 277.118 10.173C275.955 9.25868 274.874 9.25867 273.461 9.25867H273.045C272.879 9.25867 272.713 9.17556 272.63 9.09244C272.547 9.00932 272.464 8.84308 272.464 8.59373C272.547 6.84823 272.131 5.8508 270.386 4.60402C266.396 1.52862 259.248 1.27926 254.676 2.85852C253.762 3.191 252.848 3.77283 252.1 4.43778C251.601 4.85338 251.019 5.35209 250.52 5.76768C249.689 6.51575 248.775 7.26382 247.86 7.92877C245.284 9.67427 242.375 10.7548 239.216 11.1704Z" fill="#231F20"/>
<path d="M255.092 45.8314L254.843 57.2187C254.843 57.2187 260.079 62.6214 267.311 60.4603C274.542 58.2993 275.373 53.229 275.373 53.229L274.293 32.6155C274.293 32.6155 268.724 29.9557 269.804 18.1528C269.804 18.1528 258.666 22.1425 247.695 21.3114C247.695 21.3114 248.193 34.6104 249.357 40.2625C250.521 45.9145 255.092 45.8314 255.092 45.8314Z" fill="white"/>
<path d="M263.819 61.6236C260.245 61.5405 256.92 60.1275 254.344 57.6339C254.261 57.5508 254.178 57.3845 254.178 57.2183L254.427 46.4128C253.014 46.1635 249.606 45.1661 248.692 40.4283C247.528 34.7762 247.112 21.8928 247.029 21.3941C247.029 21.2278 247.112 21.0616 247.196 20.8954C247.362 20.8122 247.528 20.7291 247.694 20.7291C258.417 21.5603 269.388 17.6537 269.471 17.6537C269.638 17.5706 269.887 17.5706 270.053 17.7368C270.219 17.9031 270.303 18.0693 270.303 18.3187C269.305 29.5397 274.459 32.1995 274.459 32.1995C274.625 32.2826 274.791 32.532 274.791 32.6982L275.872 53.3117C275.872 53.3948 275.872 53.3948 275.872 53.478C275.872 53.7273 274.874 58.9638 267.393 61.208C266.23 61.4574 264.983 61.6236 263.819 61.6236ZM255.424 56.969C256.339 57.8833 260.993 61.7067 267.061 59.8781C273.461 58.0495 274.542 53.7273 274.708 53.2286L273.71 33.0307C272.464 32.1995 268.474 28.8748 269.139 19.0667C266.313 19.981 257.336 22.5577 248.442 21.9759C248.525 24.8019 249.024 35.358 250.022 40.1789C251.019 45.2492 255.175 45.2492 255.175 45.2492C255.507 45.2492 255.84 45.4985 255.84 45.831L255.424 56.969Z" fill="#231F20"/>
<path d="M269.97 32.5323C270.136 31.5348 270.718 30.6205 271.466 29.8725C272.214 29.2906 273.046 28.7919 273.96 28.4594C274.459 28.2101 274.957 28.127 275.456 28.127C275.789 28.127 276.204 28.2932 276.537 28.4594C277.368 28.7919 278.033 29.4569 278.365 30.2049C278.615 30.8699 278.698 31.6179 278.531 32.2829C278.448 33.031 278.365 33.779 278.116 34.5271C276.952 37.5194 273.627 39.0155 270.635 37.935" fill="white"/>
<path d="M272.713 38.9325C271.882 38.9325 271.134 38.7662 270.386 38.5169C270.053 38.4338 269.887 38.0182 270.053 37.6857C270.219 37.3532 270.552 37.187 270.884 37.3532C273.544 38.3506 276.537 37.1039 277.617 34.4441V34.3609C277.866 33.696 277.95 32.9479 278.033 32.283C278.116 31.7011 278.116 31.0362 277.866 30.5375C277.534 29.8725 276.952 29.3738 276.287 29.1245C276.038 28.9582 275.788 28.8751 275.456 28.8751C275.04 28.8751 274.625 28.9582 274.209 29.2076C273.378 29.54 272.547 29.9556 271.882 30.5375C271.217 31.1193 270.718 31.9505 270.552 32.8648C270.469 33.1973 270.136 33.4466 269.804 33.3635C269.471 33.2804 269.222 32.9479 269.305 32.6154C269.555 31.4518 270.136 30.4544 270.968 29.6232C271.799 28.9582 272.713 28.4595 273.627 28.127C274.209 27.8777 274.791 27.7114 275.456 27.7114C275.872 27.7945 276.37 27.8777 276.786 28.127C277.7 28.5426 278.531 29.2907 278.947 30.205C279.196 30.9531 279.279 31.7843 279.196 32.6154C279.113 33.4466 278.947 34.2778 278.698 35.0259C277.7 37.2701 275.29 38.9325 272.713 38.9325Z" fill="#231F20"/>
<path d="M255.175 51.4832C257.918 51.6494 260.578 50.652 262.573 48.6572C265.648 45.4155 265.316 43.5869 265.316 43.5869C265.316 43.5869 260.246 46.6623 255.425 45.9142L255.175 51.4832Z" fill="#B4B4B4"/>
<path d="M255.757 52.1482C255.507 52.1482 255.341 52.1482 255.092 52.1482C254.759 52.1482 254.51 51.8157 254.51 51.4833L254.676 45.9974C254.676 45.8312 254.759 45.6649 254.926 45.4987C255.092 45.4156 255.258 45.3325 255.424 45.3325C259.996 45.9974 264.9 43.0882 264.9 43.0882C265.066 43.0051 265.315 42.922 265.482 43.0051C265.648 43.0883 265.814 43.2545 265.814 43.4207C265.897 43.6701 266.147 45.5818 262.905 48.9897C261.076 51.0677 258.5 52.1482 255.757 52.1482ZM256.006 46.7455L255.84 50.9014C258.167 50.9014 260.495 49.9871 262.157 48.3247C263.154 47.3273 263.986 46.1636 264.484 44.8337C261.824 46.1636 258.915 46.8286 256.006 46.7455Z" fill="#231F20"/>
<path d="M258.167 29.5396C258.167 29.5396 254.427 35.2747 255.341 36.2722C256.256 37.2696 258.832 36.6047 258.832 36.6047" fill="white"/>
<path d="M257.087 37.4356C256.256 37.5187 255.508 37.2694 254.926 36.6875C253.928 35.607 255.84 31.9497 257.752 29.2068C257.918 28.9575 258.334 28.8744 258.583 29.0406C258.832 29.2068 258.915 29.6224 258.749 29.8718C257.004 32.5316 255.674 35.3576 255.84 35.9395C256.256 36.3551 257.752 36.2719 258.666 36.0226C258.999 35.9395 259.331 36.1057 259.414 36.4382C259.497 36.7706 259.331 37.1031 258.999 37.1862C258.334 37.3525 257.669 37.4356 257.087 37.4356Z" fill="#231F20"/>
<path d="M265.588 29.4359C265.736 28.7165 265.455 28.0509 264.961 27.9493C264.466 27.8477 263.945 28.3485 263.797 29.068C263.65 29.7874 263.931 30.453 264.425 30.5546C264.92 30.6562 265.441 30.1553 265.588 29.4359Z" fill="#231F20"/>
<path d="M255.567 29.6932C255.715 28.9738 255.434 28.3082 254.939 28.2066C254.444 28.105 253.924 28.6059 253.776 29.3253C253.628 30.0447 253.909 30.7103 254.404 30.8119C254.898 30.9135 255.419 30.4126 255.567 29.6932Z" fill="#231F20"/>
<path d="M261.243 37.9351L255.84 39.1818C255.84 39.1818 256.006 43.504 258.666 43.1716C260.661 42.9222 261.658 38.6 261.243 37.9351Z" fill="#231F20"/>
<path d="M258.334 43.8364C257.752 43.8364 257.17 43.6702 256.755 43.2546C255.342 42.0909 255.175 39.5974 255.175 39.2649C255.175 38.9324 255.342 38.6831 255.674 38.5999L261.077 37.3532C261.326 37.27 261.575 37.4363 261.742 37.6025C262.24 38.3506 261.742 40.3454 261.243 41.426C260.578 42.839 259.747 43.6702 258.749 43.7533L258.334 43.8364ZM256.422 39.7636C256.505 40.6779 256.838 41.5922 257.503 42.3403C257.752 42.5897 258.168 42.6728 258.5 42.5897C258.999 42.4234 259.497 42.0909 259.747 41.5922C260.246 40.761 260.578 39.7636 260.661 38.7662L256.422 39.7636Z" fill="white"/>
<path d="M272.796 10.2563C272.131 11.5862 271.633 12.9993 271.134 14.4123L272.796 10.2563Z" fill="#B4B4B4"/>
<path d="M271.051 14.9937C270.968 14.9937 270.885 14.9937 270.885 14.9937C270.552 14.9106 270.386 14.5781 270.469 14.2457C270.469 14.2457 270.469 14.2457 270.469 14.1626C270.968 12.7495 271.55 11.3365 272.215 9.92349C272.381 9.59102 272.713 9.5079 273.046 9.59101C273.378 9.75725 273.461 10.0897 273.378 10.4222C272.713 11.7521 272.215 13.082 271.716 14.495C271.55 14.8275 271.383 14.9937 271.051 14.9937Z" fill="#231F20"/>
<path d="M220.93 93.9571C220.598 93.9571 220.348 93.7077 220.265 93.3753C220.265 93.209 220.265 93.1259 220.349 93.0428L241.71 62.0394C239.632 60.0446 229.824 50.6522 227.746 47.8261C227.58 47.5768 227.58 47.1612 227.829 46.9949C228.079 46.8287 228.494 46.8287 228.66 47.1612C230.905 50.1535 242.791 61.4576 242.874 61.6239C243.123 61.8732 243.123 62.2057 242.957 62.455L221.263 93.9571C221.346 93.874 221.097 93.9571 220.93 93.9571Z" fill="#231F20"/>
<path d="M241.71 51.3998C241.71 51.3998 243.538 46.6621 244.785 42.5893C246.032 38.5164 246.032 36.854 247.112 37.6852C248.193 38.5164 248.525 41.7581 247.112 46.3296" fill="#B4B4B4"/>
<path d="M241.71 51.9819C241.627 51.9819 241.544 51.9819 241.46 51.9819C241.128 51.8988 240.962 51.4832 241.128 51.1508C241.128 51.0676 242.957 46.3299 244.203 42.4233C244.536 41.3427 244.785 40.5115 244.951 39.7635C245.45 37.9348 245.699 37.1868 246.364 36.9374C246.78 36.8543 247.196 36.9374 247.445 37.1868C248.858 38.2673 249.024 42.1739 247.694 46.4961C247.611 46.8286 247.279 46.9948 246.946 46.9117C246.614 46.8286 246.448 46.4961 246.531 46.1636C247.861 41.6752 247.362 38.8492 246.78 38.2673C246.531 38.8492 246.364 39.5141 246.198 40.1791C246.032 40.9271 245.783 41.8414 245.45 42.8389C244.203 46.8286 242.375 51.6495 242.375 51.6495C242.209 51.8988 241.959 51.9819 241.71 51.9819Z" fill="#231F20"/>
<path d="M290.584 177.657L282.854 177.99L283.435 216.806L291.498 218.053L290.584 177.657Z" fill="#B4B4B4"/>
<path d="M291.498 218.635H291.415L283.269 217.388C282.937 217.305 282.771 217.056 282.771 216.807L282.189 178.073C282.189 177.741 282.438 177.491 282.771 177.408L290.417 176.993C290.584 176.993 290.75 177.076 290.833 177.159C290.916 177.242 290.999 177.408 290.999 177.575L291.997 217.97C292.163 218.386 291.914 218.635 291.498 218.635C291.581 218.635 291.581 218.635 291.498 218.635ZM284.017 216.225L290.833 217.305L289.919 178.323L283.519 178.655L284.017 216.225Z" fill="#231F20"/>
<path d="M290.584 177.657C290.417 178.156 291.581 218.053 291.581 218.053L328.32 216.972L328.652 178.073L290.584 177.657Z" fill="#B4B4B4"/>
<path d="M291.498 218.635C291.332 218.635 291.165 218.552 291.082 218.469C290.999 218.386 290.916 218.22 290.916 218.053C289.752 178.073 289.919 177.575 290.002 177.408C290.085 177.159 290.334 176.993 290.584 176.993L328.652 177.408C328.985 177.408 329.234 177.658 329.234 178.073L328.901 216.973C328.901 217.305 328.652 217.555 328.32 217.555L291.498 218.635ZM291.165 178.239C291.165 181.897 291.747 202.843 292.163 217.388L327.655 216.308L327.987 178.655L291.165 178.239Z" fill="#231F20"/>
<path d="M298.48 192.286C298.231 192.286 298.064 192.203 297.898 191.953L290.002 177.99C289.836 177.657 289.919 177.325 290.251 177.158C290.584 176.992 290.916 177.075 291.082 177.408L298.812 191.039L322.086 190.873L328.07 177.823C328.237 177.491 328.569 177.408 328.901 177.491C329.234 177.657 329.317 177.99 329.234 178.322L323.083 191.787C323 192.037 322.751 192.12 322.501 192.12L298.48 192.286Z" fill="#231F20"/>
<path d="M313.382 188.475L309.811 188.606L310.07 195.666L313.641 195.535L313.382 188.475Z" fill="black"/>
<path d="M259.996 263.187L259.747 272.995L251.85 274.076L252.1 270.751C251.019 272.663 249.191 273.992 247.029 274.491C243.455 275.322 234.562 277.234 231.652 276.154C228.743 275.073 238.884 264.434 238.884 264.434" fill="#B4B4B4"/>
<path d="M234.229 276.984C233.232 276.984 232.318 276.901 231.403 276.569C230.905 276.402 230.572 276.07 230.489 275.571C230.406 275.073 230.24 272.33 238.385 263.852C238.635 263.602 239.05 263.602 239.3 263.852C239.549 264.101 239.549 264.516 239.3 264.766C235.975 268.257 231.32 273.909 231.653 275.322C231.653 275.405 231.653 275.405 231.736 275.405C233.648 276.153 238.967 275.488 246.78 273.743C248.692 273.327 250.438 272.08 251.435 270.335C251.601 270.002 251.934 269.919 252.266 270.085C252.516 270.169 252.599 270.418 252.599 270.667L252.432 273.244L259.082 272.33L259.331 263.103C259.331 262.771 259.581 262.438 259.996 262.438C260.412 262.438 260.661 262.688 260.661 263.103L260.329 272.911C260.329 273.244 260.079 273.493 259.83 273.493L251.934 274.574C251.767 274.574 251.601 274.574 251.435 274.408C251.269 274.241 251.186 274.075 251.269 273.909L251.352 272.662C250.188 273.826 248.775 274.574 247.196 274.989C241.378 276.319 237.055 276.984 234.229 276.984Z" fill="#231F20"/>
<path d="M277.035 264.102L277.534 272.912L283.186 273.826L283.352 271C284.516 272.663 286.178 273.826 288.09 274.491C291.083 275.406 305.628 278.647 306.46 275.738C307.291 272.829 300.142 268.174 298.48 263.769" fill="#B4B4B4"/>
<path d="M302.719 277.566C301.14 277.566 299.561 277.4 297.982 277.151C294.574 276.652 291.249 275.987 287.924 275.073C286.428 274.574 285.015 273.66 283.851 272.496L283.768 273.826C283.768 273.992 283.685 274.159 283.519 274.242C283.353 274.325 283.186 274.408 283.02 274.408L277.368 273.494C277.119 273.411 276.869 273.244 276.869 272.912L276.371 264.101C276.371 263.769 276.62 263.436 276.952 263.436C277.285 263.436 277.617 263.686 277.617 264.018L278.116 272.33L282.605 273.078L282.771 270.917C282.771 270.668 282.937 270.418 283.186 270.335C283.436 270.252 283.685 270.335 283.851 270.584C284.932 272.081 286.511 273.244 288.257 273.826C291.498 274.74 294.823 275.405 298.148 275.904C305.296 276.902 305.878 275.655 305.878 275.488C306.293 274.242 304.299 272.081 302.387 270.003C300.475 267.925 298.646 266.013 297.898 263.935C297.732 263.603 297.898 263.27 298.231 263.104C298.563 262.938 298.896 263.104 299.062 263.436V263.519C299.727 265.348 301.556 267.26 303.301 269.171C305.628 271.748 307.706 273.909 307.125 275.904C306.875 276.652 306.044 277.566 302.719 277.566Z" fill="#231F20"/>
<path d="M298.314 148.982C297.981 148.982 297.732 148.732 297.649 148.4L297.15 71.6811C297.15 71.3486 297.399 71.0992 297.815 71.0161C298.148 71.0161 298.397 71.2655 298.397 71.5979L298.896 148.317C298.896 148.649 298.646 148.982 298.314 148.982Z" fill="#231F20"/>
<path d="M252.764 108.004C252.515 108.004 252.266 107.837 252.183 107.671C251.85 106.84 243.538 88.3876 243.206 87.3071C243.123 86.9746 242.79 85.9772 249.772 77.9147C247.777 76.5016 245.782 75.1717 243.621 73.9249C243.372 73.8418 243.206 73.6756 243.123 73.4262C243.04 73.0938 242.707 72.0132 251.518 60.8753C251.767 60.6259 252.1 60.5428 252.432 60.7922C252.764 61.0415 252.764 61.374 252.515 61.7065C248.858 66.278 245.034 71.5145 244.369 73.0106C245.949 73.8418 250.105 76.751 251.019 77.3328C251.268 77.4991 251.351 77.9147 251.185 78.164C251.185 78.164 251.185 78.164 251.102 78.2471C248.027 81.7381 244.619 86.0603 244.369 86.9746C244.868 88.3876 250.936 101.936 253.263 107.172C253.429 107.505 253.263 107.837 252.931 108.004C252.931 108.004 252.848 108.004 252.764 108.004Z" fill="#231F20"/>
<path d="M277.866 100.44C277.783 100.44 277.7 100.44 277.617 100.357C277.285 100.191 277.201 99.8582 277.285 99.5257L284.35 84.4812L278.116 78.2473C278.033 78.081 277.95 77.9148 277.95 77.7486C277.95 77.5823 278.033 77.4161 278.199 77.333L285.015 71.8471L277.035 59.9611C276.869 59.7118 276.952 59.2962 277.201 59.1299C277.451 58.9637 277.866 59.0468 278.033 59.2962L286.261 71.6809C286.428 71.9303 286.428 72.3459 286.178 72.5121L279.529 77.9148L285.596 83.9825C285.763 84.1487 285.846 84.4812 285.68 84.7306L278.448 100.191C278.282 100.357 278.116 100.44 277.866 100.44Z" fill="#231F20"/>
<path d="M233.481 139.672C233.232 139.672 233.065 139.589 232.982 139.34C232.816 139.09 232.899 138.675 233.232 138.509L244.536 131.776C244.785 131.61 245.201 131.693 245.367 132.025C245.533 132.358 245.45 132.69 245.118 132.857L233.813 139.589C233.647 139.672 233.564 139.672 233.481 139.672Z" fill="#231F20"/>
<path d="M289.919 142.748C289.752 142.748 289.586 142.665 289.503 142.582L280.526 134.935C280.277 134.685 280.277 134.27 280.443 134.02C280.609 133.771 281.108 133.771 281.357 133.937L290.251 141.584C290.5 141.833 290.584 142.166 290.334 142.498C290.251 142.665 290.085 142.748 289.919 142.748Z" fill="#231F20"/>
<path d="M264.65 159.122C264.318 159.122 264.069 158.873 264.069 158.623C263.404 154.966 262.406 130.363 262.406 129.366C262.406 129.033 262.656 128.701 262.988 128.701C263.321 128.701 263.653 128.95 263.653 129.283C263.653 129.532 264.734 154.8 265.315 158.374C265.399 158.707 265.149 159.039 264.817 159.122H264.65Z" fill="#B4B4B4"/>
<path d="M227.663 126.705C227.33 126.705 227.081 126.373 227.081 126.041L227.912 94.1228C227.912 93.7904 228.161 93.541 228.494 93.541C228.826 93.541 229.076 93.7904 229.076 94.206L228.244 126.124C228.328 126.456 227.995 126.705 227.663 126.705Z" fill="#231F20"/>
<path d="M368.549 197.108C371.209 194.78 374.118 192.786 377.359 191.373C377.609 200.765 373.785 209.492 370.294 215.394H358.824" fill="#B4B4B4"/>
<path d="M370.294 216.058H358.741C358.408 216.058 358.076 215.809 358.076 215.393C358.076 214.978 358.325 214.728 358.741 214.728H369.879C373.037 209.326 376.695 201.18 376.695 192.286C373.869 193.699 371.292 195.445 368.881 197.523C368.632 197.772 368.216 197.689 367.967 197.44C367.718 197.19 367.801 196.775 368.05 196.525C370.71 194.115 373.785 192.12 377.027 190.707C377.193 190.624 377.443 190.624 377.609 190.79C377.775 190.873 377.858 191.123 377.858 191.289C378.108 201.014 374.118 209.907 370.71 215.643C370.71 215.892 370.544 216.058 370.294 216.058Z" fill="#231F20"/>
<path d="M352.092 199.684C354.918 184.972 366.471 175.663 366.471 175.663C368.632 182.561 369.297 189.876 368.549 197.107C367.967 203.341 366.637 209.492 364.559 215.393H352.175" fill="#B4B4B4"/>
<path d="M364.56 216.059H352.175C351.842 216.059 351.51 215.809 351.51 215.394C351.51 214.978 351.759 214.729 352.175 214.729H364.061C365.973 208.994 367.302 203.009 367.884 197.025C368.632 190.209 367.967 183.31 366.139 176.66C363.645 178.905 355.001 187.466 352.674 199.684C352.59 200.017 352.258 200.266 351.925 200.183C351.593 200.1 351.344 199.768 351.427 199.435C354.253 184.64 365.889 175.164 366.056 175.081C366.305 174.832 366.721 174.915 366.97 175.164C367.053 175.247 367.053 175.247 367.053 175.331C369.214 182.313 369.962 189.71 369.214 197.025C368.632 203.342 367.302 209.492 365.224 215.477C365.058 215.893 364.809 216.059 364.56 216.059Z" fill="#231F20"/>
<path d="M345.941 215.394H356.913C356.996 212.152 356.248 207.248 352.757 200.848L352.092 199.601C345.775 188.879 339.956 188.962 339.956 188.962C337.463 200.349 342.616 210.407 345.941 215.394Z" fill="#B4B4B4"/>
<path d="M356.912 216.059H345.941C345.691 216.059 345.525 215.976 345.442 215.81C342.117 210.739 336.798 200.516 339.291 188.962C339.374 188.713 339.624 188.463 339.873 188.463C340.122 188.463 346.107 188.463 352.59 199.352L353.338 200.599C356.996 207.248 357.661 212.318 357.577 215.477C357.494 215.809 357.245 216.059 356.912 216.059ZM346.273 214.812H356.248C356.248 211.82 355.499 207.248 352.175 201.181L351.51 199.934C346.523 191.456 341.868 189.96 340.372 189.71C338.294 200.432 343.115 209.908 346.273 214.812Z" fill="#231F20"/>
<path d="M347.936 232.765H369.463L372.871 215.394H344.528L347.936 232.765Z" fill="#231F20"/>
<path d="M142.216 133.604V129.781H112.127L103.483 98.3621C103.067 96.6997 101.571 95.6191 99.8258 95.6191H57.5183C55.4403 95.6191 53.6948 97.2815 53.6948 99.3595C53.6948 99.7751 53.7779 100.191 53.8611 100.606L64.6665 133.355L142.216 133.604Z" fill="#231F20"/>
<path d="M106.559 129.033H63.5861C63.2536 129.033 62.9211 128.783 62.9211 128.368C62.9211 127.952 63.1705 127.703 63.5861 127.703H106.642C106.974 127.703 107.307 127.952 107.307 128.368C107.307 128.783 106.974 129.033 106.559 129.033Z" fill="#B4B4B4"/>
</svg>
