<svg width="265" height="87" viewBox="0 0 265 87" fill="none" xmlns="http://www.w3.org/2000/svg">
<rect width="265" height="87" fill="#111827"/>
<path d="M102.717 38.5856C100.879 38.5856 99.2156 38.1852 97.7274 37.3844C96.2566 36.5662 95.1011 35.4519 94.2606 34.0418C93.4202 32.6142 93 31.0125 93 29.2368C93 27.461 93.4202 25.868 94.2606 24.4579C95.1011 23.0303 96.2654 21.9161 97.7536 21.1153C99.2419 20.297 100.905 19.8879 102.744 19.8879C104.179 19.8879 105.493 20.1316 106.683 20.6191C107.874 21.0891 108.889 21.7942 109.73 22.7343L108.023 24.3795C106.639 22.9345 104.915 22.212 102.849 22.212C101.483 22.212 100.249 22.5167 99.1456 23.126C98.0425 23.7354 97.1759 24.5797 96.5455 25.6591C95.9327 26.7211 95.6263 27.9136 95.6263 29.2368C95.6263 30.5599 95.9327 31.7611 96.5455 32.8405C97.1759 33.9025 98.0425 34.7382 99.1456 35.3475C100.249 35.9568 101.483 36.2615 102.849 36.2615C104.897 36.2615 106.622 35.5303 108.023 34.0679L109.73 35.7131C108.889 36.6532 107.865 37.367 106.657 37.8545C105.466 38.3419 104.153 38.5856 102.717 38.5856Z" fill="white"/>
<path d="M125.647 24.5362V36.4965C125.647 38.9164 125.078 40.7009 123.94 41.8499C122.801 43.0164 121.094 43.5996 118.818 43.5996C117.575 43.5996 116.384 43.4168 115.246 43.0512C114.126 42.703 113.207 42.1981 112.489 41.5366L113.723 39.6041C114.336 40.1612 115.071 40.5964 115.929 40.9098C116.805 41.2232 117.724 41.3799 118.687 41.3799C120.21 41.3799 121.331 40.9969 122.049 40.2308C122.766 39.4822 123.125 38.3245 123.125 36.7577V35.7392C122.618 36.4008 121.961 36.9143 121.156 37.2799C120.35 37.6281 119.475 37.8022 118.529 37.8022C116.673 37.8022 115.211 37.2973 114.143 36.2876C113.075 35.2779 112.541 33.7806 112.541 31.796V24.5362H115.063V31.5087C115.063 32.8318 115.386 33.8416 116.034 34.5379C116.682 35.2169 117.61 35.5564 118.818 35.5564C120.149 35.5564 121.199 35.156 121.97 34.3551C122.74 33.5543 123.125 32.4227 123.125 30.9603V24.5362H125.647Z" fill="white"/>
<path d="M137.826 24.4056C139.175 24.4056 140.383 24.7016 141.451 25.2935C142.519 25.8854 143.35 26.7124 143.946 27.7744C144.559 28.8363 144.865 30.0637 144.865 31.4565C144.865 32.8492 144.559 34.0853 143.946 35.1647C143.35 36.2267 142.519 37.0536 141.451 37.6455C140.383 38.2375 139.175 38.5334 137.826 38.5334C136.793 38.5334 135.848 38.3332 134.99 37.9328C134.132 37.5324 133.423 36.9492 132.863 36.1831V38.3767H130.446V19H132.968V26.6253C133.528 25.8941 134.228 25.3458 135.069 24.9802C135.909 24.5971 136.828 24.4056 137.826 24.4056ZM137.616 36.3398C138.509 36.3398 139.306 36.1396 140.006 35.7392C140.724 35.3214 141.284 34.7469 141.687 34.0157C142.107 33.2671 142.317 32.414 142.317 31.4565C142.317 30.499 142.107 29.6546 141.687 28.9234C141.284 28.1748 140.724 27.6003 140.006 27.1999C139.306 26.7994 138.509 26.5992 137.616 26.5992C136.741 26.5992 135.944 26.7994 135.226 27.1999C134.509 27.6003 133.948 28.1748 133.546 28.9234C133.143 29.6546 132.941 30.499 132.941 31.4565C132.941 32.414 133.143 33.2671 133.546 34.0157C133.948 34.7469 134.509 35.3214 135.226 35.7392C135.944 36.1396 136.741 36.3398 137.616 36.3398Z" fill="white"/>
<path d="M154.625 36.3398C156.289 36.3398 157.628 35.7827 158.644 34.6685L160.009 36.2876C159.397 37.0188 158.617 37.5759 157.672 37.9589C156.744 38.3419 155.702 38.5334 154.547 38.5334C153.076 38.5334 151.772 38.2375 150.633 37.6455C149.495 37.0362 148.611 36.1918 147.981 35.1125C147.368 34.0331 147.062 32.8144 147.062 31.4565C147.062 30.1159 147.359 28.906 147.955 27.8266C148.567 26.7472 149.399 25.9116 150.45 25.3196C151.518 24.7103 152.717 24.4056 154.048 24.4056C155.308 24.4056 156.455 24.6929 157.488 25.2674C158.521 25.8245 159.344 26.6166 159.957 27.6438C160.57 28.671 160.885 29.8548 160.902 31.1953L149.846 33.3367C150.196 34.2942 150.782 35.0341 151.605 35.5564C152.446 36.0787 153.452 36.3398 154.625 36.3398ZM154.048 26.5209C153.172 26.5209 152.384 26.7211 151.684 27.1215C151.001 27.5219 150.467 28.0877 150.082 28.8189C149.697 29.5327 149.504 30.3684 149.504 31.3259V31.587L158.407 29.9157C158.18 28.906 157.672 28.0877 156.884 27.461C156.096 26.8343 155.151 26.5209 154.048 26.5209Z" fill="white"/>
<path d="M166.846 26.8604C167.284 26.0595 167.931 25.4502 168.789 25.0324C169.647 24.6146 170.689 24.4056 171.915 24.4056V26.8343C171.775 26.8169 171.582 26.8081 171.337 26.8081C169.971 26.8081 168.894 27.2173 168.107 28.0355C167.336 28.8363 166.951 29.9854 166.951 31.4826V38.3767H164.43V24.5362H166.846V26.8604Z" fill="white"/>
<path d="M99.379 52.8353V66.5714H102.924V68.8433H93.2071V66.5714H96.7526V52.8353H93.2071V50.5634H102.924V52.8353H99.379Z" fill="white"/>
<path d="M113.878 54.8722C115.646 54.8722 117.047 55.3858 118.08 56.413C119.13 57.4227 119.656 58.9112 119.656 60.8785V68.8433H117.134V61.1657C117.134 59.8252 116.81 58.8155 116.163 58.1365C115.515 57.4575 114.587 57.118 113.379 57.118C112.013 57.118 110.936 57.5185 110.148 58.3193C109.36 59.1027 108.966 60.2343 108.966 61.7141V68.8433H106.445V55.0028H108.861V57.0919C109.369 56.3781 110.052 55.8297 110.91 55.4467C111.785 55.0637 112.775 54.8722 113.878 54.8722Z" fill="white"/>
<path d="M131.754 54.8722C133.523 54.8722 134.923 55.3858 135.956 56.413C137.007 57.4227 137.532 58.9112 137.532 60.8785V68.8433H135.011V61.1657C135.011 59.8252 134.687 58.8155 134.039 58.1365C133.391 57.4575 132.463 57.118 131.255 57.118C129.889 57.118 128.813 57.5185 128.025 58.3193C127.237 59.1027 126.843 60.2343 126.843 61.7141V68.8433H124.322V55.0028H126.738V57.0919C127.246 56.3781 127.928 55.8297 128.786 55.4467C129.662 55.0637 130.651 54.8722 131.754 54.8722Z" fill="white"/>
<path d="M148.237 69C146.854 69 145.61 68.6953 144.507 68.086C143.404 67.4767 142.538 66.641 141.907 65.579C141.295 64.4997 140.988 63.281 140.988 61.9231C140.988 60.5651 141.295 59.3552 141.907 58.2932C142.538 57.2138 143.404 56.3781 144.507 55.7862C145.61 55.1769 146.854 54.8722 148.237 54.8722C149.62 54.8722 150.854 55.1769 151.94 55.7862C153.043 56.3781 153.901 57.2138 154.514 58.2932C155.144 59.3552 155.459 60.5651 155.459 61.9231C155.459 63.281 155.144 64.4997 154.514 65.579C153.901 66.641 153.043 67.4767 151.94 68.086C150.854 68.6953 149.62 69 148.237 69ZM148.237 66.8064C149.13 66.8064 149.926 66.6062 150.627 66.2058C151.345 65.788 151.905 65.2134 152.308 64.4822C152.71 63.7336 152.912 62.8806 152.912 61.9231C152.912 60.9655 152.71 60.1212 152.308 59.39C151.905 58.6414 151.345 58.0669 150.627 57.6664C149.926 57.266 149.13 57.0658 148.237 57.0658C147.344 57.0658 146.538 57.266 145.821 57.6664C145.12 58.0669 144.56 58.6414 144.14 59.39C143.737 60.1212 143.536 60.9655 143.536 61.9231C143.536 62.8806 143.737 63.7336 144.14 64.4822C144.56 65.2134 145.12 65.788 145.821 66.2058C146.538 66.6062 147.344 66.8064 148.237 66.8064Z" fill="white"/>
<path d="M170.879 55.0028L164.786 68.8433H162.212L156.119 55.0028H158.745L163.525 66.1013L168.41 55.0028H170.879Z" fill="white"/>
<path d="M185.979 55.0028V68.8433H183.563V66.6497C183.002 67.4157 182.293 67.999 181.435 68.3994C180.577 68.7998 179.632 69 178.599 69C177.251 69 176.042 68.704 174.974 68.1121C173.906 67.5202 173.066 66.6932 172.453 65.6313C171.858 64.5519 171.56 63.3158 171.56 61.9231C171.56 60.5303 171.858 59.3029 172.453 58.241C173.066 57.179 173.906 56.352 174.974 55.7601C176.042 55.1682 177.251 54.8722 178.599 54.8722C179.597 54.8722 180.516 55.0637 181.356 55.4467C182.197 55.8123 182.897 56.3607 183.457 57.0919V55.0028H185.979ZM178.809 66.8064C179.684 66.8064 180.481 66.6062 181.199 66.2058C181.917 65.788 182.477 65.2134 182.88 64.4822C183.282 63.7336 183.484 62.8806 183.484 61.9231C183.484 60.9655 183.282 60.1212 182.88 59.39C182.477 58.6414 181.917 58.0669 181.199 57.6664C180.481 57.266 179.684 57.0658 178.809 57.0658C177.916 57.0658 177.111 57.266 176.393 57.6664C175.692 58.0669 175.132 58.6414 174.712 59.39C174.309 60.1212 174.108 60.9655 174.108 61.9231C174.108 62.8806 174.309 63.7336 174.712 64.4822C175.132 65.2134 175.692 65.788 176.393 66.2058C177.111 66.6062 177.916 66.8064 178.809 66.8064Z" fill="white"/>
<path d="M198.077 68.0338C197.709 68.3471 197.254 68.5909 196.711 68.765C196.168 68.9217 195.608 69 195.03 69C193.629 69 192.544 68.6257 191.773 67.8771C191.003 67.1285 190.618 66.0578 190.618 64.665V51.9735H193.139V55.0028H197.131V57.0658H193.139V64.5606C193.139 65.3092 193.323 65.8837 193.691 66.2841C194.076 66.6845 194.619 66.8848 195.319 66.8848C196.089 66.8848 196.746 66.6671 197.289 66.2319L198.077 68.0338Z" fill="white"/>
<path d="M201.111 55.0028H203.632V68.8433H201.111V55.0028ZM202.372 52.3391C201.881 52.3391 201.47 52.1825 201.137 51.8691C200.822 51.5557 200.665 51.1727 200.665 50.7201C200.665 50.2674 200.822 49.8844 201.137 49.571C201.47 49.2403 201.881 49.0749 202.372 49.0749C202.862 49.0749 203.265 49.2316 203.58 49.5449C203.912 49.8409 204.079 50.2152 204.079 50.6678C204.079 51.1379 203.912 51.5383 203.58 51.8691C203.265 52.1825 202.862 52.3391 202.372 52.3391Z" fill="white"/>
<path d="M214.408 69C213.025 69 211.782 68.6953 210.679 68.086C209.576 67.4767 208.709 66.641 208.079 65.579C207.466 64.4997 207.159 63.281 207.159 61.9231C207.159 60.5651 207.466 59.3552 208.079 58.2932C208.709 57.2138 209.576 56.3781 210.679 55.7862C211.782 55.1769 213.025 54.8722 214.408 54.8722C215.791 54.8722 217.026 55.1769 218.111 55.7862C219.214 56.3781 220.072 57.2138 220.685 58.2932C221.315 59.3552 221.63 60.5651 221.63 61.9231C221.63 63.281 221.315 64.4997 220.685 65.579C220.072 66.641 219.214 67.4767 218.111 68.086C217.026 68.6953 215.791 69 214.408 69ZM214.408 66.8064C215.301 66.8064 216.098 66.6062 216.798 66.2058C217.516 65.788 218.076 65.2134 218.479 64.4822C218.882 63.7336 219.083 62.8806 219.083 61.9231C219.083 60.9655 218.882 60.1212 218.479 59.39C218.076 58.6414 217.516 58.0669 216.798 57.6664C216.098 57.266 215.301 57.0658 214.408 57.0658C213.515 57.0658 212.71 57.266 211.992 57.6664C211.291 58.0669 210.731 58.6414 210.311 59.39C209.908 60.1212 209.707 60.9655 209.707 61.9231C209.707 62.8806 209.908 63.7336 210.311 64.4822C210.731 65.2134 211.291 65.788 211.992 66.2058C212.71 66.6062 213.515 66.8064 214.408 66.8064Z" fill="white"/>
<path d="M232.55 54.8722C234.318 54.8722 235.719 55.3858 236.752 56.413C237.802 57.4227 238.328 58.9112 238.328 60.8785V68.8433H235.806V61.1657C235.806 59.8252 235.482 58.8155 234.835 58.1365C234.187 57.4575 233.259 57.118 232.051 57.118C230.685 57.118 229.608 57.5185 228.82 58.3193C228.032 59.1027 227.639 60.2343 227.639 61.7141V68.8433H225.117V55.0028H227.533V57.0919C228.041 56.3781 228.724 55.8297 229.582 55.4467C230.457 55.0637 231.447 54.8722 232.55 54.8722Z" fill="white"/>
<path d="M246.986 69C245.848 69 244.753 68.852 243.703 68.5561C242.652 68.2427 241.829 67.851 241.234 67.3809L242.285 65.3962C242.897 65.8315 243.642 66.1797 244.517 66.4408C245.392 66.702 246.277 66.8325 247.17 66.8325C249.376 66.8325 250.479 66.2058 250.479 64.9523C250.479 64.5345 250.33 64.2037 250.032 63.96C249.735 63.7162 249.358 63.5421 248.903 63.4377C248.465 63.3158 247.835 63.1852 247.012 63.046C245.891 62.8719 244.972 62.6717 244.254 62.4453C243.554 62.219 242.95 61.836 242.442 61.2963C241.934 60.7566 241.681 59.9993 241.681 59.0244C241.681 57.7709 242.206 56.7699 243.256 56.0212C244.307 55.2552 245.716 54.8722 247.485 54.8722C248.413 54.8722 249.341 54.9854 250.269 55.2117C251.197 55.438 251.958 55.7427 252.554 56.1257L251.477 58.1104C250.339 57.3792 248.999 57.0136 247.458 57.0136C246.39 57.0136 245.576 57.1877 245.016 57.5359C244.456 57.8841 244.176 58.3454 244.176 58.9199C244.176 59.3726 244.333 59.7295 244.648 59.9906C244.963 60.2517 245.349 60.4432 245.804 60.5651C246.277 60.687 246.933 60.8263 247.774 60.9829C248.894 61.1744 249.796 61.3834 250.479 61.6097C251.179 61.8186 251.774 62.1842 252.265 62.7065C252.755 63.2288 253 63.96 253 64.9001C253 66.1536 252.457 67.1546 251.372 67.9032C250.304 68.6344 248.842 69 246.986 69Z" fill="white"/>
<path fill-rule="evenodd" clip-rule="evenodd" d="M74.2345 71.6722H66.231H65.1432V41.7918L74.2345 32.7178V54.9942V62.5982V71.6722Z" fill="white"/>
<path fill-rule="evenodd" clip-rule="evenodd" d="M22.443 44.4501C22.443 59.4223 34.7157 71.6725 49.716 71.6725H60.5979V62.5983H49.7162C39.7338 62.5983 31.5339 54.4135 31.5339 44.4499C31.5341 34.4863 39.7338 26.3015 49.716 26.3015L60.5979 26.3017V24.4225V17.2275H49.7162C34.7161 17.2275 22.443 29.4777 22.443 44.4501Z" fill="white"/>
<path fill-rule="evenodd" clip-rule="evenodd" d="M65.1436 17.2275H65.1432V35.3646L67.806 32.7179L74.2345 26.3015L65.1436 17.2275Z" fill="white"/>
</svg>
