<svg width="307" height="101" viewBox="0 0 307 101" fill="none" xmlns="http://www.w3.org/2000/svg">
<rect width="307" height="101" fill="white"/>
<path fill-rule="evenodd" clip-rule="evenodd" d="M86 83.2058H76.728H75.4678V48.5171L86 37.9829V63.844V72.6716V83.2058Z" fill="black"/>
<path fill-rule="evenodd" clip-rule="evenodd" d="M26 51.6029C26 68.9844 40.2178 83.2059 57.5955 83.2059H70.2021V72.6715H57.5957C46.0312 72.6715 36.5318 63.1696 36.5318 51.6027C36.532 40.0357 46.0312 30.5339 57.5955 30.5339L70.2021 30.5341V28.3524V19.9997H57.5957C40.2182 19.9997 26 34.2212 26 51.6029Z" fill="#0160D3"/>
<path fill-rule="evenodd" clip-rule="evenodd" d="M75.4682 19.9999H75.4678V41.0556L78.5527 37.983L86 30.5341L75.4682 19.9999Z" fill="#FC3535"/>
<path fill-rule="evenodd" clip-rule="evenodd" d="M86 83.2058H76.728H75.4678V48.5171L86 37.9829V63.844V72.6716V83.2058Z" fill="black"/>
<path fill-rule="evenodd" clip-rule="evenodd" d="M26 51.6029C26 68.9844 40.2178 83.2059 57.5955 83.2059H70.2021V72.6715H57.5957C46.0312 72.6715 36.5318 63.1696 36.5318 51.6027C36.532 40.0357 46.0312 30.5339 57.5955 30.5339L70.2021 30.5341V28.3524V19.9997H57.5957C40.2182 19.9997 26 34.2212 26 51.6029Z" fill="#0160D3"/>
<path fill-rule="evenodd" clip-rule="evenodd" d="M75.4682 19.9999H75.4678V41.0556L78.5527 37.983L86 30.5341L75.4682 19.9999Z" fill="#FC3535"/>
<path d="M117.304 37.824C117.667 37.824 117.976 37.9307 118.232 38.144C118.488 38.3573 118.616 38.624 118.616 38.944C118.616 39.392 118.456 39.8613 118.136 40.352C117.325 41.6747 116.312 42.6667 115.096 43.328C113.88 43.9893 112.429 44.32 110.744 44.32C108.781 44.32 107.085 43.8507 105.656 42.912C104.248 41.952 103.16 40.608 102.392 38.88C101.645 37.1307 101.272 35.0827 101.272 32.736C101.272 29.1307 102.104 26.3253 103.768 24.32C105.453 22.2933 107.8 21.28 110.808 21.28C112.216 21.28 113.517 21.536 114.712 22.048C115.907 22.56 116.856 23.2533 117.56 24.128C118.264 24.9813 118.616 25.9307 118.616 26.976C118.616 27.6587 118.435 28.2027 118.072 28.608C117.731 29.0133 117.251 29.216 116.632 29.216C116.099 29.216 115.651 29.0453 115.288 28.704C114.947 28.3627 114.776 27.936 114.776 27.424C114.776 26.8053 115 26.304 115.448 25.92C115.064 25.2587 114.456 24.7467 113.624 24.384C112.792 24 111.864 23.808 110.84 23.808C106.403 23.808 104.184 26.7733 104.184 32.704C104.184 35.6267 104.739 37.8773 105.848 39.456C106.979 41.0133 108.643 41.792 110.84 41.792C112.035 41.792 113.059 41.5467 113.912 41.056C114.787 40.5653 115.512 39.808 116.088 38.784C116.28 38.4 116.461 38.144 116.632 38.016C116.803 37.888 117.027 37.824 117.304 37.824ZM137.581 28C138.285 28 138.637 28.288 138.637 28.864V29.664C138.637 30.24 138.285 30.528 137.581 30.528H136.749L130.189 46.656C129.399 48.5333 128.621 49.8347 127.853 50.56C127.106 51.3067 126.146 51.68 124.973 51.68C124.055 51.68 123.298 51.424 122.701 50.912C122.125 50.4213 121.837 49.792 121.837 49.024C121.837 48.4693 122.007 48.0213 122.349 47.68C122.711 47.3387 123.17 47.168 123.725 47.168C124.215 47.168 124.631 47.3387 124.973 47.68C125.314 48.0213 125.485 48.4373 125.485 48.928C125.485 49.0347 125.463 49.1733 125.421 49.344C125.826 49.2587 126.189 48.992 126.509 48.544C126.829 48.1173 127.181 47.424 127.565 46.464L128.749 43.488L123.437 30.528H122.605C121.901 30.528 121.549 30.24 121.549 29.664V28.864C121.549 28.288 121.901 28 122.605 28H126.989C127.671 28 128.013 28.288 128.013 28.864V29.664C128.013 30.24 127.671 30.528 126.989 30.528H126.445L130.253 40.032L133.997 30.528H133.357C132.653 30.528 132.301 30.24 132.301 29.664V28.864C132.301 28.288 132.653 28 133.357 28H137.581ZM150.159 27.68C151.439 27.68 152.559 28.0107 153.519 28.672C154.5 29.3333 155.247 30.2827 155.759 31.52C156.292 32.736 156.559 34.1653 156.559 35.808C156.559 38.4533 155.93 40.5333 154.671 42.048C153.434 43.5627 151.716 44.32 149.519 44.32C148.58 44.32 147.684 44.0853 146.831 43.616C145.978 43.1253 145.263 42.4533 144.687 41.6L144.495 43.168C144.41 43.8507 144.058 44.192 143.439 44.192H143.215C142.874 44.192 142.596 44.096 142.383 43.904C142.17 43.712 142.063 43.4133 142.063 43.008V22.848H141.231C140.548 22.848 140.207 22.56 140.207 21.984V21.184C140.207 20.608 140.548 20.32 141.231 20.32H143.791C144.132 20.32 144.41 20.4373 144.623 20.672C144.836 20.8853 144.943 21.1627 144.943 21.504V31.136C145.348 30.1333 146.031 29.312 146.991 28.672C147.972 28.0107 149.028 27.68 150.159 27.68ZM149.263 41.824C150.692 41.824 151.78 41.3013 152.527 40.256C153.274 39.1893 153.647 37.6533 153.647 35.648C153.647 33.92 153.284 32.576 152.559 31.616C151.834 30.656 150.81 30.176 149.487 30.176C148.655 30.176 147.887 30.4107 147.183 30.88C146.5 31.328 145.956 31.9467 145.551 32.736C145.146 33.5253 144.943 34.3893 144.943 35.328V39.488C145.519 40.2347 146.18 40.8107 146.927 41.216C147.674 41.6213 148.452 41.824 149.263 41.824ZM174.345 35.2C174.345 35.3067 174.313 35.776 174.249 36.608H162.889C162.996 38.2293 163.465 39.5093 164.297 40.448C165.129 41.3653 166.239 41.824 167.625 41.824C168.564 41.824 169.311 41.6747 169.865 41.376C170.42 41.0773 170.943 40.544 171.433 39.776C171.604 39.52 171.764 39.3387 171.913 39.232C172.084 39.1253 172.276 39.072 172.489 39.072C172.809 39.072 173.087 39.1787 173.321 39.392C173.577 39.584 173.705 39.8293 173.705 40.128C173.705 40.5333 173.556 40.9493 173.257 41.376C172.639 42.3787 171.871 43.1253 170.953 43.616C170.036 44.0853 168.895 44.32 167.529 44.32C166.015 44.32 164.681 43.968 163.529 43.264C162.399 42.56 161.513 41.568 160.873 40.288C160.255 39.008 159.945 37.536 159.945 35.872C159.945 34.2293 160.255 32.7893 160.873 31.552C161.492 30.3147 162.367 29.3653 163.497 28.704C164.628 28.0213 165.94 27.68 167.433 27.68C169.503 27.68 171.167 28.3413 172.425 29.664C173.705 30.9867 174.345 32.832 174.345 35.2ZM167.369 30.048C166.111 30.048 165.097 30.432 164.329 31.2C163.583 31.9467 163.124 33.0347 162.953 34.464H171.433C171.412 31.52 170.057 30.048 167.369 30.048ZM187.073 27.68C187.926 27.68 188.577 27.8827 189.025 28.288C189.473 28.672 189.697 29.216 189.697 29.92C189.697 30.4747 189.515 30.944 189.153 31.328C188.79 31.6907 188.321 31.872 187.745 31.872C187.233 31.872 186.806 31.7227 186.465 31.424C186.123 31.104 185.931 30.6987 185.889 30.208C185.227 30.272 184.619 30.592 184.065 31.168C183.51 31.7227 183.062 32.448 182.721 33.344C182.401 34.2187 182.241 35.1573 182.241 36.16V41.472H183.745C184.449 41.472 184.801 41.76 184.801 42.336V43.136C184.801 43.712 184.449 44 183.745 44H178.529C177.846 44 177.505 43.712 177.505 43.136V42.336C177.505 41.76 177.846 41.472 178.529 41.472H179.361V30.528H178.529C177.846 30.528 177.505 30.24 177.505 29.664V28.864C177.505 28.288 177.846 28 178.529 28H181.057C181.398 28 181.675 28.1173 181.889 28.352C182.123 28.5653 182.241 28.8427 182.241 29.184V32C182.625 30.6773 183.243 29.632 184.097 28.864C184.971 28.0747 185.963 27.68 187.073 27.68ZM102.04 82C101.336 82 100.984 81.712 100.984 81.136V80.336C100.984 79.76 101.336 79.472 102.04 79.472H102.872V62.128H102.04C101.336 62.128 100.984 61.84 100.984 61.264V60.464C100.984 59.888 101.336 59.6 102.04 59.6H106.584C107.288 59.6 107.64 59.888 107.64 60.464V61.264C107.64 61.84 107.288 62.128 106.584 62.128H105.752V79.472H106.584C107.288 79.472 107.64 79.76 107.64 80.336V81.136C107.64 81.712 107.288 82 106.584 82H102.04ZM127.321 79.472C128.004 79.472 128.345 79.76 128.345 80.336V81.136C128.345 81.712 128.004 82 127.321 82H122.873C122.169 82 121.817 81.712 121.817 81.136V80.336C121.817 79.76 122.169 79.472 122.873 79.472H123.609V73.296C123.609 71.3973 123.374 70.0747 122.905 69.328C122.457 68.56 121.668 68.176 120.537 68.176C119.748 68.176 118.99 68.4427 118.265 68.976C117.561 69.488 116.985 70.16 116.537 70.992C116.11 71.824 115.897 72.6987 115.897 73.616V79.472H116.633C117.337 79.472 117.689 79.76 117.689 80.336V81.136C117.689 81.712 117.337 82 116.633 82H112.185C111.502 82 111.161 81.712 111.161 81.136V80.336C111.161 79.76 111.502 79.472 112.185 79.472H113.017V68.528H112.185C111.502 68.528 111.161 68.24 111.161 67.664V66.864C111.161 66.288 111.502 66 112.185 66H114.713C115.054 66 115.332 66.1173 115.545 66.352C115.78 66.5653 115.897 66.8427 115.897 67.184V69.584C116.345 68.4533 117.07 67.5253 118.073 66.8C119.097 66.0533 120.153 65.68 121.241 65.68C124.74 65.68 126.489 68.0693 126.489 72.848V79.472H127.321ZM147.102 79.472C147.785 79.472 148.126 79.76 148.126 80.336V81.136C148.126 81.712 147.785 82 147.102 82H142.654C141.95 82 141.598 81.712 141.598 81.136V80.336C141.598 79.76 141.95 79.472 142.654 79.472H143.39V73.296C143.39 71.3973 143.156 70.0747 142.686 69.328C142.238 68.56 141.449 68.176 140.318 68.176C139.529 68.176 138.772 68.4427 138.046 68.976C137.342 69.488 136.766 70.16 136.318 70.992C135.892 71.824 135.678 72.6987 135.678 73.616V79.472H136.414C137.118 79.472 137.47 79.76 137.47 80.336V81.136C137.47 81.712 137.118 82 136.414 82H131.966C131.284 82 130.942 81.712 130.942 81.136V80.336C130.942 79.76 131.284 79.472 131.966 79.472H132.798V68.528H131.966C131.284 68.528 130.942 68.24 130.942 67.664V66.864C130.942 66.288 131.284 66 131.966 66H134.494C134.836 66 135.113 66.1173 135.326 66.352C135.561 66.5653 135.678 66.8427 135.678 67.184V69.584C136.126 68.4533 136.852 67.5253 137.854 66.8C138.878 66.0533 139.934 65.68 141.022 65.68C144.521 65.68 146.27 68.0693 146.27 72.848V79.472H147.102ZM158.436 82.32C156.921 82.32 155.588 81.9893 154.436 81.328C153.284 80.6453 152.398 79.6853 151.78 78.448C151.161 77.2107 150.852 75.7813 150.852 74.16C150.852 72.4747 151.172 70.992 151.812 69.712C152.452 68.432 153.348 67.44 154.5 66.736C155.652 66.032 156.996 65.68 158.532 65.68C160.046 65.68 161.38 66.0213 162.532 66.704C163.684 67.3653 164.569 68.3147 165.188 69.552C165.806 70.7893 166.116 72.2187 166.116 73.84C166.116 75.5253 165.796 77.008 165.156 78.288C164.516 79.568 163.62 80.56 162.468 81.264C161.316 81.968 159.972 82.32 158.436 82.32ZM158.436 79.824C159.95 79.824 161.124 79.3013 161.956 78.256C162.788 77.2107 163.204 75.7493 163.204 73.872C163.204 72.0373 162.798 70.6293 161.988 69.648C161.177 68.6667 160.025 68.176 158.532 68.176C157.038 68.176 155.865 68.7093 155.012 69.776C154.18 70.8213 153.764 72.272 153.764 74.128C153.764 75.9413 154.169 77.3493 154.98 78.352C155.79 79.3333 156.942 79.824 158.436 79.824ZM183.862 66C184.544 66 184.886 66.288 184.886 66.864V67.664C184.886 68.24 184.544 68.528 183.862 68.528H183.03L177.782 81.328C177.611 81.776 177.28 82 176.79 82H175.926C175.478 82 175.147 81.776 174.934 81.328L169.718 68.528H168.886C168.182 68.528 167.83 68.24 167.83 67.664V66.864C167.83 66.288 168.182 66 168.886 66H173.27C173.952 66 174.294 66.288 174.294 66.864V67.664C174.294 68.24 173.952 68.528 173.27 68.528H172.726L176.502 77.968L180.278 68.528H179.638C178.934 68.528 178.582 68.24 178.582 67.664V66.864C178.582 66.288 178.934 66 179.638 66H183.862ZM201.176 79.472C201.859 79.472 202.2 79.76 202.2 80.336V81.136C202.2 81.712 201.859 82 201.176 82H198.616C198.296 82 198.019 81.8933 197.784 81.68C197.571 81.4453 197.464 81.1573 197.464 80.816V78.8C197.059 79.8027 196.355 80.6453 195.352 81.328C194.371 81.9893 193.326 82.32 192.216 82.32C190.723 82.32 189.518 81.8933 188.6 81.04C187.683 80.1653 187.224 79.0133 187.224 77.584C187.224 76.0907 187.726 74.9387 188.728 74.128C189.752 73.3173 191.203 72.912 193.08 72.912C194.51 72.912 195.971 73.0827 197.464 73.424V71.984C197.464 70.6613 197.155 69.68 196.536 69.04C195.918 68.4 194.958 68.08 193.656 68.08C192.654 68.08 191.907 68.272 191.416 68.656C191.566 68.912 191.64 69.1893 191.64 69.488C191.64 69.9787 191.47 70.3947 191.128 70.736C190.787 71.0773 190.371 71.248 189.88 71.248C189.304 71.248 188.846 71.0667 188.504 70.704C188.163 70.3413 187.992 69.8507 187.992 69.232C187.992 68.1867 188.536 67.3333 189.624 66.672C190.712 66.0107 192.099 65.68 193.784 65.68C195.896 65.68 197.507 66.2453 198.616 67.376C199.747 68.5067 200.312 70.1067 200.312 72.176V79.472H201.176ZM192.888 79.984C193.699 79.984 194.446 79.7707 195.128 79.344C195.832 78.896 196.387 78.3093 196.792 77.584C197.219 76.8373 197.443 76.0267 197.464 75.152C196.504 75.0027 195.182 74.928 193.496 74.928C191.192 74.928 190.04 75.7813 190.04 77.488C190.04 78.2773 190.296 78.896 190.808 79.344C191.32 79.7707 192.014 79.984 192.888 79.984ZM215.834 76.752C216.175 76.752 216.474 76.8587 216.73 77.072C216.986 77.264 217.114 77.5093 217.114 77.808C217.114 78.1493 217.007 78.5333 216.794 78.96C216.303 79.9413 215.716 80.752 215.034 81.392C214.351 82.0107 213.412 82.32 212.218 82.32C210.468 82.32 209.135 81.7973 208.218 80.752C207.322 79.7067 206.874 78.1813 206.874 76.176V68.496H204.89C204.506 68.496 204.207 68.4 203.993 68.208C203.802 68.016 203.706 67.7493 203.706 67.408V67.056C203.706 66.7147 203.802 66.4587 203.993 66.288C204.207 66.096 204.506 66 204.89 66H206.874V63.056C206.874 62.672 206.97 62.384 207.161 62.192C207.375 61.9787 207.663 61.872 208.026 61.872H208.634C208.996 61.872 209.274 61.9787 209.466 62.192C209.658 62.384 209.754 62.672 209.754 63.056V66H213.914C214.298 66 214.586 66.096 214.778 66.288C214.991 66.4587 215.098 66.7147 215.098 67.056V67.408C215.098 67.7493 214.991 68.016 214.778 68.208C214.586 68.4 214.298 68.496 213.914 68.496H209.754V76.112C209.754 78.5867 210.607 79.824 212.314 79.824C212.975 79.824 213.466 79.6533 213.786 79.312C214.127 78.9493 214.479 78.352 214.842 77.52C214.991 77.2427 215.13 77.0507 215.258 76.944C215.407 76.816 215.599 76.752 215.834 76.752ZM222.414 62.896C221.816 62.896 221.315 62.6933 220.91 62.288C220.504 61.8827 220.302 61.3813 220.302 60.784C220.302 60.1867 220.504 59.696 220.91 59.312C221.315 58.9067 221.816 58.704 222.414 58.704C223.011 58.704 223.502 58.9067 223.886 59.312C224.291 59.696 224.494 60.1867 224.494 60.784C224.494 61.3813 224.291 61.8827 223.886 62.288C223.502 62.6933 223.011 62.896 222.414 62.896ZM220.654 82C219.971 82 219.63 81.712 219.63 81.136V80.336C219.63 79.76 219.971 79.472 220.654 79.472H221.486V68.528H220.654C219.971 68.528 219.63 68.24 219.63 67.664V66.864C219.63 66.288 219.971 66 220.654 66H223.182C223.523 66 223.8 66.1173 224.014 66.352C224.248 66.5653 224.366 66.8427 224.366 67.184V79.472H225.198C225.902 79.472 226.254 79.76 226.254 80.336V81.136C226.254 81.712 225.902 82 225.198 82H220.654ZM236.654 82.32C235.14 82.32 233.806 81.9893 232.654 81.328C231.502 80.6453 230.617 79.6853 229.998 78.448C229.38 77.2107 229.07 75.7813 229.07 74.16C229.07 72.4747 229.39 70.992 230.03 69.712C230.67 68.432 231.566 67.44 232.718 66.736C233.87 66.032 235.214 65.68 236.75 65.68C238.265 65.68 239.598 66.0213 240.75 66.704C241.902 67.3653 242.788 68.3147 243.406 69.552C244.025 70.7893 244.334 72.2187 244.334 73.84C244.334 75.5253 244.014 77.008 243.374 78.288C242.734 79.568 241.838 80.56 240.686 81.264C239.534 81.968 238.19 82.32 236.654 82.32ZM236.654 79.824C238.169 79.824 239.342 79.3013 240.174 78.256C241.006 77.2107 241.422 75.7493 241.422 73.872C241.422 72.0373 241.017 70.6293 240.206 69.648C239.396 68.6667 238.244 68.176 236.75 68.176C235.257 68.176 234.084 68.7093 233.23 69.776C232.398 70.8213 231.982 72.272 231.982 74.128C231.982 75.9413 232.388 77.3493 233.198 78.352C234.009 79.3333 235.161 79.824 236.654 79.824ZM263.696 79.472C264.379 79.472 264.72 79.76 264.72 80.336V81.136C264.72 81.712 264.379 82 263.696 82H259.248C258.544 82 258.192 81.712 258.192 81.136V80.336C258.192 79.76 258.544 79.472 259.248 79.472H259.984V73.296C259.984 71.3973 259.749 70.0747 259.28 69.328C258.832 68.56 258.043 68.176 256.912 68.176C256.123 68.176 255.365 68.4427 254.64 68.976C253.936 69.488 253.36 70.16 252.912 70.992C252.485 71.824 252.272 72.6987 252.272 73.616V79.472H253.008C253.712 79.472 254.064 79.76 254.064 80.336V81.136C254.064 81.712 253.712 82 253.008 82H248.56C247.877 82 247.536 81.712 247.536 81.136V80.336C247.536 79.76 247.877 79.472 248.56 79.472H249.392V68.528H248.56C247.877 68.528 247.536 68.24 247.536 67.664V66.864C247.536 66.288 247.877 66 248.56 66H251.088C251.429 66 251.707 66.1173 251.92 66.352C252.155 66.5653 252.272 66.8427 252.272 67.184V69.584C252.72 68.4533 253.445 67.5253 254.448 66.8C255.472 66.0533 256.528 65.68 257.616 65.68C261.115 65.68 262.864 68.0693 262.864 72.848V79.472H263.696ZM274.837 72.688C276.843 73.264 278.261 73.9253 279.093 74.672C279.925 75.3973 280.341 76.368 280.341 77.584C280.341 78.5013 280.075 79.3227 279.541 80.048C279.008 80.752 278.251 81.3067 277.269 81.712C276.309 82.1173 275.2 82.32 273.941 82.32C271.957 82.32 270.368 81.9467 269.173 81.2C268 80.432 267.413 79.44 267.413 78.224C267.413 77.6053 267.584 77.1147 267.925 76.752C268.267 76.3893 268.725 76.208 269.301 76.208C269.792 76.208 270.197 76.3787 270.517 76.72C270.859 77.0613 271.029 77.4773 271.029 77.968C271.029 78.416 270.891 78.7787 270.613 79.056C271.125 79.7813 272.224 80.144 273.909 80.144C275.061 80.144 275.936 79.9413 276.533 79.536C277.152 79.1307 277.461 78.5867 277.461 77.904C277.461 77.456 277.365 77.0933 277.173 76.816C276.981 76.5173 276.64 76.2613 276.149 76.048C275.68 75.8133 274.955 75.5573 273.973 75.28C272.373 74.832 271.125 74.384 270.229 73.936C269.355 73.4667 268.725 72.9547 268.341 72.4C267.957 71.824 267.765 71.1093 267.765 70.256C267.765 69.36 268.032 68.5707 268.565 67.888C269.099 67.184 269.835 66.64 270.773 66.256C271.733 65.872 272.821 65.68 274.037 65.68C275.936 65.68 277.419 66.0213 278.485 66.704C279.552 67.3653 280.085 68.2933 280.085 69.488C280.085 70.1067 279.915 70.608 279.573 70.992C279.232 71.3547 278.784 71.536 278.229 71.536C277.717 71.536 277.291 71.3653 276.949 71.024C276.629 70.6827 276.469 70.256 276.469 69.744C276.469 69.296 276.608 68.9333 276.885 68.656C276.416 68.1227 275.456 67.856 274.005 67.856C273.003 67.856 272.192 68.0693 271.573 68.496C270.955 68.9227 270.645 69.4773 270.645 70.16C270.645 70.5227 270.763 70.832 270.997 71.088C271.232 71.344 271.637 71.5893 272.213 71.824C272.811 72.0587 273.685 72.3467 274.837 72.688Z" fill="black"/>
</svg>
