<svg width="353" height="332" viewBox="0 0 353 332" fill="none" xmlns="http://www.w3.org/2000/svg">
<path d="M261.9 72.82L205.7 86.52C204.2 87.52 193.9 88.22 189.9 86.72C185.9 85.22 186.3 81.82 187.1 79.52C187.9 77.22 197 76.62 197 76.62C197 76.62 193 74.82 193.2 73.02C193.4 71.22 200.5 75.52 200.5 75.52L254.1 59.22L261.9 72.82Z" fill="white"/>
<path d="M197.1 88.2201C194.6 88.3201 192.1 88.0201 189.7 87.3201C187.3 86.4201 184.8 84.3201 186.5 79.2201C187.1 77.3201 191.7 76.4201 194.7 76.0201C193.5 75.2201 192.3 74.1201 192.5 72.8201C192.5 72.4201 192.8 72.1201 193.1 71.9201C194.5 71.3201 198.3 73.3201 200.6 74.6201L253.9 58.4201C254.2 58.3201 254.5 58.4201 254.7 58.7201L262.5 72.2201C262.6 72.4201 262.6 72.6201 262.5 72.8201C262.4 73.0201 262.2 73.2201 262 73.2201L205.9 86.9201C204.7 87.8201 200.9 88.2201 197.1 88.2201ZM193.8 73.3201C194 74.0201 195.7 75.2201 197.2 75.9201C197.5 76.0201 197.7 76.3201 197.6 76.7201C197.5 77.0201 197.3 77.3201 197 77.3201C192.8 77.6201 188.1 78.6201 187.7 79.7201C186.6 83.0201 187.4 85.0201 190.1 86.0201C194.1 87.5201 204.1 86.6201 205.3 85.9201C205.4 85.9201 205.4 85.8201 205.5 85.8201L260.8 72.3201L253.8 60.1201L200.7 76.2201C200.5 76.3201 200.3 76.2201 200.1 76.1201C197.5 74.6201 194.7 73.3201 193.8 73.3201Z" fill="#231F20"/>
<path d="M197 76.6201C197 76.6201 195.4 81.4201 199.7 82.6201L197 76.6201Z" fill="white"/>
<path d="M199.7 83.22C199.6 83.22 199.6 83.22 199.5 83.22C198.3 82.92 197.2 82.12 196.6 81.02C196 79.52 195.9 77.92 196.4 76.42C196.6 76.02 197 75.92 197.3 76.12C197.6 76.22 197.8 76.62 197.7 76.92C197.3 78.12 197.4 79.32 197.8 80.42C198.2 81.22 199 81.72 199.9 81.92C200.3 82.02 200.5 82.42 200.4 82.72C200.2 83.12 200 83.32 199.7 83.22Z" fill="#231F20"/>
<path d="M139.8 88.82C140.5 89.22 141.1 89.72 141.6 90.32C143 92.02 143.5 94.22 143 96.32C142.3 99.42 138.4 100.42 135.8 101.82C132.7 103.52 129.6 105.02 126.4 106.52C119.9 109.52 113.3 112.32 106.6 114.92C101.1 117.02 95.6002 119.12 90.0002 120.92C88.2002 121.52 84.2002 123.52 82.2002 123.02C79.9002 122.42 75.2002 110.12 86.1002 108.22C88.2002 107.82 90.4002 106.62 92.4002 105.82C97.5002 103.92 102.6 101.92 107.6 99.92C113.5 97.52 119.5 95.12 125.3 92.62C129.5 90.82 135.4 86.42 139.8 88.82Z" fill="white"/>
<path d="M83.0002 123.72C82.7002 123.72 82.3002 123.72 82.0002 123.62C80.3002 123.12 78.3002 118.92 78.5002 115.12C78.6002 112.72 79.8002 108.52 86.0002 107.42C87.4002 107.12 88.8002 106.62 90.2002 105.92C90.9002 105.62 91.6002 105.32 92.2002 105.02C97.4002 103.02 102.6 101.02 107.4 99.1201C114.5 96.3201 120 94.0201 125.1 91.8201C126 91.4201 127 90.9201 128 90.4201C131.8 88.5201 136.4 86.0201 140.2 88.2201C141 88.6201 141.6 89.2201 142.2 89.9201C143.7 91.7201 144.3 94.2201 143.7 96.5201C143.1 99.3201 140.3 100.52 137.9 101.62C137.3 101.92 136.7 102.22 136.1 102.52C133.3 104.02 130.2 105.62 126.6 107.22C120.6 110.02 114.1 112.82 106.8 115.62C100.5 118.02 95.2002 119.92 90.1002 121.62C89.7002 121.72 89.1002 122.02 88.5002 122.22C86.8002 123.02 84.9002 123.52 83.0002 123.72ZM136.8 88.8201C134.2 88.8201 131.2 90.3201 128.6 91.7201C127.5 92.3201 126.5 92.8201 125.6 93.2201C120.5 95.4201 115 97.6201 107.9 100.52C103 102.42 97.9002 104.42 92.7002 106.42C92.1002 106.62 91.4002 106.92 90.8002 107.22C89.4002 107.92 87.9002 108.52 86.3002 108.82C81.3002 109.72 80.1002 112.72 80.0002 115.22C79.8002 118.82 81.8002 122.02 82.5002 122.22C83.8002 122.62 86.4002 121.52 88.2002 120.82C88.9002 120.52 89.4002 120.32 89.9002 120.22C94.9002 118.62 100.2 116.72 106.5 114.22C113.8 111.42 120.2 108.72 126.2 105.92C129.7 104.32 132.8 102.72 135.6 101.22C136.2 100.92 136.8 100.62 137.5 100.32C139.7 99.3201 142 98.3201 142.5 96.2201C142.9 94.3201 142.5 92.4201 141.3 90.8201C140.9 90.2201 140.3 89.8201 139.7 89.4201C138.7 88.9201 137.8 88.7201 136.8 88.8201Z" fill="#231F20"/>
<path d="M216.5 87.2201C215.7 88.4201 214.6 89.3201 213.2 89.7201C211.3 90.6201 209.3 91.4201 207.3 92.2201C206.5 92.6201 205.9 93.3201 205.7 94.2201C205.2 96.3201 204.9 98.4201 204.4 100.52C203.9 102.42 204.5 104.42 206 105.62C207.5 107.02 208.9 108.42 210.3 109.82C211.7 111.22 211.7 112.12 210.8 113.72C209.3 116.32 207.7 118.82 206 121.32C204.5 123.52 203.6 123.72 201 122.82L200.8 122.72C198.9 121.92 196.9 121.22 195 120.42C193.8 119.82 192.4 119.92 191.3 120.72C189.4 121.92 187.6 123.22 185.7 124.42C184.8 125.02 184.3 125.92 184.2 127.02C184.1 127.62 184.1 128.32 184.1 128.92C184.1 131.02 184.1 133.02 184.1 135.12C184.1 136.22 183.4 137.22 182.4 137.52C182 137.72 181.6 137.92 181.2 138.02C178 138.72 174.9 139.32 171.7 139.92C170.8 140.12 169.9 139.72 169.5 138.92C169 138.22 168.5 137.42 168.1 136.52C167.4 134.92 166.8 133.22 166.1 131.62C165.6 130.22 164.4 129.32 163 129.02L158.6 128.02C154.8 127.22 154.2 127.42 151.5 130.12C150.3 131.42 149 132.72 147.7 133.92C146.7 135.02 145 135.22 143.8 134.32C141.2 132.62 138.5 130.92 136 129.22C134.2 128.02 133.9 127.02 134.7 124.92C135.5 122.82 136.2 121.02 137.1 119.12C137.8 117.62 137.7 115.82 136.7 114.52C135.7 113.02 134.6 111.62 133.6 110.02C132.8 108.42 131 107.42 129.2 107.62H128.7H122.4C121.3 107.62 120.3 107.02 120 105.92C119.8 105.52 119.6 105.02 119.5 104.62C118.9 101.62 118.3 98.6201 117.7 95.6201C117.4 94.3201 118.1 92.9201 119.3 92.4201C120.1 92.0201 121 91.6201 121.9 91.2201C123.3 90.6201 124.7 90.1201 126.1 89.5201C127.3 89.0201 128.2 88.0201 128.5 86.7201C129 84.4201 129.4 82.0201 129.8 79.6201C130 78.7201 129.7 77.8201 129.1 77.1201C128.4 76.3201 127.7 75.5201 126.9 74.7201C125.8 73.6201 124.7 72.6201 123.7 71.5201C122.2 69.9201 122.1 68.7201 123.3 66.8201C124.9 64.3201 126.6 61.7201 128.3 59.3201C129.1 57.9201 130.9 57.3201 132.4 58.1201C134.6 59.0201 136.7 59.9201 138.9 60.7201C140.2 61.3201 141.7 61.1201 142.8 60.2201C144.7 58.8201 146.6 57.6201 148.5 56.2201C149.4 55.6201 150 54.6201 150 53.5201C150.1 52.7201 150.1 51.8201 150.1 51.0201C150.1 49.2201 150 47.4201 150.1 45.6201C150.1 44.3201 151 43.1201 152.3 42.8201C155.6 42.1201 158.9 41.5201 162.3 40.9201C163.6 40.6201 164.8 41.3201 165.3 42.5201C165.9 43.6201 166.4 44.8201 166.9 45.9201C167.5 47.2201 168.1 48.6201 168.7 49.9201C169 50.7201 169.7 51.3201 170.6 51.5201C172.9 52.0201 175.1 52.4201 177.4 52.9201C179 53.3201 180.7 52.8201 181.8 51.5201C183.3 49.9201 185 48.3201 186.6 46.7201C187.4 45.8201 188.7 45.6201 189.7 46.1201C193.2 47.7201 196.4 49.8201 199.2 52.4201C199.6 52.9201 199.8 53.5201 199.8 54.1201C199.7 54.9201 199.5 55.8201 199.2 56.5201C198.4 58.5201 197.6 60.5201 196.8 62.5201C196.4 63.4201 196.4 64.5201 196.9 65.3201C198.4 67.6201 200 69.9201 201.7 72.0201C202.2 72.5201 202.8 72.8201 203.5 72.9201C204.4 73.0201 205.4 73.0201 206.3 73.0201C208.1 73.0201 209.8 72.9201 211.6 73.0201C213.1 73.1201 214.3 74.1201 214.6 75.6201C214.9 76.7201 215.1 77.9201 215.4 79.1201C215.8 81.3201 216.2 83.6201 216.6 85.8201L216.5 86.6201V87.2201ZM164.2 110.92C175.3 112.62 185.6 105.02 187.4 94.0201C189.3 81.9201 180.1 72.1201 170.7 70.6201C159.6 68.7201 149.1 76.3201 147.2 87.4201C147.2 87.5201 147.2 87.5201 147.2 87.6201C145.2 96.4201 151.2 108.82 164.2 110.92Z" fill="white"/>
<path d="M171.6 140.82C170.6 140.82 169.8 140.32 169.2 139.52C168.6 138.72 168.2 137.92 167.8 137.02C167.3 135.92 166.9 134.82 166.4 133.72C166.2 133.22 166 132.62 165.8 132.12C165.4 131.02 164.4 130.12 163.2 129.92L161.3 129.52L158.8 129.02C155.3 128.22 154.9 128.42 152.4 130.92L151.7 131.62C150.7 132.62 149.6 133.72 148.5 134.72C147.3 136.02 145.2 136.22 143.8 135.22C140.9 133.42 138.3 131.72 135.9 130.12C133.9 128.72 133.5 127.42 134.3 125.02C135.1 123.02 135.9 121.02 136.7 119.22C137.3 117.92 137.2 116.42 136.3 115.32L135.4 114.02C134.7 113.02 133.9 111.92 133.2 110.82C132.5 109.42 131 108.62 129.4 108.72H128.9H126.8H122.6C121.2 108.72 120 107.92 119.5 106.62C119.3 106.12 119.1 105.62 118.9 105.12C118.3 102.12 117.7 99.1201 117.1 96.1201C116.7 94.5201 117.5 92.8201 119 92.1201C119.9 91.6201 120.7 91.2201 121.6 90.9201C122.4 90.6201 123.2 90.2201 124.1 89.9201L125.9 89.2201C126.9 88.8201 127.7 87.9201 127.9 86.9201C128.3 85.1201 128.6 83.2201 129 81.4201L129.3 79.9201C129.4 79.2201 129.2 78.5201 128.8 78.0201C128.2 77.2201 127.4 76.5201 126.7 75.6201C126.3 75.2201 125.8 74.7201 125.4 74.3201C124.8 73.7201 124.1 73.1201 123.5 72.4201C121.8 70.5201 121.6 69.0201 123 66.9201C124.6 64.4201 126.3 61.8201 128 59.3201C129 57.6201 131.1 57.0201 132.9 57.9201C134 58.3201 135.1 58.8201 136.2 59.2201L139.4 60.5201C140.4 61.0201 141.7 60.8201 142.6 60.1201C144 59.0201 145.5 58.0201 147 57.0201L148.4 56.1201C149.1 55.6201 149.6 54.8201 149.6 53.9201C149.7 53.1201 149.7 52.2201 149.7 51.4201C149.7 50.8201 149.7 50.2201 149.7 49.6201C149.7 48.4201 149.6 47.2201 149.7 46.0201C149.7 44.4201 150.8 42.9201 152.4 42.6201C155.3 42.0201 158.4 41.4201 162.4 40.7201C164 40.4201 165.5 41.2201 166.1 42.7201C166.6 43.7201 167 44.6201 167.5 45.6201L167.8 46.2201C168 46.7201 168.3 47.3201 168.5 47.8201C168.9 48.6201 169.2 49.4201 169.6 50.2201C169.8 50.8201 170.3 51.2201 171 51.4201L173.3 51.9201C174.8 52.2201 176.3 52.5201 177.7 52.8201C179.1 53.2201 180.5 52.7201 181.4 51.6201C182.4 50.5201 183.5 49.5201 184.5 48.5201L186.2 46.8201C187.2 45.7201 188.8 45.4201 190.1 46.1201C193.6 47.7201 196.9 49.9201 199.8 52.5201C200.4 53.1201 200.7 53.9201 200.6 54.8201C200.5 55.7201 200.3 56.6201 199.9 57.4201C199.5 58.5201 199 59.6201 198.6 60.8201C198.2 61.7201 197.9 62.6201 197.6 63.4201C197.3 64.1201 197.3 64.9201 197.7 65.6201C199.1 67.6201 200.7 70.0201 202.5 72.3201C202.9 72.7201 203.4 72.9201 203.9 73.0201C204.6 73.1201 205.2 73.1201 205.9 73.1201H208.4C209.5 73.1201 210.8 73.1201 211.9 73.1201C213.7 73.2201 215.2 74.5201 215.6 76.2201C215.9 77.3201 216.1 78.5201 216.4 79.7201C216.7 81.3201 217 82.9201 217.2 84.5201L217.5 86.5201C217.5 86.6201 217.5 86.7201 217.5 86.7201L217.4 87.5201C217.4 87.6201 217.4 87.6201 217.3 87.7201C216.5 89.0201 215.2 90.0201 213.7 90.5201C212.5 91.0201 211.3 91.5201 210.2 92.0201L207.8 93.0201C207.2 93.3201 206.7 93.8201 206.6 94.5201C206.4 95.3201 206.3 96.1201 206.1 96.9201C205.8 98.2201 205.6 99.5201 205.3 100.92C204.8 102.52 205.4 104.32 206.7 105.32C208.1 106.52 209.4 107.92 211.1 109.62C212.8 111.32 212.8 112.52 211.7 114.42C209.8 117.52 208.3 119.92 206.9 122.02C205.2 124.42 204 124.82 201.1 123.82L200.9 123.72L199.1 123.02C197.7 122.52 196.4 121.92 195 121.32C194 120.82 192.9 120.92 192 121.52L191.2 122.02C189.6 123.12 188 124.22 186.4 125.22C185.7 125.72 185.3 126.42 185.3 127.32C185.2 128.02 185.2 128.62 185.2 129.12C185.2 130.22 185.2 131.42 185.2 132.52V135.32C185.2 136.72 184.4 137.92 183.1 138.42L182.9 138.52C182.5 138.72 182.1 138.82 181.7 138.92L174.9 140.32L172.2 140.82C172 140.82 171.8 140.92 171.6 140.92V140.82ZM156.1 127.22C157.1 127.22 158.1 127.42 159.1 127.62C159.9 127.82 160.7 128.02 161.6 128.12L163.5 128.52C165.2 128.82 166.5 129.92 167.2 131.52L167.9 133.12C168.3 134.22 168.8 135.32 169.2 136.32C169.6 137.12 170 137.92 170.5 138.62C170.8 139.22 171.4 139.42 172 139.32L174.7 138.82C177 138.32 179.3 137.92 181.5 137.42C181.8 137.32 182.1 137.22 182.4 137.02L182.6 136.92C183.4 136.62 183.9 135.92 183.9 135.12V132.32C183.9 131.22 183.9 130.02 183.9 128.92C183.9 128.22 183.9 127.62 184 126.92C184.1 125.62 184.7 124.52 185.8 123.82C187.4 122.72 189 121.72 190.6 120.62L191.4 120.12C192.7 119.22 194.3 119.12 195.7 119.72C197 120.32 198.4 120.82 199.7 121.32L201.4 122.02V122.72L201.6 122.02C203.9 122.82 204.4 122.62 205.7 120.72C207.1 118.62 208.6 116.32 210.5 113.22C211.3 111.92 211.2 111.32 210.1 110.12C208.5 108.42 207.1 107.12 205.8 105.92C204.1 104.52 203.4 102.32 203.9 100.12C204.2 98.8201 204.5 97.5201 204.7 96.2201C204.9 95.4201 205 94.6201 205.2 93.8201C205.4 92.7201 206.1 91.7201 207.2 91.3201L209.6 90.3201C210.8 89.8201 211.9 89.3201 213.1 88.8201C214.2 88.5201 215.3 87.8201 216 86.8201L216.1 86.2201L215.8 84.3201C215.5 82.7201 215.3 81.1201 215 79.5201C214.8 78.3201 214.5 77.2201 214.2 76.1201C214 74.9201 213 74.0201 211.8 74.0201C210.7 73.9201 209.5 74.0201 208.4 74.0201H205.9C205.1 74.0201 204.4 74.0201 203.6 73.9201C202.7 73.8201 201.9 73.4201 201.4 72.7201C199.6 70.3201 197.9 68.0201 196.6 65.9201C195.9 64.9201 195.9 63.6201 196.4 62.4201C196.7 61.5201 197.1 60.6201 197.4 59.7201C197.8 58.6201 198.3 57.5201 198.7 56.3201C199 55.6201 199.2 54.8201 199.3 54.1201C199.3 53.7201 199.2 53.3201 199 53.0201C196.2 50.5201 193.1 48.4201 189.6 46.8201C188.8 46.4201 187.8 46.6201 187.3 47.2201L185.6 48.9201C184.6 49.9201 183.5 50.9201 182.5 52.0201C181.3 53.5201 179.3 54.1201 177.4 53.6201C176 53.3201 174.5 53.0201 173 52.7201L170.6 52.2201C169.5 52.0201 168.7 51.2201 168.2 50.2201C167.8 49.4201 167.5 48.6201 167.1 47.8201L166.4 46.2201L166.1 45.6201C165.7 44.6201 165.2 43.7201 164.8 42.8201C164.5 41.9201 163.5 41.4201 162.6 41.6201C158.6 42.3201 155.5 42.9201 152.7 43.5201C151.7 43.7201 151 44.6201 151.1 45.6201C151 46.7201 151.1 47.9201 151.1 49.1201C151.1 49.7201 151.1 50.3201 151.1 50.9201C151.1 51.7201 151.1 52.6201 151 53.5201C150.9 54.8201 150.3 56.0201 149.2 56.7201L147.8 57.6201C146.4 58.6201 144.9 59.6201 143.5 60.6201C142.2 61.6201 140.5 61.8201 139 61.2201L135.8 59.9201C134.7 59.5201 133.6 59.0201 132.5 58.6201C131.4 58.0201 129.9 58.4201 129.3 59.5201C127.6 62.0201 125.9 64.5201 124.3 67.0201C123.3 68.6201 123.4 69.4201 124.7 70.8201C125.3 71.4201 125.9 72.0201 126.5 72.6201L127.8 73.9201C128.6 74.7201 129.3 75.5201 130 76.3201C130.7 77.1201 131 78.3201 130.8 79.4201L130.5 80.9201C130.2 82.8201 129.8 84.6201 129.4 86.5201C129.1 88.0201 128 89.3201 126.6 89.8201L124.8 90.5201L122.4 91.5201C121.5 91.8201 120.7 92.2201 119.9 92.7201C118.9 93.1201 118.4 94.1201 118.6 95.2201C119.2 98.2201 119.8 101.22 120.4 104.22C120.5 104.62 120.6 104.92 120.8 105.32C121 106.12 121.8 106.72 122.7 106.72H126.9H129H129.4C131.5 106.52 133.5 107.62 134.5 109.42C135.1 110.52 135.9 111.52 136.6 112.52C136.9 112.92 137.2 113.42 137.6 113.82C138.7 115.32 138.9 117.42 138.1 119.12C137.3 120.92 136.5 122.92 135.8 124.82C135.1 126.62 135.3 127.22 136.8 128.32C139.1 129.92 141.7 131.62 144.6 133.42C145.5 134.12 146.8 134.02 147.6 133.12C148.7 132.12 149.7 131.12 150.7 130.02L151.4 129.32C153.3 128.02 154.3 127.22 156.1 127.22ZM167.3 111.82C166.2 111.82 165.1 111.72 164.1 111.62C158.3 110.72 153.1 107.52 149.8 102.72C146.7 98.3201 145.5 92.8201 146.5 87.5201C148.2 76.1201 158.8 68.2201 170.3 69.9201C176 70.7201 181 73.9201 184.3 78.5201C187.6 83.0201 189 88.6201 188.1 94.1201C186.4 104.22 177.6 111.82 167.3 111.82ZM164.3 110.22C175 111.82 185 104.52 186.7 93.8201C187.5 88.6201 186.2 83.4201 183.1 79.2201C176.9 70.4201 164.7 68.3201 155.9 74.5201C151.5 77.6201 148.6 82.3201 147.8 87.6201C146.9 92.6201 148 97.7201 150.9 101.82C154 106.32 158.9 109.42 164.3 110.22Z" fill="#231F20"/>
<path d="M319.5 229.02C319.8 230.02 323.2 235.72 322.5 236.82C321.8 237.92 311 244.82 314.2 245.82C317.4 246.82 335.7 244.32 335.7 244.32L324.6 215.22L319.5 229.02Z" fill="#231F20"/>
<path d="M317.1 246.72C316.1 246.72 315 246.72 314 246.42C313.5 246.32 313.1 245.82 312.9 245.32C312.7 243.82 314.8 241.92 319.5 238.32C320.3 237.72 321.1 237.12 321.9 236.42C322.1 235.72 320.3 232.32 319.7 231.02C319.4 230.42 319.1 229.92 318.9 229.32C318.9 229.12 318.9 229.02 318.9 228.82L324 215.02C324.1 214.72 324.4 214.52 324.6 214.52C324.9 214.52 325.1 214.72 325.2 215.02L336.3 244.12C336.4 244.32 336.4 244.52 336.3 244.72C336.2 244.92 336 245.02 335.8 245.02C334.2 245.22 323 246.72 317.1 246.72ZM314.3 245.02H314.4C316.8 245.82 329.1 244.42 334.7 243.62L324.6 217.12L320.2 228.92C320.3 229.22 320.6 229.72 320.9 230.22C322.9 234.12 323.7 236.12 323.1 237.02C322.3 237.92 321.4 238.62 320.4 239.32C318.7 240.72 314.4 244.02 314.3 245.02Z" fill="#231F20"/>
<path d="M267.9 223.42C267.9 223.42 274.3 241.72 273.2 242.12C272.1 242.52 245.3 248.72 246.4 247.12C247.5 245.52 260.1 238.92 260.2 239.72C260.3 240.52 258.5 230.82 258.5 230.82L267.9 223.42Z" fill="#231F20"/>
<path d="M247.2 247.92C246.5 247.92 246 247.82 245.8 247.62C245.6 247.32 245.6 246.92 245.8 246.62C246.7 245.42 256.2 239.92 259.4 239.02C259.2 238.22 259 237.12 258.7 235.32L257.8 230.82C257.8 230.52 257.8 230.32 258 230.12L267.4 222.72C267.6 222.62 267.8 222.52 268 222.62C268.2 222.72 268.4 222.82 268.5 223.02C275.1 241.92 274 242.32 273.4 242.62C273.2 242.82 252.8 247.92 247.2 247.92ZM259.9 240.32C255.8 242.02 251.8 244.12 248 246.62C253 246.12 269.9 242.32 272.6 241.52C272.5 239.72 270.1 231.92 267.6 224.52L259.4 231.02C259.7 232.72 260.9 238.82 261 239.42C261.1 239.82 260.8 240.12 260.4 240.22C260.2 240.42 260 240.42 259.9 240.32ZM259.6 239.82C259.5 239.92 259.6 240.12 259.7 240.22C259.7 240.02 259.6 239.92 259.6 239.82Z" fill="#231F20"/>
<path d="M257.8 115.62C257.8 115.62 239 154.42 238.8 166.72C238.6 179.02 254.6 230.72 254.6 230.72L271 228.02C271 228.02 258.8 176.32 260.6 170.92C262.4 165.52 276.5 130.72 276.5 130.72C276.5 130.72 282 160.52 286 171.52C289.9 182.52 314.8 229.52 314.8 229.52L331.9 226.22C331.9 226.22 309.2 173.52 308.3 164.42C307.4 155.32 303 106.82 303 106.82L257.8 115.62Z" fill="#231F20"/>
<path d="M254.6 231.52C254.3 231.52 254 231.32 253.9 231.02C253.2 228.92 237.8 179.02 238 166.82C238.2 154.62 256.3 117.02 257.1 115.42C257.2 115.22 257.4 115.12 257.6 115.02L303 106.32C303.2 106.32 303.4 106.32 303.5 106.42C303.7 106.52 303.8 106.72 303.8 106.92C303.8 106.92 308.3 155.52 309.1 164.62C309.9 173.52 332.4 225.62 332.6 226.12C332.8 226.42 332.6 226.92 332.3 227.02C332.2 227.02 332.2 227.12 332.1 227.12L315 230.42C314.7 230.52 314.4 230.32 314.2 230.02C313.2 228.12 289.2 182.82 285.3 171.92C282 162.82 277.6 140.62 276.2 133.32C273.1 141.02 262.7 166.72 261.2 171.22C259.7 175.52 268.2 213.62 271.6 227.92C271.7 228.32 271.5 228.72 271.1 228.72L254.7 231.42L254.6 231.52ZM258.3 116.32C256.5 120.02 239.7 155.42 239.5 166.82C239.3 178.22 253.4 224.32 255.1 230.02L270.1 227.52C268.2 219.62 258.1 176.02 259.9 170.82C261.7 165.62 275.3 132.02 275.8 130.62C275.9 130.22 276.4 130.12 276.7 130.22C276.9 130.32 277.1 130.52 277.1 130.72C277.2 131.02 282.7 160.62 286.6 171.42C290.3 181.62 312.6 224.02 315.2 228.92L331 225.92C328 219.02 308.5 173.32 307.7 164.72C306.9 156.32 303 114.02 302.5 107.82L258.3 116.32Z" fill="#231F20"/>
<path d="M255.6 50.1201L233.7 61.5201L237.8 83.9201L258.4 79.0201L255.6 50.1201Z" fill="#179EFF"/>
<path d="M255.6 50.1202C256.9 48.3202 283.9 42.1202 292.1 48.9202C300.3 55.7202 305.7 103.52 307 118.22L253.9 122.02C253.8 122.02 248.4 59.9202 255.6 50.1202Z" fill="#179EFF"/>
<path d="M253.4 117.62C253 117.62 252.7 117.32 252.7 117.02C252.6 115.22 249.4 73.7203 251.7 63.4203C251.8 63.0203 252.2 62.8203 252.5 62.9203C252.8 63.0203 253.1 63.4202 253 63.7202C250.7 73.7202 254 116.42 254 116.82C254.1 117.22 253.8 117.52 253.4 117.62Z" fill="#231F20"/>
<path d="M271.1 39.9202C274.1 39.3202 276.8 37.9202 279 35.8202C280 34.9202 280.8 33.7202 281.1 32.4202C281.4 31.0202 280.8 29.6202 279.6 29.0202C280.9 28.2202 281.8 26.9202 281.9 25.4202C282 23.9202 281.8 22.4202 281.1 21.1202C280.3 19.3202 278.9 17.6202 277 17.4202C277.8 16.0202 278.6 14.3202 278.1 12.7202C277.8 11.9202 277.2 11.3202 276.6 10.8202C275.4 9.72023 274.1 8.72023 272.7 7.92023C272 7.42023 271 7.02023 270.3 7.52023C269.7 4.32023 267.3 1.82023 264.2 1.02023C262.7 0.620229 261.1 0.620233 259.6 1.22023C258.2 2.12023 256.9 3.02023 255.7 4.12023C253.5 3.32023 249.9 3.62023 248.1 5.22023C246.5 6.62023 245.8 8.82023 246.3 10.8202C244.6 11.6202 243.1 12.7202 241.9 14.1202C240.7 15.5202 240.2 17.4202 240.6 19.3202C241 21.2202 242.7 22.5202 244.6 22.5202C243 24.0202 242.7 26.5202 244 28.3202C245.4 30.0202 247.6 30.8202 249.8 30.2202C250.1 30.1202 250.4 30.1202 250.7 30.1202C251 30.2202 251.4 30.5202 251.6 30.7202C252.5 31.5202 253.7 31.3202 254.6 31.9202C255.9 32.8202 257.1 33.8202 258.3 34.9202C259.5 35.9202 260.7 36.7202 262 37.6202C263.4 38.5202 264.7 39.9202 266.3 40.5202C267.7 41.0202 268.6 40.5202 270 40.2202L271.1 39.9202Z" fill="white"/>
<path d="M267.5 41.4201C267 41.4201 266.5 41.3201 266.1 41.1201C265 40.6201 263.9 40.0201 263 39.2201C262.5 38.9201 262.1 38.5201 261.6 38.2201C260.3 37.4201 259 36.5201 257.8 35.5201C257.4 35.2201 257 34.8201 256.6 34.5201C255.9 33.8201 255.1 33.1201 254.2 32.6201C253.8 32.4201 253.5 32.3201 253.1 32.2201C252.4 32.1201 251.7 31.8201 251.1 31.3201L250.9 31.1201C250.8 31.0201 250.7 30.9201 250.5 30.8201C250.3 30.8201 250.2 30.8201 250 30.9201C247.6 31.6201 244.9 30.8201 243.4 28.8201C242.2 27.1201 242.2 24.9201 243.2 23.1201C241.6 22.5201 240.3 21.2201 239.9 19.5201C239.5 17.5201 240 15.3201 241.4 13.7201C242.5 12.3201 243.9 11.2201 245.5 10.4201C245.2 8.22014 246 6.12014 247.6 4.62014C249.6 2.92014 253.1 2.62014 255.5 3.32014C256.7 2.32014 258 1.32014 259.3 0.520137C260.9 -0.0798628 262.7 -0.17986 264.3 0.32014C267.4 1.12014 269.8 3.52014 270.7 6.62014C271.5 6.62014 272.3 6.82014 273 7.32014C274.4 8.22014 275.8 9.22014 277 10.3201C277.7 10.9201 278.3 11.7201 278.7 12.5201C279.1 14.0201 278.9 15.6201 278 16.9201C279.7 17.6201 281 19.1201 281.7 20.8201C282.4 22.3201 282.7 23.9201 282.5 25.5201C282.3 26.9201 281.7 28.1201 280.7 29.0201C281.6 30.0201 281.9 31.3201 281.7 32.5201C281.3 34.0201 280.5 35.3201 279.4 36.3201C277.1 38.4201 274.2 39.9201 271.2 40.5201L270.1 40.8201C269.8 40.9201 269.5 41.0201 269.2 41.0201C268.7 41.4201 268.1 41.5201 267.5 41.4201ZM250.4 29.4201C250.5 29.4201 250.6 29.4201 250.7 29.4201C251.1 29.5201 251.5 29.7201 251.8 30.1201L251.9 30.2201C252.3 30.5201 252.8 30.7201 253.3 30.8201C253.8 30.9201 254.3 31.1201 254.8 31.3201C255.8 31.9201 256.7 32.6201 257.5 33.4201C257.9 33.7201 258.3 34.1201 258.6 34.4201C259.8 35.3201 261 36.2201 262.3 37.0201C262.8 37.3201 263.3 37.7201 263.8 38.1201C264.6 38.8201 265.5 39.4201 266.5 39.8201C267.2 40.1201 268.1 40.0201 268.8 39.7201C269.1 39.6201 269.4 39.5201 269.8 39.4201L270.8 39.2201C273.6 38.6201 276.3 37.3201 278.4 35.3201C279.3 34.5201 280 33.5201 280.3 32.3201C280.5 31.3201 280.1 30.2201 279.2 29.6201C278.9 29.4201 278.7 29.0201 278.9 28.7201C279 28.6201 279.1 28.4201 279.2 28.4201C280.3 27.8201 281.1 26.6201 281.2 25.3201C281.3 23.9201 281.1 22.5201 280.5 21.3201C280.1 20.4201 278.9 18.2201 277 18.0201C276.8 18.0201 276.6 17.8201 276.5 17.6201C276.4 17.4201 276.4 17.1201 276.5 16.9201C277.2 15.6201 278 14.1201 277.5 12.8201C277.2 12.2201 276.8 11.6201 276.2 11.1201C275 10.0201 273.8 9.12014 272.4 8.32014C271.9 8.02014 271.1 7.62014 270.7 7.92014C270.5 8.02014 270.2 8.02014 270 7.92014C269.8 7.82014 269.6 7.62014 269.6 7.42014C269 4.52014 266.8 2.22014 264 1.52014C262.6 1.12014 261.2 1.22014 259.9 1.72014C258.7 2.52014 257.5 3.42014 256.3 4.32014C256.1 4.62014 255.8 4.72014 255.4 4.62014C253.5 3.92014 250.2 4.12014 248.5 5.52014C247.1 6.82014 246.5 8.72014 247 10.5201C247.1 10.8201 246.9 11.1201 246.6 11.3201C245 12.0201 243.6 13.1201 242.5 14.4201C241.4 15.7201 241 17.4201 241.3 19.0201C241.7 20.5201 243 21.6201 244.5 21.7201C244.8 21.7201 245.1 21.9201 245.2 22.1201C245.3 22.4201 245.2 22.7201 245 22.9201C243.6 24.2201 243.4 26.2201 244.5 27.8201C245.7 29.3201 247.7 29.9201 249.5 29.4201C249.8 29.5201 250.1 29.4201 250.4 29.4201Z" fill="#231F20"/>
<path d="M250.6 31.3201C250.6 31.3201 248 38.4201 249.1 39.5201C250.2 40.6201 252.8 39.1201 252.8 39.1201" fill="white"/>
<path d="M250.3 40.6202C249.7 40.6202 249.1 40.4201 248.7 40.0201C247.4 38.8201 249 33.9202 250 31.1202C250.2 30.7202 250.6 30.6201 250.9 30.7201C251.2 30.8201 251.4 31.2202 251.3 31.6202C250 35.0202 249.3 38.5202 249.7 39.1202C250.3 39.6202 251.9 38.9202 252.6 38.6202C252.9 38.4202 253.4 38.5201 253.6 38.9201C253.8 39.2201 253.7 39.7201 253.3 39.9201C252.3 40.2201 251.3 40.5202 250.3 40.6202Z" fill="#231F20"/>
<path d="M248.8 17.52C248.5 17.82 248.2 18.22 248.2 18.72C247.9 20.32 247.9 21.92 248.1 23.52C248.5 26.72 249.2 29.82 250 32.82C251 36.92 252.1 41.02 253.2 45.02C254 47.62 260.7 46.02 261.7 45.02L263.1 55.52C263.1 55.52 266.5 55.62 271.4 51.92C276.3 48.22 276 46.82 276 46.82L272.8 35.12C272.8 35.12 268.4 36.22 264.5 31.52C263.9 30.72 263.4 29.52 262.7 28.92C261.8 28.22 260.7 28.22 259.9 27.22C259.2 26.22 259 25.02 259.3 23.82C259.4 23.62 259.5 23.22 259.3 23.02C259.2 22.92 259 22.82 258.9 22.82C257.1 22.32 256.1 20.62 256.5 18.82C254.8 19.22 253.3 17.82 252.1 16.52C252.5 16.92 249.5 17.32 249.4 17.32C249.2 17.32 249 17.42 248.8 17.52Z" fill="white"/>
<path d="M263.1 56.22C262.7 56.22 262.4 55.9201 262.4 55.6201L261.2 46.22C259.1 47.12 256.9 47.32 254.7 47.0201C253.7 46.92 252.9 46.2201 252.6 45.3201C251.4 41.3201 250.3 37.2201 249.3 33.1201L249.1 32.2201C248.3 29.4201 247.8 26.5201 247.4 23.6201C247.1 21.9201 247.1 20.2201 247.5 18.5201C247.6 17.9201 247.9 17.4201 248.4 16.9201C248.6 16.7201 248.9 16.6201 249.2 16.5201H249.4C250.1 16.4201 250.7 16.3201 251.4 16.1201C251.4 16.0201 251.5 16.0201 251.6 15.9201C251.9 15.6201 252.3 15.7201 252.6 15.9201C253.6 17.1201 255 18.3201 256.3 18.0201C256.5 17.9201 256.8 18.0201 257 18.2201C257.2 18.4201 257.2 18.6201 257.1 18.9201C256.7 20.3201 257.6 21.7201 258.9 22.0201C259.2 22.0201 259.5 22.2201 259.7 22.4201C260 22.8201 260.1 23.4201 259.9 23.8201C259.6 24.8201 259.8 25.8201 260.4 26.6201C260.7 27.0201 261.2 27.3201 261.7 27.4201C262.2 27.6201 262.7 27.8201 263.1 28.1201C263.6 28.6201 264.1 29.2201 264.4 29.8201C264.6 30.1201 264.8 30.5201 265 30.8201C268.5 35.0201 272.4 34.2201 272.6 34.2201C273 34.1201 273.3 34.3201 273.4 34.7201L276.6 46.4201C276.7 47.0201 276.4 48.62 271.8 52.22C267.2 55.82 263.7 56.32 263.1 56.22ZM261.7 44.4201C261.8 44.4201 261.8 44.4201 261.9 44.4201C262.2 44.5201 262.3 44.7201 262.4 45.0201L263.7 54.8201C266.4 54.3201 268.9 53.1201 270.9 51.3201C274.6 48.4201 275.1 47.1201 275.2 46.8201L272.2 35.8201C270.7 35.9201 267.1 35.8201 263.9 31.9201C263.6 31.5201 263.4 31.1201 263.1 30.7201C262.8 30.2201 262.5 29.8201 262.1 29.4201C261.8 29.2201 261.5 29.0201 261.1 28.9201C260.4 28.7201 259.7 28.2201 259.2 27.6201C258.3 26.5201 258.1 25.0201 258.5 23.6201V23.5201C257.5 23.3201 256.6 22.6201 256.1 21.7201C255.7 21.1201 255.5 20.3201 255.5 19.6201C254.1 19.3201 252.8 18.6201 251.9 17.5201C251.1 17.7201 250.3 17.9201 249.5 18.0201C249.4 18.0201 249.2 18.1201 249.1 18.2201C249 18.3201 248.9 18.5201 248.7 19.0201C248.4 20.5201 248.4 22.0201 248.7 23.6201C249.1 26.4201 249.6 29.22 250.4 32.0201L250.6 32.9201C251.6 37.0201 252.7 41.1201 253.8 45.1201C253.9 45.5201 254.3 45.7201 254.9 45.9201C257 46.4201 260.6 45.4201 261.1 44.8201C261.3 44.4201 261.5 44.4201 261.7 44.4201Z" fill="#231F20"/>
<path d="M261.2 30.02C261.1 28.92 261.2 27.92 261.7 26.92C261.9 26.12 262.3 25.42 262.7 24.72C263.2 24.02 263.9 23.62 264.7 23.52C265.4 23.52 266.1 23.82 266.6 24.42C267.1 25.02 267.4 25.62 267.6 26.32C268.5 29.42 267.6 32.72 265.4 35.02L265.6 34.72" fill="white"/>
<path d="M265.4 35.7202C265.2 35.7202 265.1 35.6202 265 35.6202C264.7 35.4202 264.6 35.0202 264.8 34.7202L264.9 34.5202C266.9 32.4202 267.7 29.3202 266.9 26.5202C266.7 25.9202 266.5 25.3202 266.1 24.9202C265.8 24.5202 265.3 24.3202 264.7 24.2202C264.1 24.3202 263.5 24.6202 263.2 25.1202C262.8 25.7202 262.5 26.4202 262.2 27.1202C261.8 27.9202 261.6 28.9202 261.7 29.8202C261.8 30.2202 261.5 30.5202 261.2 30.6202C260.8 30.7202 260.5 30.5202 260.4 30.1202C260.2 28.9202 260.4 27.7202 260.9 26.6202C261.2 25.7202 261.5 24.9202 262 24.2202C262.6 23.3202 263.5 22.8202 264.6 22.7202C265.5 22.7202 266.4 23.1202 267 23.8202C267.5 24.4202 267.9 25.2202 268.1 26.0202C269 29.3202 268.1 32.9202 265.7 35.4202C265.8 35.6202 265.6 35.7202 265.4 35.7202Z" fill="#231F20"/>
<path d="M261.7 45.1202C261.7 45.1202 264.9 43.2202 266 40.4202C266 40.4202 267.2 46.7202 262.3 49.7202L261.7 45.1202Z" fill="#231F20"/>
<path d="M262.3 50.4201C262.2 50.4201 262.1 50.4201 262 50.3201C261.8 50.2201 261.6 50.0201 261.6 49.8201L261 45.1201C261 44.8201 261.1 44.5201 261.3 44.4201C261.3 44.4201 264.3 42.6201 265.3 40.1201C265.4 39.8201 265.7 39.6201 266 39.7201C266.3 39.7201 266.6 40.0201 266.6 40.3201C266.6 40.6201 267.9 47.1201 262.6 50.4201C262.6 50.4201 262.5 50.4201 262.3 50.4201ZM262.5 45.4201L262.9 48.5201C264.5 47.0201 265.4 44.9201 265.5 42.8201C264.6 43.8201 263.6 44.7201 262.5 45.4201Z" fill="#231F20"/>
<path d="M253.201 28.6754C253.521 28.5879 253.603 27.8692 253.384 27.0701C253.165 26.2711 252.728 25.6944 252.409 25.7819C252.089 25.8695 252.008 26.5882 252.226 27.3872C252.445 28.1862 252.882 28.763 253.201 28.6754Z" fill="#231F20"/>
<path d="M254 42.2203C253.7 42.2203 253.4 42.2203 253 42.1203C252.6 42.0203 252.4 41.6203 252.5 41.2203C252.6 40.8203 253 40.6203 253.4 40.7203C253.5 40.7203 255.7 41.3203 257.4 38.1203C257.6 37.8203 258 37.6203 258.3 37.8203C258.6 38.0203 258.8 38.4203 258.6 38.7203C257.3 41.5203 255.4 42.2203 254 42.2203Z" fill="#231F20"/>
<path d="M257.9 75.1201C257.9 75.1201 221.3 99.8201 216.1 99.5201C210.9 99.2201 203.3 95.4201 203.1 98.1201C202.9 100.82 210.6 103.12 210.6 103.12C210.6 103.12 199.9 104.42 200.2 107.52C200.5 110.62 204.3 114.22 208.8 113.72C213.3 113.22 216.4 110.82 220.4 110.22C224.4 109.62 266.3 89.0201 266.3 89.0201L257.9 75.1201Z" fill="white"/>
<path d="M208 114.62C206 114.62 204.1 113.92 202.5 112.62C200.9 111.42 199.8 109.62 199.5 107.72C199.2 105.02 204.3 103.62 207.7 102.92C205.3 101.92 202.2 100.22 202.3 98.1202C202.3 97.6202 202.6 97.1202 203 96.9202C204.2 96.1202 206.6 96.7202 209.6 97.5202C211.7 98.1202 213.8 98.6202 216 98.8202H216.1C220 98.8202 242.9 84.3202 257.4 74.5202C257.6 74.4202 257.8 74.4202 257.9 74.4202C258.1 74.4202 258.2 74.6202 258.4 74.7202L266.9 88.8202C267 89.0202 267 89.2202 267 89.4202C266.9 89.6202 266.8 89.7202 266.6 89.8202C264.9 90.6202 224.6 110.42 220.5 111.02C218.8 111.42 217.1 111.92 215.5 112.62C213.4 113.52 211.2 114.22 208.9 114.52C208.7 114.62 208.4 114.62 208 114.62ZM204.6 97.9202C204.4 97.9202 204.1 97.9202 203.9 98.0202C203.9 98.0202 203.8 98.1202 203.8 98.2202C203.7 99.7202 207.9 101.62 210.8 102.52C211.1 102.62 211.3 102.92 211.3 103.22C211.3 103.52 211 103.82 210.7 103.82C206.5 104.32 200.8 105.92 200.9 107.52C201.2 109.12 202.1 110.52 203.4 111.52C204.9 112.72 206.8 113.32 208.8 113.12C211 112.82 213.1 112.22 215.1 111.32C216.8 110.52 218.6 110.02 220.4 109.62C223.4 109.12 250.8 96.0202 265.4 88.8202L257.6 76.0202C251.8 79.9202 221 100.42 216 100.12C213.7 99.9202 211.5 99.4202 209.3 98.7202C207.9 98.4202 206.3 98.0202 204.6 97.9202Z" fill="#231F20"/>
<path d="M272.1 61.2202L256.8 72.4202L268.1 91.5202L280.8 83.5202" fill="#179EFF"/>
<path d="M268.1 92.2202C268 92.2202 268 92.2202 267.9 92.2202C267.7 92.2202 267.6 92.0202 267.5 91.9202L256.2 72.7202C256 72.4202 256.1 72.0202 256.4 71.8202L271.7 60.7202C272 60.5202 272.5 60.5202 272.7 60.9202C272.9 61.2202 272.9 61.7202 272.6 61.9202L257.8 72.7202L268.4 90.7202L280.4 83.1202C280.7 82.9202 281.2 83.0202 281.4 83.3202C281.6 83.6202 281.5 84.1202 281.2 84.3202L268.6 92.3202C268.4 92.2202 268.3 92.2202 268.1 92.2202Z" fill="#231F20"/>
<path d="M107.5 290.92H0.699951V330.92H107.5V290.92Z" fill="white"/>
<path d="M107.5 331.62H0.699997C0.299997 331.62 0 331.32 0 330.92V290.92C0 290.52 0.299997 290.22 0.699997 290.22H107.5C107.9 290.22 108.2 290.52 108.2 290.92V330.92C108.2 331.32 107.9 331.62 107.5 331.62ZM1.39999 330.22H106.8V291.62H1.39999V330.22Z" fill="#231F20"/>
<path d="M229.6 269.72H122.8V331.02H229.6V269.72Z" fill="white"/>
<path d="M229.6 331.62H122.8C122.4 331.62 122.1 331.32 122.1 330.92V269.62C122.1 269.22 122.4 268.92 122.8 268.92H229.6C230 268.92 230.3 269.22 230.3 269.62V330.92C230.3 331.32 230 331.62 229.6 331.62ZM123.5 330.22H228.9V270.32H123.5V330.22Z" fill="#231F20"/>
<path d="M351.7 244.32H244.9V331.02H351.7V244.32Z" fill="white"/>
<path d="M351.7 331.62H244.9C244.5 331.62 244.2 331.32 244.2 330.92V244.22C244.2 243.82 244.5 243.52 244.9 243.52H351.7C352.1 243.52 352.4 243.82 352.4 244.22V330.92C352.4 331.32 352.1 331.62 351.7 331.62ZM245.6 330.22H351V244.92H245.6V330.22Z" fill="#231F20"/>
<path d="M88.7003 194.92C88.7003 194.92 87.9003 196.42 86.7003 198.72C81.5003 208.72 78.0003 225.72 67.4003 235.62C63.5003 239.22 20.8003 257.92 20.8003 257.92L16.2003 245.22C16.2003 245.22 50.1003 223.82 52.9003 220.92C56.5003 217.22 71.9003 168.02 71.9003 168.02L88.7003 194.92Z" fill="white"/>
<path d="M20.9004 258.62C20.8004 258.62 20.7004 258.62 20.6004 258.52C20.4004 258.42 20.3004 258.32 20.2004 258.12L15.6004 245.52C15.5004 245.22 15.6004 244.82 15.9004 244.72C27.6004 237.32 50.3004 222.82 52.5004 220.52C55.4004 217.62 67.1004 181.52 71.4004 167.92C71.5004 167.62 71.7004 167.42 72.0004 167.42C72.3004 167.42 72.5004 167.52 72.7004 167.72L89.4004 194.52C89.5004 194.72 89.5004 195.02 89.4004 195.22C89.4004 195.22 88.6004 196.72 87.4004 199.02C85.7004 202.52 84.2004 206.12 82.8004 209.82C79.3004 218.92 75.4004 229.12 68.0004 236.12C64.1004 239.82 23.0004 257.82 21.2004 258.52C21.0004 258.62 20.9004 258.62 20.9004 258.62ZM17.1004 245.62L21.3004 257.02C36.2004 250.52 64.0004 237.92 67.0004 235.12C74.2004 228.42 78.1004 218.32 81.5004 209.42C82.9004 205.72 84.4004 202.02 86.1004 198.42C87.0004 196.72 87.6004 195.52 87.9004 194.92L72.2004 169.82C69.6004 178.12 56.8004 218.02 53.5004 221.52C50.7004 224.32 21.4004 242.92 17.1004 245.62Z" fill="#231F20"/>
<path d="M16.2004 245.32C16.2004 245.32 5.80037 247.02 5.90037 248.62C6.00037 250.22 14.3004 276.42 17.4004 275.32C20.5004 274.22 20.9004 258.02 20.9004 258.02L16.2004 245.32Z" fill="#231F20"/>
<path d="M17.2003 276.02C16.9003 276.02 16.5003 275.92 16.3003 275.72C12.3003 273.12 5.30032 249.82 5.30032 248.62C5.30032 248.12 5.20033 246.42 16.2003 244.62C16.5003 244.52 16.9003 244.72 17.0003 245.12L21.6003 257.72C21.6003 257.82 21.6003 257.92 21.6003 258.02C21.5003 261.92 21.0003 274.82 17.7003 276.02C17.5003 276.02 17.4003 276.02 17.2003 276.02ZM6.60033 248.62C7.80033 253.22 9.30033 257.72 11.0003 262.12C15.5003 274.22 17.1003 274.52 17.2003 274.52C18.8003 273.92 20.0003 265.52 20.2003 257.92L15.8003 245.92C11.7003 246.82 7.30033 247.92 6.60033 248.62Z" fill="#231F20"/>
<path d="M101.2 187.02C101.2 187.02 101.7 188.62 102.5 191.12C105.9 201.92 114.7 230.32 114.9 234.62C115.3 239.92 95.7003 278.52 95.7003 278.52L82.4003 276.22C82.4003 276.22 94.2003 234.72 94.2003 230.72C94.2003 225.52 70.4003 179.82 70.4003 179.82L101.2 187.02Z" fill="white"/>
<path d="M95.7003 279.32H95.6003L82.3003 277.02C82.1003 277.02 81.9003 276.92 81.8003 276.72C81.7003 276.52 81.7003 276.32 81.7003 276.12C85.8003 261.82 93.5003 234.02 93.5003 230.82C93.5003 226.72 76.4003 192.92 69.8003 180.22C69.7003 180.02 69.7003 179.72 69.9003 179.42C70.1003 179.22 70.3003 179.12 70.6003 179.22L101.3 186.42C101.5 186.52 101.7 186.62 101.8 186.92L103.1 191.02C106.8 202.72 115.3 230.32 115.6 234.72C116 240.22 97.1003 277.42 96.3003 279.02C96.2003 279.22 96.0003 279.32 95.7003 279.32ZM83.3003 275.72L95.3003 277.82C100.9 266.82 114.5 238.92 114.2 234.72C113.9 230.42 104.6 200.42 101.8 191.42L100.6 187.62L71.7003 180.92C75.7003 188.72 94.8003 225.92 94.9003 230.82C95.0003 234.62 85.0003 269.92 83.3003 275.72Z" fill="#231F20"/>
<path d="M52.9004 73.9202C50.1004 74.1202 47.4004 74.9202 44.9004 76.1202C40.5004 78.2202 36.4004 81.7202 35.4004 86.4202C34.6004 90.3202 36.1004 94.2202 38.0004 97.6202C39.9004 101.02 42.1004 104.42 43.2004 108.12C44.3004 111.82 43.8004 116.42 40.8004 119.02C44.8004 117.22 48.8004 115.42 52.0004 112.52C53.9004 110.82 55.5004 108.62 55.6004 106.02C55.6004 103.92 55.1004 101.92 54.1004 100.02C52.9004 97.2202 51.6004 94.3202 51.4004 91.2202C51.2004 88.1202 52.3004 84.7202 55.0004 83.2202C57.3004 81.8202 65.0004 82.0202 63.8004 77.7202C62.7004 74.4202 55.6004 73.8202 52.9004 73.9202Z" fill="white"/>
<path d="M40.7004 119.72C40.3004 119.72 40.0004 119.42 40.0004 119.02C40.0004 118.82 40.1004 118.62 40.3004 118.52C43.3004 115.92 43.4004 111.42 42.5004 108.32C41.6004 105.62 40.4004 103.02 38.9004 100.62C38.4004 99.7201 37.9004 98.8201 37.4004 97.9201C34.9004 93.3201 34.1004 89.6201 34.8004 86.2201C36.0004 80.4201 41.5004 77.0201 44.7004 75.4201C47.3004 74.1201 50.1004 73.3201 53.0004 73.1201C55.8004 73.0201 63.3004 73.5201 64.4004 77.4201C64.7004 78.3201 64.6004 79.2201 64.2004 80.0201C63.2004 81.7201 60.6004 82.3201 58.3004 82.9201C57.3004 83.1201 56.3004 83.4201 55.4004 83.8201C52.7004 85.4201 52.0004 88.8201 52.1004 91.2201C52.3004 94.0201 53.5004 96.8201 54.6004 99.4201L54.8004 99.8201C55.8004 101.72 56.4004 103.92 56.4004 106.12C56.2004 108.52 54.9004 110.92 52.5004 113.02C49.2004 116.02 45.1004 117.92 41.2004 119.62C40.9004 119.72 40.8004 119.82 40.7004 119.72ZM52.9004 74.5201C50.2004 74.7201 47.5004 75.4201 45.1004 76.7201C42.1004 78.1201 37.1004 81.3201 36.0004 86.5201C35.4004 89.5201 36.2004 93.0201 38.5004 97.3201C39.0004 98.2201 39.5004 99.1201 40.0004 99.9201C41.6004 102.42 42.9004 105.12 43.8004 107.92C44.7004 111.02 44.5004 114.22 43.1004 117.12C46.1004 115.82 48.9004 114.12 51.4004 111.92C52.9004 110.62 54.6004 108.42 54.8004 105.92C54.8004 103.92 54.3004 102.02 53.4004 100.22L53.2004 99.8201C51.8004 97.1201 50.9004 94.1201 50.6004 91.1201C50.4004 87.4201 51.9004 84.0201 54.6004 82.4201C55.6004 81.9201 56.8004 81.5201 57.9004 81.3201C59.8004 80.8201 62.2004 80.3201 62.9004 79.1201C63.1004 78.6201 63.2004 78.1201 63.0004 77.6201C62.2004 75.1201 55.7004 74.4201 52.9004 74.5201Z" fill="#231F20"/>
<path d="M56.3003 74.8202C55.4003 76.4202 55.0003 78.3202 55.3003 80.1202C55.4003 81.3202 55.8003 82.5202 56.6003 83.5202C57.6003 84.6202 59.1003 85.2202 60.6003 85.1202C61.3003 85.1202 61.9003 84.8202 62.4003 84.4202C62.8003 84.0202 63.0003 83.4202 63.0003 82.9202C63.9003 78.9202 61.0003 67.3202 56.3003 74.8202Z" fill="#231F20"/>
<path d="M60.2004 85.8202C58.6004 85.8202 57.1004 85.1202 56.0004 84.0202C55.2004 82.9202 54.6004 81.6202 54.6004 80.2202C54.3004 78.2202 54.7004 76.2202 55.7004 74.4202C57.6004 71.5202 59.2004 71.4202 60.2004 71.8202C63.1004 73.0202 64.4004 80.0202 63.7004 82.9202C63.6004 83.6202 63.3004 84.2202 62.9004 84.8202C62.3004 85.4202 61.5004 85.8202 60.6004 85.8202H60.2004ZM56.9004 75.2202C56.1004 76.7202 55.8004 78.4202 56.0004 80.0202C56.1004 81.1202 56.5004 82.1202 57.1004 83.0202C58.0004 84.0202 59.2004 84.4202 60.5004 84.3202C61.0004 84.3202 61.5004 84.1202 61.8004 83.8202C62.1004 83.5202 62.2004 83.0202 62.3004 82.6202C62.8004 80.0202 61.6004 73.8202 59.6004 73.0202C58.6004 72.7202 57.6004 74.0202 56.9004 75.2202Z" fill="#231F20"/>
<path d="M81.4003 99.9203C80.3003 101.22 78.6003 102.02 75.7003 101.72C73.3003 101.42 71.1003 100.52 69.2003 99.1203C61.5003 93.7202 57.6003 84.5202 59.0003 75.2202C60.5003 66.0202 69.7003 56.9203 79.5003 60.4203C82.9003 61.6203 85.5003 64.3202 86.7003 67.6202C88.1003 67.1202 89.6003 67.5202 90.5003 68.6202C93.1003 71.1202 92.9003 73.8203 91.6003 76.9203C89.4003 81.9203 86.6003 86.7202 84.6003 91.8202C83.5003 94.8202 83.1003 98.0203 81.4003 99.9203Z" fill="white"/>
<path d="M76.8003 102.52C76.4003 102.52 76.0003 102.52 75.6003 102.42C73.1003 102.12 70.8003 101.12 68.8003 99.7202C60.9003 94.2202 56.8003 84.7202 58.3003 75.1202C59.3003 69.3202 62.8003 64.2202 67.8003 61.0202C71.4003 58.8202 75.7003 58.3202 79.7003 59.8202C83.0003 61.0202 85.7003 63.5202 87.1003 66.8202C88.5003 66.6202 90.0003 67.1202 91.0003 68.2202C94.3003 71.5202 93.3003 74.9202 92.2003 77.3202C91.3003 79.4202 90.3003 81.4202 89.3003 83.4202C87.9003 86.2202 86.4003 89.2202 85.3003 92.1202C84.9003 93.1202 84.6003 94.1202 84.3003 95.0202C83.9003 96.9202 83.0003 98.8202 81.9003 100.42C80.7003 101.82 78.8003 102.62 76.8003 102.52ZM75.2003 60.4202C72.9003 60.4202 70.6003 61.1202 68.6003 62.3202C63.9003 65.2202 60.7003 70.0202 59.7003 75.4202C58.4003 84.4202 62.2003 93.3202 69.6003 98.6202C71.4003 99.9202 73.5003 100.82 75.8003 101.12C78.2003 101.32 79.8003 100.92 80.9003 99.5202C81.9003 98.0202 82.7003 96.4202 83.0003 94.6202C83.3003 93.6202 83.6003 92.6202 84.0003 91.6202C85.2003 88.6202 86.7003 85.6202 88.1003 82.7202C89.1003 80.7202 90.1003 78.7202 91.0003 76.6202C92.4003 73.4202 92.1003 71.2202 90.1003 69.1202C89.3003 68.2202 88.1003 67.9202 87.0003 68.3202C86.8003 68.4202 86.6003 68.4202 86.4003 68.3202C86.2003 68.2202 86.1003 68.1202 86.0003 67.9202C84.9003 64.7202 82.4003 62.2202 79.2003 61.1202C78.0003 60.7202 76.6003 60.4202 75.2003 60.4202Z" fill="#231F20"/>
<path d="M88.7003 78.8203C88.7003 78.8203 94.7003 83.9203 94.2003 85.4203C93.7003 86.9203 90.6003 86.9203 90.6003 86.9203" fill="white"/>
<path d="M90.6003 87.6202C90.2003 87.6202 89.9003 87.3202 89.9003 86.9202C89.9003 86.5202 90.2003 86.2202 90.5003 86.2202H90.6003C91.4003 86.2202 93.3003 86.0202 93.5003 85.2202C93.6003 84.5202 91.1003 81.8202 88.2003 79.3202C87.9003 79.0202 87.9003 78.6202 88.1003 78.3202C88.3003 78.0202 88.8003 78.0202 89.1003 78.2202C91.5003 80.2202 95.3003 83.8202 94.8003 85.6202C94.3003 87.5202 91.2003 87.6202 90.6003 87.6202Z" fill="#231F20"/>
<path d="M92.0003 113.02C85.3003 113.52 73.9003 106.82 73.8003 106.62C72.6003 102.32 71.6003 97.9203 70.8003 93.4203C70.8003 93.4203 75.3003 92.1203 76.4003 86.0203C77.5003 79.9203 83.2003 78.9203 85.4003 70.8203C88.7003 72.2203 89.2003 77.0203 90.0003 79.9203C91.2003 84.1203 92.3003 88.3203 93.2003 92.5203C93.8003 95.2203 87.0003 97.2203 85.6003 96.8203C86.7003 99.4203 88.8003 104.82 92.0003 113.02Z" fill="white"/>
<path d="M91.3003 113.72C84.5003 113.72 73.4003 107.72 73.2003 106.82C72.0003 102.42 71.0003 98.0203 70.2003 93.5203C70.1003 93.1203 70.4003 92.8203 70.7003 92.7203C70.9003 92.6203 74.8003 91.4203 75.8003 85.8203C76.4003 82.6203 78.1003 80.8203 79.9003 78.8203C82.2003 76.5203 83.9003 73.7203 84.8003 70.6203C84.9003 70.4203 85.0003 70.2203 85.2003 70.2203C85.4003 70.1203 85.6003 70.1203 85.8003 70.2203C88.8003 71.5203 89.7003 75.2203 90.4003 78.2203C90.5003 78.8203 90.7003 79.3203 90.8003 79.8203C92.0003 84.0203 93.1003 88.2203 94.0003 92.4203C94.2003 93.4203 93.8003 94.4203 93.0003 95.0203C91.2003 96.4203 89.0003 97.3203 86.7003 97.6203C87.9003 100.72 88.3003 101.72 92.7003 112.92C92.8003 113.12 92.8003 113.32 92.6003 113.52C92.5003 113.72 92.3003 113.82 92.1003 113.82C91.9003 113.72 91.6003 113.72 91.3003 113.72ZM74.4003 106.12C75.6003 106.92 84.8003 112.22 91.0003 112.32C86.6003 101.02 86.5003 100.92 85.0003 97.0203C84.9003 96.7203 85.0003 96.5203 85.1003 96.3203C85.3003 96.1203 85.6003 96.0203 85.8003 96.1203C86.6003 96.3203 90.3003 95.5203 91.9003 93.9203C92.4003 93.5203 92.6003 93.0203 92.5003 92.6203C91.5003 88.4203 90.4003 84.2203 89.3003 80.0203C89.2003 79.5203 89.0003 78.9203 88.9003 78.3203C88.3003 75.9203 87.6003 73.0203 85.8003 71.7203C84.8003 74.7203 83.1003 77.5203 80.8003 79.7203C79.1003 81.6203 77.6003 83.2203 77.1003 86.0203C76.2003 91.2203 72.9003 93.1203 71.6003 93.8203C71.9003 95.8203 73.2003 102.52 74.4003 106.12Z" fill="#231F20"/>
<path d="M92.3004 89.4202C92.3004 89.4202 89.7004 92.3202 87.0004 89.5202L92.3004 89.4202Z" fill="white"/>
<path d="M89.5003 91.4203C88.3003 91.4203 87.3003 90.8203 86.5003 89.9203C86.2003 89.6203 86.2003 89.2203 86.5003 88.9203C86.8003 88.6203 87.2003 88.6203 87.5003 88.9203C88.0003 89.5203 88.7003 89.9203 89.5003 89.9203C90.4003 89.8203 91.2003 89.4203 91.8003 88.8203C92.1003 88.6203 92.6003 88.7203 92.8003 89.0203C93.0003 89.2203 93.0003 89.5203 92.8003 89.8203C91.9003 90.7203 90.7003 91.3203 89.5003 91.4203Z" fill="#231F20"/>
<path d="M85.7003 96.7201C85.7003 96.7201 82.1003 97.6201 79.8003 95.6201C79.8003 95.6201 81.9003 101.92 87.8003 102.22L85.7003 96.7201Z" fill="#231F20"/>
<path d="M87.8004 102.92C81.4004 102.62 79.2004 96.1203 79.1004 95.8203C79.0004 95.4203 79.2004 95.0203 79.5004 94.9203C79.7004 94.8203 80.0004 94.9203 80.2004 95.0203C82.3004 96.7203 85.5004 96.0203 85.5004 96.0203C85.8004 95.9203 86.2004 96.1203 86.3004 96.4203L88.4004 101.92C88.6004 102.22 88.4004 102.72 88.1004 102.82C88.1004 103.02 87.9004 103.02 87.8004 102.92ZM81.3004 97.2203C82.4004 99.3203 84.4004 100.82 86.7004 101.32L85.2004 97.4203C83.9004 97.7203 82.6004 97.6203 81.3004 97.2203Z" fill="#231F20"/>
<path d="M87.0401 78.7811C87.364 78.7112 87.4756 77.9543 87.2893 77.0906C87.1031 76.2268 86.6895 75.5832 86.3656 75.6531C86.0416 75.7229 85.9301 76.4798 86.1163 77.3435C86.3026 78.2073 86.7162 78.8509 87.0401 78.7811Z" fill="#231F20"/>
<path d="M80.8004 83.4202C80.4004 82.4202 79.7004 81.5202 78.8004 80.9202C78.2004 80.3202 77.5004 79.8202 76.7004 79.5202C75.9004 79.1202 75.0004 79.1202 74.3004 79.5202C73.6004 79.9202 73.2004 80.5202 73.0004 81.3202C72.9004 82.0202 72.9004 82.8202 73.1004 83.5202C73.9004 86.7202 76.3004 89.3202 79.5004 90.2202L79.2004 90.0202" fill="white"/>
<path d="M79.6003 90.8202C79.5003 90.8202 79.5003 90.8202 79.4003 90.8202C76.0003 89.8202 73.3003 87.0202 72.5003 83.6202C72.3003 82.8202 72.3003 81.9202 72.4003 81.1202C72.6003 80.2202 73.2003 79.3202 74.0003 78.9202C75.0003 78.4202 76.1003 78.4202 77.1003 78.9202C77.9003 79.3202 78.7003 79.8202 79.3003 80.5202C80.3003 81.2202 81.1003 82.2202 81.5003 83.3202C81.6003 83.7202 81.4003 84.1202 81.1003 84.2202C80.7003 84.3202 80.3003 84.1202 80.2003 83.7202C79.8003 82.8202 79.2003 82.1202 78.4003 81.5202C77.8003 81.0202 77.2003 80.5202 76.5003 80.2202C75.9003 79.9202 75.3003 79.9202 74.7003 80.1202C74.2003 80.4202 73.9003 80.9202 73.8003 81.4202C73.7003 82.0202 73.7003 82.7202 73.9003 83.3202C74.6003 86.1202 76.6003 88.3202 79.2003 89.3202C79.4003 89.3202 79.5003 89.3202 79.7003 89.4202L80.0003 89.6202C80.3003 89.8202 80.4003 90.2202 80.2003 90.6202C80.0003 90.6202 79.8003 90.8202 79.6003 90.8202Z" fill="#231F20"/>
<path d="M97.2003 110.32C97.2003 110.32 77.7003 100.42 70.7003 107.02C63.7003 113.62 64.1003 135.12 63.8003 171.02L106 168.12C106 168.12 106.7 115.52 97.2003 110.32Z" fill="#179EFF"/>
<path d="M113.9 124.22C116.8 124.32 144.2 127.72 147.1 125.02C150 122.32 155.9 118.42 156.3 119.42C156.7 120.42 152.7 125.32 152.7 125.32C152.7 125.32 161.5 122.52 162.9 123.82C164.3 125.12 160.8 131.42 158.7 133.22C158.1 133.72 152.3 134.92 148.8 135.92C133.4 140.32 112.6 140.32 106.8 136.22C98.7004 130.62 76.0004 119.72 74.7004 117.82C73.4004 115.92 77.3004 103.42 87.0004 108.72C87.0004 108.82 111 124.12 113.9 124.22Z" fill="white"/>
<path d="M123.8 140.02C116 140.02 109.4 139.02 106.4 136.82C102.3 133.92 94.4004 129.72 87.4004 126.02C79.4004 121.72 74.9004 119.32 74.1004 118.32C73.1004 116.92 74.2004 112.42 76.7004 109.52C78.3004 107.72 81.8004 105.22 87.3004 108.22C96.6004 114.12 111.9 123.52 113.9 123.62C114.4 123.62 115.8 123.82 117.6 123.92C124.2 124.52 144.4 126.52 146.5 124.52C148.6 122.52 154.5 118.22 156.1 118.62C156.4 118.72 156.7 118.92 156.8 119.22C157.1 120.02 156.3 121.62 154.4 124.12C157.6 123.22 162 122.32 163.2 123.52C163.6 123.92 163.8 124.52 163.7 125.02C163.6 127.62 160.7 132.32 159 133.82C158.6 134.22 157.2 134.52 153.6 135.42C152 135.82 150.2 136.22 148.9 136.62C140.8 138.82 132.4 140.02 123.8 140.02ZM82.5004 108.22C80.7004 108.22 79.0004 109.02 77.8004 110.42C75.4004 113.12 74.9004 116.82 75.3004 117.42C75.9004 118.22 82.4004 121.72 88.1004 124.72C95.1004 128.52 103.1 132.72 107.3 135.62C112.6 139.32 132.7 139.82 148.7 135.22C150.1 134.82 151.8 134.42 153.5 134.02C155.1 133.72 156.8 133.22 158.4 132.62C160 131.22 162.5 126.82 162.6 124.82C162.6 124.62 162.6 124.42 162.5 124.32C161.9 123.82 157.5 124.52 153 125.92C152.7 126.02 152.4 125.92 152.2 125.62C152 125.32 152 125.02 152.2 124.82C153.4 123.32 154.5 121.72 155.5 120.02C152.6 121.42 150 123.32 147.6 125.42C145.3 127.52 131.8 126.62 117.6 125.22C115.8 125.02 114.4 124.92 113.9 124.92C110.9 124.82 89.1004 110.92 86.7004 109.32C85.3004 108.62 83.9004 108.22 82.5004 108.22Z" fill="#231F20"/>
<path d="M63.8003 171.02L43.8003 220.32C43.8003 220.32 95.2003 237.92 118.8 233.82L106 168.02L63.8003 171.02Z" fill="#231F20"/>
<path d="M110.6 235.22C85.4004 235.22 45.5004 221.72 43.6004 221.02C43.4004 220.92 43.3004 220.82 43.2004 220.62C43.1004 220.42 43.1004 220.22 43.2004 220.12L63.2004 170.82C63.3004 170.62 63.5004 170.42 63.8004 170.42L106 167.52C106.4 167.52 106.7 167.72 106.7 168.12L119.5 233.92C119.5 234.12 119.5 234.32 119.4 234.42C119.3 234.62 119.1 234.72 118.9 234.72C116.2 235.12 113.4 235.32 110.6 235.22ZM44.7004 219.92C50.9004 222.02 96.0004 236.62 117.9 233.32L105.4 168.82L64.3004 171.72L44.7004 219.92Z" fill="#231F20"/>
<path d="M82.4003 276.32C82.4003 276.32 78.7003 286.22 80.1003 286.92C81.5003 287.62 108.4 293.62 109 290.32C109.6 287.02 95.7003 278.62 95.7003 278.62L82.4003 276.32Z" fill="#231F20"/>
<path d="M105.4 291.92C97.5003 291.92 80.6003 287.92 79.7003 287.42C79.2003 287.22 77.8003 286.42 81.7003 275.92C81.8003 275.62 82.1003 275.42 82.5003 275.52L95.8003 277.82C95.9003 277.82 96.0003 277.82 96.0003 277.92C99.4003 279.92 110.2 286.92 109.6 290.32C109.5 290.82 109.2 291.22 108.7 291.42C107.7 291.82 106.6 292.02 105.4 291.92ZM80.5003 286.32C85.1003 287.52 89.7003 288.52 94.4003 289.32C107.1 291.52 108.2 290.22 108.3 290.22C108.6 288.52 101.9 283.32 95.4003 279.32L82.8003 277.12C81.4003 280.92 80.2003 285.32 80.5003 286.32Z" fill="#231F20"/>
<path d="M146 87.3201C144.6 88.0201 143.7 89.4202 143.6 90.9202C143.5 91.4202 143.6 91.9201 143.9 92.3201C144.2 92.7201 144.8 92.8201 145.2 92.5201C144 93.5201 143.9 95.2201 144.8 96.3201C144.8 96.3201 144.8 96.3202 144.9 96.4202C146 97.5202 147.6 97.8201 149 97.3201C150.4 96.7201 151.5 95.8201 152.3 94.5201C154.2 91.6201 155.7 84.9201 151.6 83.1201C149.9 82.3201 147.7 83.0201 146.3 84.0201C145.5 84.5201 144.2 85.2201 144.3 86.3201C144.2 87.0201 145.2 88.2201 146 87.3201Z" fill="white"/>
<path d="M147.6 98.2203C146.4 98.2203 145.2 97.7204 144.4 96.9204C143.7 96.1204 143.4 95.1204 143.6 94.1204C143.6 93.8204 143.7 93.4204 143.9 93.1204C143.7 93.0204 143.6 92.9203 143.5 92.7203C143.1 92.2203 143 91.5203 143.1 90.8203C143.2 89.7203 143.7 88.6203 144.5 87.7203C144.1 87.3203 143.8 86.7204 143.8 86.1204C143.7 84.7204 145 83.9204 145.9 83.4204L146.2 83.2203C147.7 82.2203 150.2 81.4203 152.2 82.3203C153.6 82.9203 154.6 84.1204 155 85.6204C155.9 88.6204 154.7 92.5203 153.2 94.8203C152.4 96.2203 151.1 97.3204 149.5 97.9204C148.7 98.1204 148.1 98.2203 147.6 98.2203ZM145.5 93.2203C145.2 93.5203 145 93.9203 144.9 94.3203C144.8 94.9203 145 95.5203 145.4 96.0203C146.3 96.9203 147.6 97.1203 148.7 96.7203C149.9 96.2203 151 95.3203 151.6 94.2203C152.9 92.2203 153.9 88.6203 153.2 86.2203C152.9 85.1203 152.2 84.3203 151.2 83.8203C149.7 83.1203 147.7 83.8204 146.5 84.6204L146.2 84.8203C145.6 85.2203 144.8 85.7203 144.8 86.3203C144.8 86.6203 145 86.9203 145.2 87.0203L145.6 86.8203C145.9 86.6203 146.4 86.8204 146.5 87.1204C146.6 87.4204 146.6 87.7204 146.4 87.9204C146.2 88.1204 146 88.3204 145.7 88.4204C144.8 89.1204 144.3 90.1203 144.1 91.2203C144 91.5203 144.1 91.8204 144.2 92.1204C144.3 92.2204 144.4 92.2203 144.4 92.2203H144.5C144.8 92.0203 145.2 92.1203 145.4 92.3203C145.7 92.6203 145.6 93.0203 145.3 93.3203C145.3 93.3203 145.2 93.4204 145.1 93.4204L145.5 93.2203Z" fill="#231F20"/>
</svg>
