<svg width="348" height="327" viewBox="0 0 348 327" fill="none" xmlns="http://www.w3.org/2000/svg">
<path d="M241.71 69.3871C241.71 69.3871 247.52 65.3871 269.85 84.1271C292.18 102.867 293.07 119.857 293.07 119.857V45.7171C293.07 45.7171 281.46 13.5571 243.94 1.05713L241.71 69.3871Z" fill="#31D571"/>
<path d="M293.07 120.557C292.892 120.557 292.721 120.489 292.593 120.366C292.464 120.243 292.388 120.075 292.38 119.897C292.38 119.727 291.2 102.977 269.38 84.6669C248.06 66.7569 242.13 69.9469 242.07 69.9769C241.959 70.041 241.833 70.0747 241.705 70.0747C241.577 70.0747 241.451 70.041 241.34 69.9769C241.232 69.9143 241.142 69.8238 241.08 69.7147C241.019 69.6057 240.988 69.4821 240.99 69.3569L243.22 1.01692C243.224 0.90821 243.253 0.801882 243.305 0.706369C243.357 0.610856 243.431 0.528785 243.52 0.466669C243.609 0.404553 243.712 0.364107 243.819 0.348527C243.927 0.332948 244.037 0.342665 244.14 0.376916C281.6 12.8569 293.6 45.1569 293.73 45.4769C293.745 45.5563 293.745 45.6376 293.73 45.7169V119.857C293.73 120.039 293.659 120.214 293.532 120.345C293.405 120.476 293.232 120.552 293.05 120.557H293.07ZM243.6 68.2969C247.01 68.2969 254.71 70.4969 270.3 83.5869C284.58 95.5869 290.18 106.787 292.37 113.477V45.8469C291.6 43.7869 279.6 14.1069 244.6 2.01692L242.43 68.3969C242.816 68.327 243.208 68.2935 243.6 68.2969Z" fill="#231F20"/>
<path d="M64.27 94.5567V28.5567C64.27 28.5567 99.76 14.6267 144.27 17.7767V81.1267C144.27 81.1267 95.27 82.4567 64.27 94.5567Z" fill="#31D571"/>
<path d="M64.2701 95.2869C64.1278 95.2873 63.9886 95.2456 63.8701 95.1669C63.7767 95.1019 63.7006 95.0151 63.6483 94.9141C63.596 94.813 63.5692 94.7007 63.5701 94.5869V28.5569C63.5701 28.417 63.612 28.2803 63.6904 28.1645C63.7688 28.0486 63.8802 27.9589 64.0101 27.9069C64.3701 27.7669 100.17 13.9669 144.3 17.0769C144.476 17.0919 144.64 17.1718 144.76 17.3013C144.881 17.4307 144.948 17.6003 144.95 17.7769V81.1269C144.95 81.3092 144.879 81.4843 144.752 81.615C144.625 81.7457 144.452 81.8217 144.27 81.8269C143.78 81.8269 95.0501 83.3169 64.5201 95.2669C64.4385 95.288 64.354 95.2947 64.2701 95.2869ZM64.9701 29.0269V93.5569C93.7701 82.6269 137.57 80.6469 143.55 80.4269V18.4269C102.68 15.6769 69.1801 27.4669 64.9701 29.0269Z" fill="#231F20"/>
<path d="M33.5301 131.307C33.5301 131.307 9.72005 141.187 0.730049 170.397V111.987C0.730049 111.987 0.280052 83.677 33.5301 65.707V131.307Z" fill="#31D571"/>
<path d="M0.730021 171.097H0.600024C0.433032 171.075 0.279841 170.993 0.169321 170.866C0.0588015 170.739 -0.00141293 170.576 2.51769e-05 170.407V111.987C2.51769e-05 111.707 -0.0699768 83.0571 33.17 65.0871C33.2758 65.0369 33.3924 65.0141 33.5093 65.0206C33.6261 65.0272 33.7395 65.0629 33.839 65.1246C33.9385 65.1863 34.0209 65.2719 34.0787 65.3737C34.1366 65.4755 34.1679 65.5901 34.17 65.7071V131.307C34.1702 131.444 34.1294 131.579 34.0528 131.693C33.9762 131.807 33.8673 131.895 33.74 131.947C33.51 132.047 10.12 142.067 1.34002 170.607C1.29752 170.74 1.21706 170.857 1.10861 170.944C1.00017 171.031 0.868518 171.084 0.730021 171.097ZM32.83 66.8871C1.41003 84.4571 1.43003 111.697 1.43003 111.977V166.177C10.49 142.097 29.71 132.307 32.83 130.857V66.8871Z" fill="#231F20"/>
<path d="M0.72998 111.987C0.72998 111.987 6.56999 137.387 29.04 145.807V214.137C29.04 214.137 3.42998 196.457 0.72998 170.397V111.987Z" fill="white"/>
<path d="M29.04 214.837C28.8978 214.837 28.7586 214.796 28.64 214.717C28.38 214.537 2.73004 196.547 0.0300443 170.467V111.987C0.0289139 111.814 0.091582 111.648 0.206016 111.518C0.320451 111.389 0.478586 111.307 0.650047 111.287C0.820937 111.268 0.992858 111.313 1.13303 111.412C1.27319 111.512 1.3718 111.659 1.41004 111.827C1.47004 112.077 7.41004 136.967 29.28 145.147C29.4153 145.196 29.532 145.286 29.6143 145.404C29.6966 145.522 29.7405 145.663 29.74 145.807V214.137C29.7385 214.265 29.7023 214.39 29.6354 214.499C29.5686 214.609 29.4734 214.698 29.36 214.757C29.2628 214.813 29.152 214.84 29.04 214.837ZM1.43005 116.557V170.427C3.74005 192.717 23.43 209.047 28.34 212.787V146.287C11.81 139.867 4.24005 124.207 1.43005 116.557Z" fill="#231F20"/>
<path d="M185.68 143.367C185.68 143.367 212.73 234.757 223.68 239.367C234.63 243.977 251.44 231.667 252.87 223.867C254.3 216.067 232.25 125.697 232.25 125.697L185.68 143.367Z" fill="white"/>
<path d="M228.94 241.047C227.041 241.064 225.157 240.7 223.4 239.977C218.67 237.977 210.77 221.137 199.91 189.867C191.91 166.697 185.07 143.797 185 143.567C184.954 143.397 184.972 143.216 185.052 143.059C185.131 142.902 185.266 142.78 185.43 142.717L231.99 125.017C232.08 124.977 232.177 124.957 232.275 124.957C232.373 124.957 232.47 124.977 232.56 125.017C232.649 125.064 232.727 125.129 232.789 125.209C232.851 125.288 232.896 125.379 232.92 125.477C233.82 129.167 254.98 216.077 253.55 223.937C252.74 228.347 247.5 233.937 240.79 237.607C237.171 239.682 233.108 240.862 228.94 241.047ZM186.53 143.787C187.67 147.617 193.94 168.407 201.23 189.407C215.29 229.907 221.49 237.667 223.94 238.687C228.23 240.487 234.13 239.687 240.12 236.407C246.38 233.007 251.45 227.677 252.17 223.717C253.27 217.717 239.4 158.027 231.75 126.607L186.53 143.787Z" fill="#231F20"/>
<path d="M232.32 219.557C231.18 189.927 277.23 149.207 277.23 149.207L302.48 165.207C302.48 165.207 283.74 218.627 265.3 236.677C256.26 245.557 233.03 237.747 232.32 219.557Z" fill="white"/>
<path d="M255.13 241.047C252.101 241.019 249.105 240.419 246.3 239.277C239.47 236.557 232.02 229.957 231.62 219.607C231.14 207.147 238.62 191.417 253.81 172.857C260.891 164.269 268.578 156.199 276.81 148.707C276.924 148.607 277.067 148.546 277.218 148.534C277.37 148.521 277.521 148.557 277.65 148.637L302.89 164.637C303.025 164.719 303.128 164.846 303.18 164.995C303.233 165.145 303.233 165.308 303.18 165.457C302.99 165.997 284.18 219.237 265.83 237.197C262.903 239.829 259.063 241.211 255.13 241.047ZM233.02 219.557C233.4 229.237 240.39 235.417 246.82 237.977C253.68 240.707 260.91 239.977 264.82 236.177C281.96 219.397 299.6 171.087 301.6 165.497L277.3 150.107C272.85 154.107 231.96 192.047 233.02 219.557Z" fill="#231F20"/>
<path d="M252.31 235.707C252.163 235.707 252.02 235.662 251.9 235.577C251.822 235.523 251.756 235.454 251.705 235.374C251.655 235.294 251.621 235.205 251.606 235.111C251.591 235.018 251.595 234.922 251.618 234.83C251.641 234.739 251.683 234.652 251.74 234.577C252.1 234.067 288.12 183.377 294.74 154.387C294.753 154.291 294.786 154.199 294.837 154.116C294.888 154.034 294.956 153.963 295.036 153.908C295.115 153.852 295.206 153.815 295.301 153.796C295.396 153.778 295.494 153.78 295.589 153.801C295.683 153.823 295.772 153.864 295.85 153.921C295.928 153.979 295.993 154.053 296.041 154.137C296.089 154.221 296.119 154.314 296.129 154.411C296.14 154.507 296.129 154.605 296.1 154.697C289.42 183.957 253.24 234.877 252.88 235.387C252.819 235.483 252.735 235.563 252.635 235.619C252.536 235.675 252.424 235.705 252.31 235.707Z" fill="#D1D3D4"/>
<path d="M194.95 162.507C215.578 162.507 232.3 145.784 232.3 125.157C232.3 104.529 215.578 87.8066 194.95 87.8066C174.322 87.8066 157.6 104.529 157.6 125.157C157.6 145.784 174.322 162.507 194.95 162.507Z" fill="#231F20"/>
<path d="M194.95 163.207C187.42 163.219 180.055 160.997 173.789 156.822C167.522 152.647 162.634 146.707 159.744 139.753C156.854 132.8 156.092 125.145 157.554 117.759C159.016 110.372 162.636 103.584 167.956 98.2557C173.277 92.9269 180.058 89.2961 187.443 87.8226C194.827 86.3492 202.483 87.0994 209.441 89.9783C216.399 92.8572 222.347 97.7354 226.532 103.996C230.716 110.256 232.95 117.617 232.95 125.147C232.939 135.227 228.934 144.893 221.812 152.027C214.69 159.16 205.03 163.18 194.95 163.207ZM194.95 88.4969C187.698 88.4949 180.609 90.6435 174.579 94.671C168.549 98.6985 163.848 104.424 161.072 111.123C158.297 117.822 157.57 125.194 158.984 132.306C160.398 139.419 163.89 145.952 169.017 151.079C174.145 156.207 180.678 159.699 187.79 161.113C194.903 162.527 202.275 161.8 208.974 159.024C215.673 156.248 221.398 151.548 225.426 145.518C229.453 139.488 231.602 132.398 231.6 125.147C231.587 115.431 227.721 106.116 220.851 99.246C213.98 92.3757 204.666 88.5101 194.95 88.4969Z" fill="#231F20"/>
<path d="M141.98 97.687C141.98 97.687 89.1 112.977 78.77 139.927C68.44 166.877 101.77 303.677 101.77 303.677C101.77 303.677 159.03 334.027 216.54 302.127C216.54 302.127 232.72 186.207 224.18 156.997C215.64 127.787 196.03 99.257 183.74 94.997C171.45 90.737 141.98 97.687 141.98 97.687Z" fill="white"/>
<path d="M159.71 317.327C126.61 317.327 101.84 304.497 101.46 304.327C101.372 304.283 101.295 304.22 101.234 304.142C101.173 304.064 101.131 303.973 101.11 303.877C101.02 303.537 92.68 269.227 85.71 232.067C76.34 182.067 73.78 151.007 78.11 139.707C82.44 128.407 94.52 117.707 113.94 108.097C122.915 103.7 132.224 100.022 141.78 97.0969C142.99 96.8069 171.62 90.0969 183.95 94.4169C197.13 98.9969 216.62 128.777 224.83 156.887C233.32 185.887 217.88 297.577 217.22 302.317C217.207 302.425 217.167 302.528 217.104 302.617C217.041 302.706 216.957 302.778 216.86 302.827C199.367 312.478 179.688 317.471 159.71 317.327ZM102.39 303.197C106.77 305.397 161.54 331.637 215.92 301.687C216.92 294.687 231.7 185.137 223.53 157.197C214.66 126.837 195.1 99.6669 183.53 95.6469C171.71 91.5469 143.01 98.1669 142.15 98.3669C140.98 98.7069 89.45 114.027 79.42 140.177C69.52 165.997 100.6 295.887 102.39 303.197Z" fill="#231F20"/>
<path d="M191.68 310.967C191.589 310.968 191.498 310.951 191.413 310.917C191.328 310.883 191.251 310.833 191.186 310.768C191.121 310.704 191.069 310.628 191.033 310.543C190.998 310.459 190.98 310.368 190.98 310.277C190.98 308.787 188.31 160.987 186.75 149.277C185.06 136.617 157.63 125.857 157.35 125.757C157.176 125.691 157.036 125.558 156.96 125.388C156.884 125.219 156.879 125.026 156.945 124.852C157.011 124.678 157.144 124.538 157.314 124.462C157.483 124.386 157.676 124.381 157.85 124.447C159.02 124.897 186.33 135.607 188.14 149.087C189.71 160.827 192.27 304.087 192.38 310.207C192.381 310.299 192.365 310.39 192.331 310.476C192.297 310.561 192.246 310.639 192.182 310.705C192.118 310.771 192.042 310.823 191.957 310.86C191.873 310.896 191.782 310.916 191.69 310.917L191.68 310.967Z" fill="#D1D3D4"/>
<path d="M128.5 94.9868L130.74 127.337C130.74 127.337 144.06 141.557 157.6 139.927C172.32 138.107 182.89 127.307 182.89 127.307L180.84 104.647L128.5 94.9868Z" fill="#231F20"/>
<path d="M155.33 140.757C142.48 140.757 130.75 128.377 130.23 127.817C130.118 127.701 130.05 127.548 130.04 127.387L127.8 95.0371C127.791 94.9307 127.807 94.8236 127.847 94.7246C127.887 94.6256 127.95 94.5373 128.03 94.4671C128.11 94.3982 128.205 94.3473 128.307 94.318C128.408 94.2887 128.515 94.2815 128.62 94.2971L180.97 103.957C181.119 103.985 181.256 104.06 181.359 104.172C181.461 104.284 181.525 104.426 181.54 104.577L183.6 127.237C183.611 127.338 183.599 127.44 183.564 127.535C183.53 127.631 183.473 127.717 183.4 127.787C182.96 128.237 172.49 138.787 157.7 140.617C156.914 140.714 156.122 140.76 155.33 140.757ZM131.42 127.037C133 128.647 145.3 140.747 157.52 139.227C170.65 137.607 180.52 128.577 182.16 127.037L180.16 105.237L129.23 95.8371L131.42 127.037Z" fill="#231F20"/>
<path d="M192.75 165.557C192.75 165.557 163.19 174.987 162.87 213.187C162.55 251.387 188.81 242.617 203.98 230.037C219.15 217.457 221.51 198.807 220.16 187.567C218.81 176.327 211.6 160.147 192.75 165.557Z" fill="white"/>
<path d="M179.7 241.437C177.327 241.473 174.976 240.978 172.82 239.987C165.6 236.557 162.05 227.557 162.17 213.157C162.49 174.897 192.24 164.967 192.54 164.867C199.31 162.937 205.16 163.557 209.92 166.717C218.41 172.367 220.42 184.037 220.83 187.477C222.39 200.477 218.89 218.557 204.41 230.557C197.72 236.117 188.11 241.437 179.7 241.437ZM192.96 166.207C192.32 166.417 163.88 176.207 163.57 213.207C163.46 227.007 166.77 235.607 173.42 238.767C182.32 242.997 195.21 236.427 203.54 229.517C217.54 217.867 220.98 200.267 219.46 187.677C219.07 184.387 217.16 173.227 209.16 167.917C204.76 164.957 199.31 164.387 192.96 166.207Z" fill="#231F20"/>
<path d="M212.97 197.897C212.43 209.147 200.86 225.597 192.77 228.737C187.82 230.657 181.2 232.297 176.89 227.547C174.16 224.547 172.36 218.897 172.53 209.107C172.98 183.957 191.68 176.987 197.01 175.867C199.473 175.481 201.994 175.942 204.16 177.177C208.93 179.717 213.54 185.877 212.97 197.897Z" fill="white"/>
<path d="M184.39 231.337C182.896 231.391 181.409 231.122 180.028 230.549C178.647 229.976 177.407 229.112 176.39 228.017C173.21 224.487 171.69 218.127 171.85 209.097C172.36 180.657 195.85 175.397 196.85 175.187C199.472 174.77 202.157 175.253 204.47 176.557C208.18 178.557 214.32 183.937 213.65 197.927C213.08 209.777 201.15 226.227 193 229.397C190.27 230.556 187.353 231.213 184.39 231.337ZM198.6 176.407C198.103 176.404 197.607 176.454 197.12 176.557C196.12 176.757 173.68 181.777 173.19 209.127C173.04 217.787 174.44 223.827 177.37 227.077C181.49 231.627 187.97 229.837 192.47 228.077C200.18 225.077 211.7 208.947 212.23 197.847C212.86 184.637 207.23 179.607 203.79 177.787C202.194 176.92 200.415 176.447 198.6 176.407Z" fill="#231F20"/>
<path d="M212.97 197.897C212.43 209.147 200.86 225.597 192.77 228.737C187.82 230.657 181.2 232.297 176.89 227.547C181.66 228.057 188.76 226.327 196.5 216.007C206.86 202.187 207.69 187.137 204.16 177.177C208.93 179.717 213.54 185.877 212.97 197.897Z" fill="#231F20"/>
<path d="M184.39 231.337C182.896 231.391 181.408 231.122 180.028 230.549C178.647 229.976 177.407 229.112 176.39 228.017C176.293 227.912 176.231 227.78 176.212 227.639C176.192 227.498 176.216 227.354 176.28 227.227C176.346 227.101 176.448 226.999 176.573 226.931C176.697 226.863 176.839 226.834 176.98 226.847C181.44 227.327 188.34 225.757 195.98 215.587C206.54 201.507 206.81 186.637 203.54 177.417C203.491 177.283 203.484 177.138 203.52 177C203.556 176.863 203.633 176.739 203.74 176.647C203.848 176.556 203.981 176.499 204.121 176.483C204.262 176.467 204.404 176.492 204.53 176.557C208.24 178.557 214.38 183.937 213.71 197.927C213.14 209.777 201.21 226.227 193.06 229.397C190.311 230.563 187.374 231.22 184.39 231.337ZM178.79 228.337C182.88 231.267 188.48 229.667 192.51 228.107C200.22 225.107 211.74 208.977 212.27 197.877C212.81 186.547 208.74 181.237 205.4 178.807C208.13 188.427 207.27 202.807 197.06 216.447C190.07 225.747 183.54 228.187 178.79 228.317V228.337Z" fill="#231F20"/>
<path d="M57.05 192.497C57.05 192.497 60.2001 287.747 69.6001 294.937C79.0001 302.127 98.4 294.487 101.75 287.297C105.1 280.107 106.6 187.097 106.6 187.097L57.05 192.497Z" fill="white"/>
<path d="M79.42 298.557C75.7801 298.7 72.1935 297.647 69.21 295.557C65.13 292.447 61.73 274.137 59.11 241.137C57.16 216.687 56.36 192.817 56.35 192.577C56.344 192.399 56.4058 192.226 56.5228 192.092C56.6398 191.959 56.8032 191.874 56.98 191.857L106.5 186.467C106.599 186.456 106.7 186.466 106.794 186.497C106.889 186.528 106.976 186.579 107.05 186.647C107.124 186.713 107.183 186.795 107.223 186.886C107.263 186.978 107.282 187.077 107.28 187.177C107.22 190.977 105.79 280.417 102.42 287.657C100.53 291.727 94.04 295.837 86.63 297.657C84.2711 298.243 81.8506 298.545 79.42 298.557ZM57.78 193.117C57.92 197.117 58.78 218.807 60.5 240.967C63.9 283.697 67.95 292.777 70.06 294.387C73.76 297.207 79.68 297.887 86.29 296.247C93.21 294.547 99.46 290.657 101.15 287.007C103.73 281.467 105.35 220.217 105.86 187.887L57.78 193.117Z" fill="#231F20"/>
<path d="M90.87 268.187C111.2 246.607 172.52 250.907 172.52 250.907L178.82 280.107C178.82 280.107 127.59 304.187 101.82 303.677C89.14 303.427 78.4 281.417 90.87 268.187Z" fill="white"/>
<path d="M102.6 304.387H101.78C95.7 304.267 89.78 299.387 86.63 291.957C83.78 285.177 83.27 275.247 90.37 267.717C98.92 258.637 115.37 252.937 139.26 250.767C150.34 249.795 161.474 249.612 172.58 250.217C172.731 250.227 172.874 250.286 172.988 250.386C173.102 250.485 173.18 250.619 173.21 250.767L179.52 279.977C179.555 280.132 179.535 280.294 179.464 280.436C179.393 280.578 179.275 280.692 179.13 280.757C178.6 280.987 128.51 304.387 102.6 304.387ZM160.29 251.277C141.41 251.277 105.75 253.417 91.39 268.667C84.74 275.717 85.2401 285.037 87.9201 291.407C90.7801 298.217 96.3601 302.877 101.81 302.977C125.81 303.507 172.64 282.197 178.03 279.717L171.95 251.557C170.51 251.487 166.23 251.277 160.28 251.277H160.29Z" fill="#231F20"/>
<path d="M95.1803 294.157C95.0026 294.163 94.8292 294.102 94.6953 293.985C94.5614 293.868 94.4769 293.704 94.4591 293.528C94.4413 293.351 94.4914 293.174 94.5994 293.032C94.7073 292.891 94.8649 292.796 95.0403 292.767C95.6403 292.657 154.7 280.887 173.22 268.957C173.377 268.856 173.567 268.822 173.749 268.861C173.931 268.9 174.089 269.011 174.19 269.167C174.291 269.323 174.326 269.514 174.286 269.695C174.247 269.877 174.137 270.036 173.98 270.137C155.23 282.207 97.7503 293.667 95.3103 294.137L95.1803 294.157Z" fill="#D1D3D4"/>
<path d="M170.88 255.557C170.88 255.557 183.74 243.507 189.44 238.747C195.14 233.987 206.53 227.397 206.23 233.097C205.93 238.797 195.36 241.677 194.95 243.227C194.95 243.227 216.6 239.877 226.69 243.227C236.78 246.577 239.48 249.227 236.48 250.917C233.48 252.607 222.41 248.667 217.31 249.267C212.21 249.867 207.43 250.917 207.43 250.917C207.43 250.917 225.1 251.917 230.79 255.557C236.48 259.197 238.88 262.747 235.29 263.947C231.7 265.147 220.61 256.457 209.82 257.947C209.82 257.947 232.92 265.437 232.3 271.427C231.68 277.417 229.18 276.517 226.69 275.017C224.2 273.517 212.19 268.407 206.79 267.507C206.79 267.507 231.41 287.307 224.79 288.507C218.17 289.707 204.25 274.727 204.25 274.727C204.25 274.727 177.46 287.307 170.87 279.827C164.28 272.347 170.88 255.557 170.88 255.557Z" fill="#231F20"/>
<path d="M224.05 289.267C217.49 289.267 206.26 277.837 204.1 275.567C200.37 277.267 176.8 287.567 170.36 280.277C163.56 272.557 169.96 255.997 170.23 255.277C170.269 255.18 170.326 255.091 170.4 255.017C170.53 254.897 183.34 242.897 188.99 238.187C192.76 235.037 202.18 228.727 205.65 230.467C206.112 230.716 206.485 231.103 206.715 231.575C206.944 232.047 207.02 232.58 206.93 233.097C206.71 237.307 201.63 240.007 198.26 241.787L197.65 242.117C203.87 241.327 218.84 239.857 226.91 242.527C238.05 246.227 238.26 248.527 238.33 249.267C238.4 250.007 238.17 250.757 236.82 251.497C234.97 252.497 231.07 251.797 226.54 250.957C223.13 250.327 219.6 249.677 217.4 249.957C215.72 250.147 214.06 250.397 212.61 250.637C218.34 251.237 227.31 252.517 231.17 254.957C233.74 256.577 238 259.697 237.67 262.397C237.58 263.097 237.14 264.057 235.51 264.597C233.88 265.137 231.2 264.067 227.57 262.547C223.48 260.827 218.57 258.777 213.57 258.497C220.26 260.937 233.57 266.437 233.01 271.497C232.72 274.327 232.01 275.937 230.76 276.557C229.51 277.177 227.82 276.507 226.34 275.617C220.966 272.895 215.365 270.647 209.6 268.897C226.7 282.997 226.74 287.137 226.6 287.897C226.498 288.262 226.286 288.587 225.992 288.827C225.699 289.067 225.338 289.21 224.96 289.237C224.658 289.274 224.354 289.284 224.05 289.267ZM204.26 274.017C204.356 274.017 204.452 274.038 204.54 274.077C204.628 274.117 204.706 274.175 204.77 274.247C208.58 278.327 219.56 288.747 224.68 287.807C225.16 287.727 225.2 287.557 225.21 287.497C225.84 285.047 214.56 274.657 206.35 268.057C206.231 267.959 206.147 267.825 206.111 267.675C206.075 267.526 206.089 267.368 206.15 267.227C206.213 267.084 206.321 266.965 206.459 266.891C206.597 266.817 206.756 266.791 206.91 266.817C212.25 267.707 224.4 272.817 227.05 274.417C228.14 275.077 229.36 275.697 230.12 275.307C230.64 275.047 231.32 274.147 231.61 271.357C232.01 267.357 218.33 261.437 209.61 258.607C209.46 258.56 209.33 258.463 209.243 258.332C209.156 258.201 209.116 258.044 209.13 257.887C209.142 257.728 209.208 257.578 209.317 257.461C209.426 257.345 209.572 257.269 209.73 257.247C216.37 256.327 223.16 259.177 228.11 261.247C231.2 262.537 233.87 263.667 235.11 263.247C235.86 262.997 236.26 262.647 236.32 262.247C236.44 261.247 234.98 259.017 230.46 256.157C224.99 252.707 207.6 251.637 207.46 251.627C207.285 251.625 207.117 251.558 206.99 251.439C206.862 251.319 206.784 251.157 206.77 250.982C206.756 250.808 206.808 250.635 206.915 250.497C207.023 250.359 207.178 250.266 207.35 250.237C207.4 250.237 212.23 249.177 217.3 248.587C219.73 248.297 223.36 248.967 226.87 249.587C230.59 250.277 234.8 251.057 236.22 250.277C236.59 250.077 237.04 249.757 237.01 249.407C236.98 249.057 236.32 247.107 226.54 243.867C216.76 240.627 195.34 243.867 195.13 243.867C195.015 243.882 194.898 243.87 194.789 243.832C194.679 243.794 194.58 243.731 194.5 243.647C194.425 243.558 194.372 243.453 194.346 243.34C194.32 243.227 194.322 243.11 194.35 242.997C194.55 242.227 195.51 241.687 197.68 240.537C200.76 238.897 205.42 236.427 205.6 233.007C205.65 232.007 205.25 231.777 205.09 231.697C202.95 230.617 195.2 234.867 189.96 239.237C184.72 243.607 172.86 254.687 171.55 255.907C170.94 257.547 165.55 272.587 171.48 279.307C173.98 282.147 180.35 282.167 189.9 279.367C194.724 277.912 199.444 276.135 204.03 274.047C204.105 274.026 204.182 274.016 204.26 274.017Z" fill="#231F20"/>
<path d="M195.15 33.8867C195.15 33.8867 199.04 71.3267 198.15 91.0967C197.26 110.867 189.47 117.157 172.99 120.457C156.51 123.757 130.45 109.367 115.78 90.4567C101.11 71.5467 99.3499 61.6967 104.27 33.8467L195.15 33.8867Z" fill="white"/>
<path d="M168.11 121.607C151.9 121.607 128.97 108.607 115.21 90.927C100.6 72.197 98.6001 62.037 103.6 33.757C103.63 33.5964 103.716 33.4515 103.842 33.3473C103.968 33.2432 104.127 33.1865 104.29 33.187H195.18C195.352 33.1861 195.517 33.2491 195.645 33.3638C195.772 33.4784 195.853 33.6364 195.87 33.807C195.87 34.187 199.76 71.537 198.87 91.127C197.87 112.227 189.09 117.947 173.15 121.127C171.49 121.455 169.802 121.616 168.11 121.607ZM104.84 34.607C100.01 62.247 102 71.677 116.32 90.087C131.32 109.317 157.16 122.927 172.84 119.787C188.09 116.737 196.53 111.257 197.44 91.087C198.27 72.987 195.02 39.587 194.51 34.607H104.84Z" fill="#231F20"/>
<path d="M104.26 33.8869C104.26 33.8869 107.38 46.7669 139.13 48.8869C170.88 51.0069 195.13 42.5969 195.13 33.8869C195.13 25.1769 172.6 17.1069 149.7 16.5569C126.8 16.0069 105.6 25.7869 104.26 33.8869Z" fill="white"/>
<path d="M149.16 49.8967C145.94 49.8967 142.57 49.7867 139.08 49.5567C107.19 47.4467 103.71 34.5567 103.57 34.0467C103.55 33.9544 103.55 33.859 103.57 33.7667C104.95 25.1767 126.57 15.2067 149.72 15.7667C171.49 16.3367 195.85 24.1867 195.85 33.8467C195.85 35.6967 194.9 37.5267 193.03 39.2867C187.23 44.7467 171.46 49.8967 149.16 49.8967ZM104.97 33.8367C105.18 34.4467 106.29 37.1967 110.34 40.1267C114.61 43.2067 123.08 47.1267 139.18 48.1267C165.18 49.8467 185.45 44.4667 192.07 38.2667C192.749 37.7356 193.312 37.0696 193.721 36.3107C194.131 35.5517 194.379 34.7162 194.45 33.8567C194.45 25.8567 172.69 17.7867 149.68 17.1767C127.68 16.6067 106.49 25.9867 104.97 33.8367Z" fill="#231F20"/>
<path d="M121.29 89.6866C126.59 91.7666 139.06 92.2966 137.29 75.4466C135.52 58.5966 128.89 49.2866 117.44 49.2666C105.99 49.2466 105.84 62.8666 107.18 68.2666C108.52 73.6666 109.85 85.2166 121.29 89.6866Z" fill="#231F20"/>
<path d="M126.92 91.4168C124.909 91.4137 122.914 91.0514 121.03 90.3468C110.46 86.2068 108.24 76.2568 106.91 70.3468C106.76 69.6568 106.62 69.0268 106.47 68.4668C105.47 64.5368 105.33 57.0268 108.92 52.4668C109.921 51.2003 111.21 50.1911 112.68 49.5232C114.15 48.8553 115.758 48.548 117.37 48.6268C128.94 48.6268 136.05 57.9168 137.92 75.4268C138.62 82.0668 137.25 86.7468 133.85 89.3468C131.829 90.7774 129.394 91.5047 126.92 91.4168ZM121.54 89.0368C124.09 90.0368 129.37 90.9668 133.04 88.1768C136.04 85.8868 137.22 81.6368 136.56 75.5168C134.76 58.5868 128.31 49.9868 117.4 49.9668C116.001 49.8936 114.604 50.1547 113.326 50.7285C112.048 51.3024 110.925 52.1725 110.05 53.2668C106.8 57.4168 106.98 64.5568 107.86 68.0868C108.01 68.6568 108.15 69.3068 108.31 69.9968C109.57 75.6768 111.69 85.1768 121.57 88.9968L121.54 89.0368Z" fill="#231F20"/>
<path d="M130.74 79.5566C130.385 80.4788 129.812 81.3014 129.07 81.9543C128.328 82.6073 127.44 83.0712 126.48 83.3066C118.83 85.2066 114.01 76.1166 112.66 71.5166C111.31 66.9166 112.1 55.0966 118.85 55.9866C119.737 55.997 120.61 56.2127 121.4 56.6166C123.845 57.8042 125.94 59.6063 127.48 61.8466C130.91 66.3366 132.86 74.6266 130.74 79.5566Z" fill="white"/>
<path d="M124.47 84.2667C118.07 84.2667 113.57 77.0867 111.98 71.7167C111.04 68.4767 110.98 60.8367 114.11 57.1567C114.68 56.4642 115.417 55.9289 116.252 55.6017C117.087 55.2744 117.991 55.1659 118.88 55.2867C119.853 55.3038 120.81 55.5396 121.68 55.9767C124.229 57.2221 126.419 59.098 128.04 61.4267C131.45 65.8767 133.66 74.5367 131.38 79.8367C130.978 80.8547 130.34 81.7623 129.517 82.4841C128.695 83.2059 127.712 83.721 126.65 83.9867C125.938 84.17 125.205 84.2641 124.47 84.2667ZM118.13 56.6367C117.562 56.6368 117.002 56.7656 116.491 57.0132C115.98 57.2609 115.532 57.621 115.18 58.0667C112.61 61.0667 112.37 68.0667 113.33 71.3267C114.44 75.0867 118.93 84.4567 126.33 82.6367C127.183 82.4232 127.972 82.0072 128.63 81.4241C129.288 80.8409 129.796 80.1077 130.11 79.2867C132.2 74.4267 130.11 66.4267 126.94 62.2867C125.455 60.1611 123.461 58.442 121.14 57.2867C120.449 56.9403 119.692 56.7459 118.92 56.7167H118.78C118.565 56.6749 118.348 56.6482 118.13 56.6367Z" fill="#231F20"/>
<path d="M104.26 33.8869C104.26 33.8869 108.69 5.88693 135.05 1.73693C157.87 -1.89307 187.21 8.73694 195.15 33.8869C195.15 33.8869 198.15 50.9569 152.31 50.6569C106.47 50.3569 104.26 33.8869 104.26 33.8869Z" fill="#231F20"/>
<path d="M153.48 51.3568H152.31C106.4 51.0568 103.66 34.6768 103.56 33.9768C103.55 33.9105 103.55 33.8431 103.56 33.7768C103.56 33.4868 108.39 5.26684 134.94 1.04684C158.62 -2.72316 187.87 8.44684 195.81 33.6668C195.86 33.9068 196.41 37.2968 193.21 41.0868C189.22 45.7968 179.1 51.3568 153.48 51.3568ZM104.97 33.8768C105.27 35.1668 109.6 49.6768 152.32 49.9568H153.5C178.5 49.9568 188.27 44.6968 192.09 40.2368C194.9 36.9568 194.47 34.1168 194.46 33.9968C188.46 14.8468 164.57 -2.25316 135.16 2.42684C110.48 6.34684 105.32 31.9168 104.97 33.8768Z" fill="#231F20"/>
<path d="M84.07 214.627C104.698 214.627 121.42 197.905 121.42 177.277C121.42 156.649 104.698 139.927 84.07 139.927C63.4421 139.927 46.72 156.649 46.72 177.277C46.72 197.905 63.4421 214.627 84.07 214.627Z" fill="#231F20"/>
<path d="M84.07 215.327C76.5423 215.327 69.1837 213.094 62.9254 208.911C56.667 204.728 51.7901 198.782 48.9116 191.827C46.0332 184.871 45.2826 177.218 46.7548 169.835C48.227 162.453 51.8559 155.673 57.1823 150.354C62.5087 145.035 69.2933 141.415 76.6775 139.952C84.0618 138.49 91.7139 139.25 98.6658 142.138C105.618 145.025 111.557 149.91 115.732 156.174C119.907 162.438 122.13 169.799 122.12 177.327C122.096 187.407 118.078 197.066 110.946 204.188C103.814 211.311 94.1496 215.316 84.07 215.327ZM84.07 140.627C76.8213 140.627 69.7354 142.777 63.7084 146.804C57.6813 150.831 52.9838 156.555 50.2098 163.252C47.4359 169.949 46.7101 177.318 48.1242 184.427C49.5384 191.537 53.0289 198.067 58.1545 203.193C63.2801 208.318 69.8106 211.809 76.92 213.223C84.0294 214.637 91.3984 213.911 98.0954 211.137C104.792 208.363 110.516 203.666 114.543 197.639C118.571 191.612 120.72 184.526 120.72 177.277C120.709 167.56 116.845 158.244 109.974 151.373C103.103 144.502 93.7869 140.638 84.07 140.627Z" fill="#231F20"/>
<path d="M173.04 80.8168C175.056 80.8168 176.69 78.341 176.69 75.2868C176.69 72.2327 175.056 69.7568 173.04 69.7568C171.024 69.7568 169.39 72.2327 169.39 75.2868C169.39 78.341 171.024 80.8168 173.04 80.8168Z" fill="#231F20"/>
<path d="M189.33 71.517C191.346 71.517 192.98 69.0412 192.98 65.987C192.98 62.9329 191.346 60.457 189.33 60.457C187.314 60.457 185.68 62.9329 185.68 65.987C185.68 69.0412 187.314 71.517 189.33 71.517Z" fill="#231F20"/>
<path d="M131.6 83.4567C131.497 83.4579 131.395 83.4361 131.302 83.3929C131.208 83.3496 131.126 83.286 131.06 83.2067L111.6 59.6967C111.539 59.6257 111.493 59.5432 111.464 59.454C111.436 59.3649 111.425 59.2709 111.434 59.1777C111.442 59.0844 111.469 58.9938 111.513 58.9112C111.557 58.8286 111.617 58.7557 111.69 58.6967C111.835 58.576 112.021 58.5177 112.209 58.5346C112.396 58.5515 112.569 58.6422 112.69 58.7867L132.2 82.3067C132.287 82.4079 132.343 82.5322 132.361 82.6646C132.379 82.7969 132.358 82.9316 132.301 83.0523C132.244 83.173 132.153 83.2745 132.039 83.3445C131.925 83.4145 131.794 83.45 131.66 83.4467L131.6 83.4567Z" fill="#231F20"/>
<path d="M302.48 165.207C302.48 165.207 297.56 165.887 288.79 164.467C280.02 163.047 275.54 157.877 275.32 147.767C275.1 137.657 272.17 124.417 275.32 120.927C278.47 117.437 291.49 109.127 292.16 113.167C292.83 117.207 283.85 122.537 283.4 125.167C282.95 127.797 286.32 129.797 286.1 135.417C286.1 135.417 291 110.027 302.48 107.337C313.96 104.647 315.08 110.707 312.16 112.727C309.24 114.747 304.03 115.197 302.48 117.667C300.93 120.137 299.8 129.797 299.8 129.797C299.8 129.797 311.71 110.927 319.12 115.197C326.53 119.467 326.76 124.857 323.17 124.197C319.58 123.537 315.53 122.467 313.28 125.687C311.03 128.907 307.89 134.077 307.89 134.077C307.89 134.077 321.41 125.987 325.43 128.017C329.45 130.047 333.05 136.407 328.11 136.017C323.17 135.627 318.45 135.417 316.2 137.887C313.95 140.357 313.28 145.527 311.49 150.887C309.7 156.247 308.96 165.137 302.48 165.207Z" fill="#231F20"/>
<path d="M299.08 166.077C295.594 166.049 292.116 165.742 288.68 165.157C279.44 163.657 274.84 157.967 274.62 147.777C274.54 144.587 274.2 141.047 273.87 137.637C273.1 129.817 272.45 123.067 274.8 120.457C277.56 117.387 287.88 110.457 291.48 111.457C291.838 111.549 292.16 111.746 292.406 112.022C292.652 112.298 292.81 112.641 292.86 113.007C293.32 115.777 290.19 118.747 287.44 121.357C285.86 122.847 284.24 124.357 284.09 125.227C284.067 126.297 284.382 127.347 284.99 128.227C285.528 129.231 285.973 130.282 286.32 131.367C288.22 124.027 293.23 108.777 302.32 106.647C311.26 104.537 313.47 107.777 313.93 108.817C314.256 109.607 314.297 110.485 314.047 111.302C313.797 112.119 313.272 112.824 312.56 113.297C311.118 114.157 309.572 114.83 307.96 115.297C305.84 116.047 303.84 116.747 303.07 117.977C302.19 119.387 301.39 123.647 300.9 126.877C304.54 121.757 313.24 110.937 319.47 114.527C324.77 117.587 326.75 121.327 325.97 123.447C325.744 124.002 325.316 124.451 324.773 124.703C324.229 124.956 323.61 124.993 323.04 124.807L322.28 124.667C319.04 124.047 315.69 123.387 313.86 126.017C312.6 127.827 311.04 130.267 309.93 132.017C314.14 129.707 322.45 125.637 325.75 127.287C328.66 128.747 331.75 132.697 331.12 135.037C330.94 135.707 330.31 136.787 328.06 136.627C323.06 136.237 318.69 136.107 316.72 138.267C315.3 139.837 314.52 142.717 313.61 146.047C313.18 147.667 312.72 149.327 312.15 151.047C311.8 152.047 311.5 153.257 311.15 154.497C309.84 159.497 308.22 165.737 302.51 165.827C301.373 165.978 300.227 166.061 299.08 166.077ZM290.58 112.777C287.43 112.777 278.58 118.347 275.83 121.397C273.9 123.537 274.59 130.637 275.26 137.497C275.6 140.937 275.94 144.497 276.02 147.747C276.23 157.287 280.32 162.377 288.91 163.747C297.5 165.117 302.33 164.487 302.38 164.487H302.47C307.14 164.487 308.47 159.237 309.82 154.207C310.15 152.947 310.46 151.757 310.82 150.667C311.38 148.987 311.82 147.337 312.26 145.747C313.21 142.237 314.04 139.207 315.69 137.387C318.08 134.757 322.75 134.877 328.16 135.287C329.1 135.367 329.65 135.177 329.77 134.727C330.15 133.347 327.77 129.957 325.12 128.597C322.12 127.077 311.92 132.447 308.25 134.597C308.118 134.678 307.962 134.713 307.808 134.695C307.653 134.677 307.51 134.607 307.4 134.497C307.289 134.386 307.218 134.241 307.198 134.086C307.179 133.93 307.211 133.772 307.29 133.637C307.29 133.637 310.48 128.417 312.71 125.207C315.06 121.837 319.04 122.597 322.55 123.287L323.3 123.427C323.8 123.527 324.45 123.517 324.66 122.957C325.13 121.677 323.58 118.507 318.77 115.737C313.17 112.497 303.61 125.017 300.4 130.107C300.312 130.239 300.183 130.339 300.034 130.391C299.884 130.443 299.721 130.445 299.57 130.397C299.419 130.343 299.291 130.24 299.207 130.103C299.124 129.967 299.089 129.806 299.11 129.647C299.16 129.247 300.27 119.807 301.89 117.227C302.89 115.577 305.14 114.797 307.5 113.967C308.995 113.521 310.426 112.886 311.76 112.077C312.209 111.798 312.545 111.368 312.708 110.865C312.871 110.361 312.85 109.817 312.65 109.327C311.93 107.687 308.92 106.477 302.65 107.947C291.73 110.557 286.83 135.297 286.79 135.557C286.754 135.73 286.656 135.884 286.514 135.989C286.372 136.094 286.196 136.143 286.02 136.127C285.843 136.107 285.681 136.02 285.566 135.885C285.45 135.749 285.391 135.575 285.4 135.397C285.478 133.113 284.902 130.855 283.74 128.887C283.06 127.557 282.48 126.417 282.74 125.057C283 123.697 284.53 122.277 286.5 120.397C288.88 118.147 291.84 115.337 291.5 113.297C291.495 113.192 291.455 113.091 291.386 113.011C291.317 112.931 291.223 112.877 291.12 112.857C290.951 112.808 290.776 112.781 290.6 112.777H290.58Z" fill="#231F20"/>
<path d="M43.0999 248.817V179.557C43.0999 179.557 81.8199 205.137 139.68 199.437V266.937C139.68 266.937 101.79 278.487 43.0999 248.817Z" fill="white"/>
<path d="M119.52 269.797C102.52 269.797 75.8599 266.157 42.7899 249.437C42.674 249.38 42.5762 249.292 42.5073 249.182C42.4385 249.073 42.4013 248.947 42.3999 248.817V179.557C42.4015 179.431 42.4366 179.306 42.5016 179.198C42.5665 179.089 42.6591 178.999 42.7699 178.937C42.8783 178.871 43.0029 178.836 43.1299 178.836C43.2569 178.836 43.3815 178.871 43.4899 178.937C43.8799 179.187 82.6799 204.307 139.62 198.697C139.716 198.69 139.812 198.703 139.903 198.734C139.994 198.765 140.078 198.813 140.15 198.877C140.223 198.942 140.282 199.022 140.322 199.112C140.362 199.202 140.381 199.299 140.38 199.397V266.897C140.38 267.047 140.333 267.192 140.245 267.313C140.157 267.433 140.032 267.522 139.89 267.567C139.72 267.687 132.44 269.797 119.52 269.797ZM43.7999 248.387C97.7399 275.527 134.34 267.617 138.98 266.437V200.237C87.2499 205.087 50.4699 184.837 43.7999 180.837V248.387Z" fill="#231F20"/>
<path d="M223.3 208.717V109.787C223.3 109.787 310.44 106.507 346.47 71.1372V173.337C346.47 173.337 310.44 202.157 223.3 208.717Z" fill="#31D571"/>
<path d="M223.3 209.417C223.114 209.417 222.936 209.343 222.805 209.212C222.674 209.081 222.6 208.903 222.6 208.717V109.787C222.6 109.607 222.669 109.433 222.794 109.302C222.919 109.172 223.089 109.095 223.27 109.087C224.14 109.087 310.55 105.417 345.98 70.6371C346.078 70.5406 346.203 70.4753 346.338 70.4495C346.474 70.4236 346.614 70.4383 346.741 70.4917C346.868 70.5451 346.977 70.6348 347.053 70.7496C347.129 70.8645 347.17 70.9993 347.17 71.1371V173.337C347.168 173.442 347.144 173.545 347.099 173.64C347.054 173.735 346.99 173.819 346.91 173.887C346.54 174.177 309.71 202.887 223.35 209.407L223.3 209.417ZM224 110.417V207.917C305.53 201.647 342.34 175.507 345.77 172.917V72.7671C310.99 105.257 232.13 110.047 224 110.457V110.417Z" fill="#231F20"/>
<path d="M180.84 326.017V263.487C180.84 263.487 240.89 263.037 283.76 230.877V295.197C283.76 295.197 244.52 327.797 180.84 326.017Z" fill="white"/>
<path d="M185.82 326.787C184.17 326.787 182.51 326.787 180.82 326.717C180.638 326.712 180.465 326.636 180.338 326.505C180.211 326.374 180.14 326.199 180.14 326.017V263.487C180.14 263.301 180.214 263.123 180.345 262.992C180.476 262.861 180.654 262.787 180.84 262.787C181.44 262.787 241.15 261.967 283.34 230.317C283.447 230.242 283.572 230.197 283.702 230.186C283.832 230.175 283.962 230.2 284.08 230.257C284.193 230.317 284.288 230.406 284.355 230.515C284.422 230.624 284.458 230.749 284.46 230.877V295.197C284.461 295.3 284.439 295.402 284.396 295.495C284.353 295.589 284.289 295.671 284.21 295.737C283.83 296.057 246.12 326.787 185.82 326.787ZM181.54 325.337C241.2 326.827 279.6 297.557 283.06 294.857V232.267C243.06 261.557 188.33 263.987 181.54 264.167V325.337Z" fill="#231F20"/>
</svg>
