<svg width="432" height="293" viewBox="0 0 432 293" fill="none" xmlns="http://www.w3.org/2000/svg">
<path d="M371.9 209.656C371.9 209.656 391.6 94.2564 375.1 77.8564C358.6 61.4564 282.8 58.4564 265.9 62.8564C249 67.2564 235.9 184.056 235.9 184.056L371.9 209.656Z" fill="#231F20"/>
<path d="M371.9 210.357H371.8L235.8 184.857C235.4 184.757 235.2 184.457 235.2 184.057C235.7 179.257 248.4 66.6566 265.7 62.2566C281.5 58.1566 358.3 60.4566 375.6 77.4566C392.2 93.8566 373.5 205.157 372.6 209.857C372.6 210.057 372.5 210.157 372.3 210.357C372.2 210.257 372 210.357 371.9 210.357ZM236.7 183.557L371.4 208.857C373 199.157 390.1 93.6566 374.6 78.3566C367.6 71.4566 347.9 65.9566 320.6 63.2566C298.8 61.1566 274.8 61.2566 266.1 63.5566C261.5 64.7566 254.1 76.4566 245.3 125.257C240.3 152.257 237.2 179.057 236.7 183.557Z" fill="#231F20"/>
<path d="M351.699 125.557C351.199 125.557 351 125.157 351 124.757C353.8 92.2566 364.9 80.6566 365.4 80.1566C365.6 79.8566 366.1 79.7566 366.4 79.9566C366.7 80.1566 366.8 80.6566 366.6 80.9566C366.5 81.0566 366.5 81.0566 366.4 81.1566C366.3 81.2566 355.2 92.9566 352.4 124.857C352.3 125.257 351.999 125.557 351.699 125.557Z" fill="white"/>
<path d="M340.3 82.8563C346.9 106.956 331.3 220.456 331.3 220.456L240.1 184.756C240.1 184.756 258.8 162.256 236.4 115.056C227.2 95.7563 236.7 85.6563 243 80.2563C248.5 75.7563 333.7 58.6563 340.3 82.8563Z" fill="#E4A724"/>
<path d="M226.6 291.856L423.4 245.956V214.256L226.6 234.456V291.856Z" fill="white"/>
<path d="M226.6 292.556C226.4 292.556 226.3 292.456 226.2 292.456C226 292.356 225.9 292.156 225.9 291.856V234.456C225.9 234.056 226.2 233.756 226.5 233.756L423.4 213.556C423.6 213.556 423.8 213.556 424 213.756C424.2 213.856 424.2 214.056 424.2 214.256V245.956C424.2 246.256 424 246.556 423.6 246.656L226.7 292.556H226.6ZM227.3 235.156V290.956L422.7 245.456V215.156L227.3 235.156Z" fill="#231F20"/>
<path d="M10.7 182.156V216.756L226.6 291.856V223.056L10.7 182.156Z" fill="white"/>
<path d="M226.6 292.556C226.5 292.556 226.4 292.556 226.4 292.556L10.5 217.456C10.2 217.356 10 217.056 10 216.756V182.156C10 181.956 10.1 181.756 10.3 181.556C10.5 181.456 10.7 181.356 10.9 181.456L226.8 222.356C227.1 222.456 227.4 222.756 227.4 223.056V291.856C227.4 292.056 227.3 292.356 227.1 292.456C226.9 292.556 226.7 292.556 226.6 292.556ZM11.4 216.256L225.9 290.856V223.656L11.4 183.056V216.256Z" fill="#231F20"/>
<path d="M430.5 208.656V220.456L227.9 262.656L1.29993 185.056V175.656L430.5 208.656Z" fill="white"/>
<path d="M227.9 263.356C227.8 263.356 227.7 263.356 227.7 263.356L1.09998 185.756C0.799976 185.656 0.599976 185.356 0.599976 185.056V175.656C0.599976 175.456 0.699976 175.256 0.799976 175.156C0.899976 175.056 1.09998 174.956 1.29998 174.956L430.4 207.956C430.8 207.956 431 208.256 431 208.656V220.456C431 220.756 430.8 221.056 430.5 221.156L227.9 263.256V263.356ZM1.99997 184.556L227.9 261.856L429.8 219.856V209.256L1.99997 176.356V184.556Z" fill="#231F20"/>
<path d="M148.9 149.756L430.5 208.656L227.9 247.656L1.29993 175.656L148.9 149.756Z" fill="white"/>
<path d="M227.9 248.356C227.8 248.356 227.8 248.356 227.7 248.356L1.19992 176.356C0.799922 176.256 0.599922 175.856 0.699922 175.456C0.799922 175.156 0.999924 174.956 1.29992 174.956L148.9 149.056C149 149.056 149.1 149.056 149.2 149.056L430.8 207.956C431.1 208.056 431.4 208.356 431.4 208.656C431.4 208.956 431.1 209.256 430.8 209.356L228.2 248.356H227.9ZM4.39992 175.856L227.9 246.856L426.8 208.556L148.9 150.456L4.39992 175.856Z" fill="#231F20"/>
<path d="M227.9 263.356C227.5 263.356 227.2 263.056 227.2 262.656V247.656C227.2 247.256 227.5 246.956 227.9 246.956C228.3 246.956 228.6 247.256 228.6 247.656V262.656C228.6 263.056 228.3 263.356 227.9 263.356Z" fill="#231F20"/>
<path d="M240.2 190.756C240.2 190.756 171.6 169.156 170.4 169.156C169.2 169.156 82.5 184.056 82.5 184.056L154.5 208.656L240.2 190.756Z" fill="white"/>
<path d="M154.6 209.357C154.5 209.357 154.4 209.357 154.4 209.357L82.4 184.757C82 184.657 81.8 184.257 81.9 183.857C82 183.557 82.2 183.357 82.5 183.357C91.4 181.857 169.3 168.457 170.5 168.457C171.7 168.457 224.4 185.057 240.5 190.157C240.9 190.257 241.1 190.657 241 191.057C240.9 191.257 240.7 191.457 240.5 191.557L154.8 209.457C154.7 209.357 154.6 209.357 154.6 209.357ZM85.5 184.257L154.6 207.857L237.4 190.557C217.1 184.157 172.1 170.057 170.4 169.757C169 169.957 115.8 179.057 85.5 184.257Z" fill="#231F20"/>
<path d="M144.9 199.756C144.8 199.756 144.7 199.756 144.6 199.656L106.4 182.456C106.1 182.356 106 182.056 106 181.756C106 181.456 106.3 181.256 106.6 181.156L151.2 174.856C151.3 174.856 151.4 174.856 151.6 174.856L191.3 191.756C191.6 191.856 191.8 192.156 191.7 192.456C191.7 192.756 191.4 193.056 191.1 193.056L144.9 199.756ZM109.2 182.256L145 198.356L188.5 192.156L151.3 176.356L109.2 182.256Z" fill="#D1D3D4"/>
<path d="M154.6 208.656L240.6 198.456L240.3 190.756L154.6 202.256V208.656Z" fill="white"/>
<path d="M154.6 209.356C154.4 209.356 154.3 209.256 154.1 209.156C154 209.056 153.9 208.856 153.9 208.656V202.256C153.9 201.856 154.2 201.556 154.5 201.556L240.2 190.056C240.4 190.056 240.6 190.056 240.8 190.256C241 190.356 241 190.556 241.1 190.756L241.5 198.456C241.5 198.856 241.2 199.156 240.9 199.256L154.8 209.356H154.6ZM155.3 202.856V207.856L239.9 197.856L239.6 191.556L155.3 202.856Z" fill="#231F20"/>
<path d="M154.6 208.656L138.8 94.0564L66.2999 90.3564L82.5999 183.956L154.6 208.656Z" fill="white"/>
<path d="M154.6 209.356C154.5 209.356 154.4 209.356 154.4 209.356L82.4 184.756C82.1 184.656 82 184.456 81.9 184.156L65.6 90.5563C65.6 90.3563 65.6 90.1563 65.8 89.9563C65.9 89.7563 66.2 89.7563 66.4 89.7563L139 93.4563C139.3 93.4563 139.6 93.7563 139.7 94.0563L155.5 208.556C155.5 208.856 155.4 209.056 155.2 209.256C154.9 209.256 154.8 209.356 154.6 209.356ZM83.2 183.456L153.7 207.556L138.2 94.7563L67.2 91.1563L83.2 183.456Z" fill="#231F20"/>
<path d="M192 188.056C191.9 188.056 191.8 188.056 191.8 188.056L167.9 179.656C167.6 179.556 167.4 179.256 167.4 178.956C167.4 178.656 167.7 178.356 168 178.356L181.6 176.256C181.7 176.256 181.8 176.256 181.9 176.256L206.2 185.156C206.5 185.256 206.7 185.556 206.6 185.856C206.6 186.156 206.3 186.456 206 186.456L192 188.056ZM171 179.256L192.1 186.656L203 185.456L181.7 177.656L171 179.256Z" fill="#D1D3D4"/>
<path d="M192.1 76.2565C192.1 76.2565 193.2 60.1565 192.1 55.6565C191 51.1565 184.7 40.4565 182.6 41.2565C180.5 42.0565 180.2 45.1565 182.6 49.3565C182.6 49.3565 169.2 38.4565 164.1 38.6565C159 38.8565 156.1 45.4565 156.9 48.5565C157.7 51.6565 169.5 57.1565 170.3 59.8565C171.1 62.5565 173.2 80.6565 173.2 80.6565" fill="white"/>
<path d="M173.2 81.3564C172.8 81.3564 172.6 81.0564 172.5 80.7564C172.5 80.5564 170.4 62.6564 169.6 60.0564C169.3 59.0564 166.2 56.9564 163.7 55.3564C160.1 52.9564 156.7 50.7564 156.2 48.7564C155.7 46.7564 156.5 43.6564 158.2 41.3564C159.5 39.4564 161.7 38.1564 164 38.0564C168.1 37.9564 176.6 44.0564 180.7 47.1564C180.1 45.7564 180 44.0564 180.4 42.5564C180.7 41.6564 181.4 40.9564 182.3 40.6564C182.8 40.4564 183.3 40.5564 183.7 40.8564C186.6 42.3564 191.8 51.7564 192.7 55.6564C193.8 60.1564 192.8 75.7564 192.7 76.4564C192.7 76.8564 192.3 77.1564 192 77.0564C191.6 77.0564 191.3 76.6564 191.3 76.3564C191.3 76.1564 192.3 60.3564 191.3 55.9564C190.2 51.1564 184.2 41.8564 182.7 42.0564C182.2 42.2564 181.9 42.6564 181.7 43.1564C181.2 44.5564 181.7 46.7564 183.1 49.2564C183.3 49.5564 183.2 50.0564 182.8 50.2564C182.5 50.3564 182.2 50.3564 182 50.1564C178.3 47.1564 168 39.4564 163.9 39.5564C162 39.7564 160.2 40.7564 159.1 42.3564C157.7 44.2564 156.9 46.9564 157.3 48.6564C157.7 50.0564 161.3 52.4564 164.2 54.3564C168 56.8564 170.3 58.4564 170.7 59.8564C171.5 62.5564 173.5 80.0564 173.6 80.7564C173.9 80.9564 173.6 81.3564 173.2 81.3564Z" fill="#231F20"/>
<path d="M341.9 99.1566L346.9 139.657C349.9 164.157 352 187.657 342.5 193.557C333 199.457 251.5 199.657 251.5 199.657C251.5 199.657 254.1 188.857 252.6 178.657C252.6 178.657 319.8 169.057 319.1 162.357C318.4 155.657 297.1 109.957 296.7 99.2566C296.3 88.5566 328.9 91.4566 341.9 99.1566Z" fill="#E4A724"/>
<path d="M243.1 80.2563C243.1 80.2563 198.1 116.856 198.4 109.956C198.6 106.356 197.6 70.1562 197.6 70.1562L169.5 71.3562C169.5 71.3562 158.4 130.656 168.1 145.256C180.4 163.756 198.1 157.756 221.8 143.956C252.1 126.256 259.6 118.856 259.6 118.856L243.1 80.2563Z" fill="#E4A724"/>
<path d="M252.6 178.756C252.6 178.756 238.6 179.356 236.7 176.656C234.8 173.956 231.8 170.756 230 170.456C228.2 170.156 206.3 172.656 207.5 174.956C208.7 177.256 218.3 175.256 218.3 175.256C218.3 175.256 210.1 177.356 210.4 180.156C210.7 182.956 212.7 182.556 215.8 181.556C218.9 180.556 226.5 178.656 226.5 178.656C226.5 178.656 214.9 184.056 214.7 186.856C214.5 189.656 220.1 188.256 228 183.956C228 183.956 218.8 189.756 221.6 191.456C224.5 193.156 231.2 189.656 231.2 189.656C231.2 189.656 234.4 194.756 238.6 196.056C242.8 197.356 251.8 197.256 251.8 197.256C251.8 197.256 256.3 187.756 252.6 178.756Z" fill="white"/>
<path d="M251.5 197.856C249.5 197.856 242.4 197.756 238.6 196.656C234.8 195.556 232.1 191.956 231.1 190.556C229.3 191.456 224.1 193.656 221.4 192.056C220.9 191.756 220.5 191.156 220.5 190.556C220.7 189.356 221.4 188.256 222.3 187.456C219.3 188.656 216.3 189.456 214.9 188.556C214.3 188.156 214 187.456 214.1 186.756C214.2 184.956 217.4 182.756 220.6 180.856C218.9 181.356 217.2 181.756 216.1 182.156C214 182.856 212.2 183.356 211 182.556C210.2 181.956 209.8 181.156 209.7 180.156C209.5 178.756 210.7 177.656 212.3 176.756C209.9 176.856 207.5 176.556 206.8 175.256C206.6 174.856 206.6 174.356 206.9 174.056C208.7 171.456 228.3 169.456 230 169.756C232.3 170.156 235.7 174.256 237.1 176.256C238.2 177.856 246.7 178.256 252.3 178.056C252.6 178.056 252.9 178.256 253 178.556C256.8 187.756 252.6 197.156 252.4 197.556C252.3 197.856 252 197.956 251.8 197.956L251.5 197.856ZM231.4 188.856C231.6 188.856 231.9 188.956 232 189.156C232 189.156 235.1 194.056 239 195.256C242.6 196.356 249.6 196.356 251.5 196.356C252.2 194.456 254.9 186.856 252 179.456C248.7 179.556 237.9 179.756 236 177.056C233.8 173.956 231.1 171.356 229.8 171.056C227.6 170.656 210.2 173.056 208.2 174.656C209.2 175.556 214 175.256 218.1 174.456C218.5 174.356 218.9 174.656 218.9 174.956C219 175.356 218.8 175.756 218.4 175.856C215.3 176.656 210.9 178.456 211.1 179.856C211.1 180.356 211.3 180.856 211.7 181.256C212.4 181.656 214.1 181.256 215.6 180.756C218.7 179.756 226.1 177.956 226.4 177.856C226.8 177.756 227.2 177.956 227.3 178.256C227.4 178.656 227.2 179.056 226.9 179.156C221.5 181.656 215.6 185.256 215.5 186.756C215.5 187.156 215.6 187.256 215.7 187.256C216.5 187.756 219.9 187.456 227.8 183.156C228.2 182.956 228.6 183.056 228.8 183.456C229 183.756 228.9 184.256 228.6 184.456C225.4 186.456 222 189.356 222 190.456C222 190.556 222 190.556 222.2 190.756C224.2 191.956 229.3 189.856 231.1 188.856C231.2 188.856 231.3 188.856 231.4 188.856Z" fill="#231F20"/>
<path d="M263.1 177.856C262.7 177.856 262.4 177.556 262.4 177.156C262.4 176.756 262.7 176.456 263 176.456L317.8 166.956C314.2 157.456 311.2 147.756 308.7 137.956C303.2 115.856 302.3 99.1562 306.2 88.0562C306.3 87.6562 306.7 87.4562 307.1 87.5562C307.5 87.6562 307.7 88.0563 307.6 88.4563C307.6 88.4563 307.6 88.4562 307.6 88.5562C298.6 114.256 319.3 166.756 319.5 167.256C319.7 167.656 319.5 168.056 319.1 168.156C319 168.156 319 168.156 318.9 168.256L263.2 177.956L263.1 177.856Z" fill="#231F20"/>
<path d="M247.4 155.456C247 155.456 246.7 155.157 246.7 154.757C246.2 144.657 243.5 136.657 241.1 129.757C239.5 124.957 238 120.856 237.7 116.956C237.6 115.956 237.5 115.056 237.4 114.056C236.6 106.256 236 100.056 240.6 86.1565C240.6 85.7565 241 85.4565 241.4 85.5565C241.8 85.5565 242.1 85.9565 242 86.3565C242 86.4565 242 86.5565 241.9 86.6565C237.4 100.256 237.9 105.956 238.7 113.956C238.8 114.856 238.9 115.856 239 116.856C239.3 120.556 240.7 124.656 242.4 129.356C244.9 136.456 247.6 144.457 248.1 154.757C248.1 155.057 247.8 155.456 247.4 155.456Z" fill="#231F20"/>
<path d="M270.2 3.45623C270.2 3.45623 255.4 3.95622 251.1 11.1562C246.8 18.3562 247.3 28.8562 241.8 35.7562C236.3 42.6562 229.4 57.3562 232.9 64.9562C236.4 72.5562 273.3 74.4562 292.6 65.7562C311.9 57.0562 312.9 41.3562 311.4 31.4562C309.9 21.5562 302.8 -5.64377 270.2 3.45623Z" fill="white"/>
<path d="M260 72.1562C258.9 72.1562 257.9 72.1562 256.8 72.0562C246.4 71.7562 234.4 69.7562 232.3 65.1562C228.7 57.4562 235.3 42.5562 241.3 35.2562C244.3 31.5562 245.5 26.6562 246.6 21.9562C247.6 18.0562 248.6 13.9562 250.6 10.6562C255 3.45618 268.9 2.65618 270.2 2.65618C281.3 -0.443818 290.6 0.356184 297.7 5.05618C308.3 11.9562 311.3 25.6562 312.1 31.1562C313.7 42.4562 311.7 57.6562 292.9 66.2562C284.7 69.9562 272.6 72.1562 260 72.1562ZM282.4 2.35618C278.3 2.45618 274.3 3.05618 270.4 4.15618H270.2C270.1 4.15618 255.7 4.75618 251.6 11.4562C249.7 14.5562 248.8 18.3562 247.8 22.3562C246.6 27.2562 245.4 32.2562 242.2 36.1562C236.3 43.3562 230.2 57.6562 233.4 64.5562C236.5 71.1562 272.4 73.9562 292.1 64.9562C310.2 56.7562 312.1 42.1562 310.5 31.3562C309.7 25.9562 306.8 12.8562 296.7 6.25618C292.6 3.55618 287.5 2.15618 282.4 2.35618Z" fill="#231F20"/>
<path d="M296.6 86.0562C296.6 86.0562 284.6 115.456 274.6 114.656C264.6 113.856 264.9 91.9562 264.9 91.9562L296.6 86.0562Z" fill="#231F20"/>
<path d="M274.9 115.356C274.7 115.356 274.6 115.356 274.4 115.356C263.9 114.456 264 92.8565 264 91.9565C264 91.6565 264.2 91.3565 264.6 91.2565L296.3 85.3564C296.6 85.3564 296.8 85.3564 297 85.5564C297.2 85.7564 297.2 86.0565 297.1 86.2565C296.7 87.5565 285.2 115.356 274.9 115.356ZM265.5 92.5564C265.5 95.9564 266.2 113.256 274.6 113.956C282 114.556 291.7 95.7565 295.4 86.9565L265.5 92.5564Z" fill="#231F20"/>
<path d="M267.5 71.4564L264.8 91.9564C264.8 91.9564 268.2 100.356 281.9 99.0563C290.4 98.2563 296.5 86.0563 296.5 86.0563L299.2 45.9564C299.2 45.9564 280.2 35.4563 269.2 17.2563C269.2 17.2563 260.2 32.1564 253.6 30.7564C253.6 30.7564 251.5 50.8563 253.8 61.1563C256.1 71.4563 267.5 71.4564 267.5 71.4564Z" fill="white"/>
<path d="M279 99.8564C267.4 99.8564 264.3 92.5564 264.2 92.1564C264.2 92.0564 264.1 91.9564 264.2 91.7564L266.8 72.0564C264.1 71.7564 255.4 70.2564 253.3 61.2564C250.9 51.0564 253 31.4564 253.1 30.6564C253.1 30.4564 253.2 30.2564 253.4 30.1564C253.6 30.0564 253.8 29.9564 254 30.0564C259 31.1564 266.5 20.9564 268.9 16.9564C269.1 16.6564 269.6 16.5564 269.9 16.7564C270 16.7564 270 16.8564 270.1 16.9564C280.9 34.7564 299.6 45.2564 299.8 45.3564C300 45.4564 300.2 45.7564 300.2 46.0564L297.5 86.1564C297.5 86.2564 297.5 86.3564 297.4 86.4564C297.1 86.9564 291 98.9564 282.2 99.8564C281 99.8564 280 99.8564 279 99.8564ZM265.6 91.8564C266.1 92.9564 269.8 99.5564 281.9 98.3564C289.5 97.5564 295.2 87.1564 295.9 85.8564L298.6 46.3564C295.9 44.7564 279.5 34.7564 269.3 18.6564C267.2 21.8564 260.2 31.9564 254.3 31.5564C253.9 35.2564 252.5 52.0564 254.6 60.9564C256.8 70.5564 267.1 70.7564 267.5 70.7564C267.7 70.7564 267.9 70.8564 268 70.9564C268.1 71.0564 268.2 71.3564 268.2 71.5564L265.6 91.8564Z" fill="#231F20"/>
<path d="M266.1 82.2563C270.8 82.8563 275.6 81.0563 278.7 77.4563C284.2 71.3563 282.9 70.2563 282.9 70.2563C277.9 71.8563 272.6 72.2563 267.5 71.5563L266.1 82.2563Z" fill="#231F20"/>
<path d="M267.8 83.0565C267.2 83.0565 266.6 83.0565 266 82.9565C265.6 82.8565 265.4 82.5565 265.4 82.1565L266.8 71.3565C266.8 70.9565 267.2 70.7565 267.6 70.7565C272.7 71.4565 277.8 70.9565 282.7 69.4565C282.9 69.3565 283.2 69.4565 283.4 69.5565C283.6 69.7565 284 70.2565 283.5 71.6565C283 73.0565 281.5 75.1565 279.2 77.7565C276.4 81.1565 272.2 83.0565 267.8 83.0565ZM266.9 81.6565C271.2 81.9565 275.4 80.2565 278.2 76.9565C281.1 73.6565 282 71.9565 282.3 71.1565C277.7 72.4565 272.9 72.8565 268.1 72.2565L266.9 81.6565Z" fill="#231F20"/>
<path d="M272.1 39.0562C272.1 39.0562 265.5 49.8562 267.2 51.5562C268.9 53.2562 273.6 51.9562 273.6 51.9562" fill="white"/>
<path d="M270.1 53.1564C268.9 53.2564 267.6 52.8563 266.7 52.0563C264.8 50.1563 269.4 42.0564 271.5 38.6564C271.7 38.3564 272.1 38.2563 272.4 38.3563C272.4 38.3563 272.4 38.3563 272.5 38.3563C272.8 38.5563 273 38.9563 272.8 39.3563C269.4 44.8563 267.1 50.2563 267.8 51.0563C269 52.2563 272.3 51.5564 273.5 51.2564C273.9 51.1564 274.3 51.3564 274.4 51.7564C274.5 52.1564 274.3 52.5563 273.9 52.6564C272.6 52.9564 271.4 53.1564 270.1 53.1564Z" fill="#231F20"/>
<path d="M280.792 40.3314C281.724 40.2152 282.346 39.0547 282.182 37.7394C282.018 36.4241 281.13 35.4521 280.198 35.5683C279.266 35.6846 278.644 36.8451 278.808 38.1603C278.972 39.4756 279.861 40.4476 280.792 40.3314Z" fill="#231F20"/>
<path d="M265.812 39.0254C266.052 37.6658 265.497 36.4312 264.573 36.2678C263.648 36.1044 262.704 37.0742 262.464 38.4338C262.224 39.7933 262.778 41.0279 263.703 41.1913C264.627 41.3547 265.572 40.3849 265.812 39.0254Z" fill="#231F20"/>
<path d="M271.5 61.2562C267.8 61.4562 264.4 59.3562 262.9 55.9562C262.8 55.7562 262.9 55.4562 263 55.3562C263.1 55.1562 263.3 55.0562 263.6 55.0562C279.5 55.0562 279.6 55.1562 279.8 55.4562C279.9 55.5562 280 55.7562 280 55.9562C280 56.0562 279.9 56.1562 279.9 56.3562C279.8 56.5562 276.5 61.0562 272.5 61.3562H271.5V61.2562ZM264.7 56.4562C265.6 57.8562 267.8 60.2562 272.3 59.8562C274.6 59.6562 276.7 57.7562 277.8 56.4562C275.2 56.4562 269.2 56.4562 264.7 56.4562Z" fill="#231F20"/>
<path d="M301.7 39.1563C301.7 39.1563 307.2 15.6563 297 6.55628C286.8 -2.54372 270.2 3.45628 270.2 3.45628C270.2 3.45628 288.9 2.25628 292.7 10.7563C296.5 19.2563 293.5 43.1563 293.5 43.1563L301.7 39.1563Z" fill="white"/>
<path d="M293.5 43.8564C293.4 43.8564 293.2 43.8564 293.1 43.7564C292.9 43.5564 292.8 43.3564 292.8 43.0564C292.8 42.8564 295.8 19.1564 292.1 10.9564C288.5 3.05639 270.5 4.05639 270.3 4.05639C269.9 4.05639 269.6 3.75639 269.5 3.45639C269.5 3.15639 269.7 2.85638 270 2.75638C270.7 2.55638 287.1 -3.24361 297.5 6.05639C307.9 15.3564 302.6 38.3564 302.4 39.3564C302.4 39.5564 302.2 39.7564 302 39.8564L293.8 43.8564C293.7 43.8564 293.6 43.8564 293.5 43.8564ZM275.9 2.75638C281.9 3.05638 290.8 4.65638 293.4 10.3564C296.8 17.8564 294.9 36.7564 294.4 41.8564L301.1 38.5564C301.7 35.7564 305.7 15.1564 296.6 6.95639C290.3 1.45639 281.5 1.75638 275.9 2.75638Z" fill="#231F20"/>
<path d="M308.274 47.4836C309.682 40.1055 306.293 33.2601 300.705 32.1941C295.117 31.1281 289.446 36.245 288.039 43.6232C286.631 51.0013 290.02 57.8466 295.608 58.9126C301.196 59.9787 306.867 54.8617 308.274 47.4836Z" fill="white"/>
<path d="M297.1 59.8562C296.6 59.8562 296 59.8562 295.5 59.7562C289.6 58.6562 285.9 51.3562 287.4 43.6562C288 40.0562 289.8 36.8562 292.4 34.3562C294.6 32.1562 297.8 31.1562 300.9 31.6562C306.8 32.7562 310.5 40.0562 309 47.7562C307.6 54.7562 302.5 59.8562 297.1 59.8562ZM299.3 32.7562C297.1 32.8562 295 33.7562 293.4 35.2562C291 37.5562 289.4 40.5562 288.9 43.7562C287.6 50.7562 290.7 57.2562 295.9 58.2562C301.1 59.2562 306.4 54.3562 307.7 47.3562C309 40.3562 305.9 33.8562 300.7 32.8562C300.2 32.7562 299.7 32.7562 299.3 32.7562Z" fill="#231F20"/>
<path d="M278.4 66.9564C278 66.9564 277.7 66.6564 277.7 66.2564C277.7 65.8564 278 65.5564 278.4 65.5564C283.4 65.2564 291.8 64.2564 293.3 62.4564C295 60.4564 296.1 53.8564 296.4 51.5564C296.4 51.1564 296.8 50.8564 297.2 50.9564C297.6 50.9564 297.9 51.3564 297.8 51.7564C297.8 52.1564 296.7 60.6564 294.4 63.3564C292.1 66.0564 279.9 66.8564 278.4 66.9564Z" fill="#231F20"/>
<path d="M275 64.4564L283.8 63.6564C284.6 63.5564 285.2 64.1564 285.3 64.9564L285.4 66.0564C285.5 66.8564 284.9 67.4564 284.1 67.5564L275.3 68.3564C274.5 68.4564 273.9 67.8564 273.8 67.0564L273.7 65.9564C273.6 65.2564 274.2 64.5564 275 64.4564Z" fill="white"/>
<path d="M275.7 69.0562C275.1 69.0562 274.5 68.8562 274 68.4562C273.5 68.0562 273.1 67.3562 273.1 66.6562C273 65.1562 274 63.9562 275.5 63.7562L283.2 63.0562C284.7 62.9562 285.9 63.9562 286.1 65.4562C286.2 66.1562 285.9 66.8562 285.5 67.3562C285.1 67.8562 284.4 68.2562 283.7 68.2562L276 68.9562L275.7 69.0562ZM283.3 64.4562H283.2L275.5 65.1562C274.8 65.2562 274.3 65.8562 274.4 66.5562C274.5 67.2562 275.1 67.7562 275.8 67.6562L283.5 66.9562C283.8 66.9562 284.1 66.7562 284.3 66.5562C284.5 66.2562 284.6 65.9562 284.6 65.6562C284.6 65.3562 284.4 65.0562 284.2 64.7562C283.9 64.5562 283.6 64.4562 283.3 64.4562Z" fill="#231F20"/>
<path d="M100.7 10.2563C78.0999 10.2563 59.7999 23.8563 59.7999 40.6563C59.7999 50.5564 66.1999 59.3563 75.9999 64.8563L85.1999 77.8563V68.7564C90.1999 70.2564 95.4999 71.0563 100.8 71.0563C123.4 71.0563 141.7 57.4563 141.7 40.6563C141.7 23.8563 123.3 10.2563 100.7 10.2563Z" fill="white"/>
<path d="M85.2 78.5561C85 78.5561 84.8 78.4562 84.6 78.2562L75.5 65.4562C65.1 59.5562 59.1 50.5562 59.1 40.6562C59.1 23.4562 77.8 9.55615 100.7 9.55615C123.6 9.55615 142.3 23.5562 142.3 40.6562C142.3 57.7561 123.6 71.7562 100.7 71.7562C95.7 71.7562 90.7 71.1562 85.8 69.7562V77.8561C85.8 78.1562 85.6 78.4561 85.3 78.5561H85.2ZM100.7 10.9562C78.5 10.9562 60.5 24.2562 60.5 40.6562C60.5 49.9562 66.3 58.5562 76.4 64.2562C76.5 64.3562 76.6 64.3562 76.6 64.4562L84.5 75.6562V68.7562C84.5 68.5562 84.6 68.3562 84.8 68.1562C85 68.0562 85.2 67.9561 85.4 68.0561C90.4 69.5561 95.6 70.3562 100.8 70.2562C123 70.2562 141 56.9561 141 40.5561C141 24.1561 122.9 10.9562 100.7 10.9562Z" fill="#D1D3D4"/>
<path d="M81.1 44.0562C83.033 44.0562 84.6 42.4891 84.6 40.5562C84.6 38.6232 83.033 37.0562 81.1 37.0562C79.167 37.0562 77.6 38.6232 77.6 40.5562C77.6 42.4891 79.167 44.0562 81.1 44.0562Z" fill="#D1D3D4"/>
<path d="M100.7 44.0562C102.633 44.0562 104.2 42.4891 104.2 40.5562C104.2 38.6232 102.633 37.0562 100.7 37.0562C98.767 37.0562 97.2 38.6232 97.2 40.5562C97.2 42.4891 98.767 44.0562 100.7 44.0562Z" fill="#D1D3D4"/>
<path d="M120.4 44.0562C122.333 44.0562 123.9 42.4891 123.9 40.5562C123.9 38.6232 122.333 37.0562 120.4 37.0562C118.467 37.0562 116.9 38.6232 116.9 40.5562C116.9 42.4891 118.467 44.0562 120.4 44.0562Z" fill="#D1D3D4"/>
<path d="M288.2 228.056C300.903 228.056 311.2 224.967 311.2 221.156C311.2 217.346 300.903 214.256 288.2 214.256C275.497 214.256 265.2 217.346 265.2 221.156C265.2 224.967 275.497 228.056 288.2 228.056Z" fill="white"/>
<path d="M288.2 228.757C276.7 228.757 264.4 226.057 264.4 221.057C264.4 216.057 276.6 213.457 288.2 213.457C299.8 213.457 311.9 216.157 311.9 221.057C311.9 225.957 299.7 228.757 288.2 228.757ZM288.2 214.957C275.1 214.957 265.9 218.257 265.9 221.157C265.9 224.057 275.1 227.357 288.2 227.357C301.3 227.357 310.5 224.057 310.5 221.157C310.5 218.257 301.3 214.957 288.2 214.957Z" fill="#231F20"/>
<path d="M270.8 202.256L270.2 202.356C268.5 202.556 267 203.456 266 204.756C264.8 206.656 264.7 209.056 265.9 210.956C268.3 215.356 274.3 216.556 278.9 216.956C279.5 217.056 280.2 216.956 280.8 216.856C281.6 216.656 282 215.856 281.8 215.156C281.7 214.756 281.4 214.356 281 214.156C280.5 213.956 280 213.756 279.5 213.756C276.6 213.256 273.6 212.956 271 211.656C269.5 210.856 267.4 209.156 268.5 207.256C268.9 206.656 269.5 206.156 270.1 205.856C272.7 204.656 275.2 205.556 277.8 206.356C278 206.456 278.2 206.456 278.4 206.456C278.9 206.356 279.3 205.856 279.2 205.256C279.1 204.156 278 203.356 276.9 202.956C274.9 202.156 272.8 201.956 270.8 202.256Z" fill="white"/>
<path d="M279.6 217.856C279.3 217.856 279 217.856 278.8 217.856C271.7 217.156 267.3 215.056 265.3 211.456C264 209.256 264.1 206.556 265.5 204.456C266.7 203.056 268.4 202.056 270.2 201.756L270.8 201.656C272.9 201.356 275.1 201.556 277.2 202.356C278.9 202.956 279.8 204.056 279.9 205.256C280 206.156 279.4 206.956 278.5 207.156C278.2 207.156 277.9 207.156 277.6 207.056L276.9 206.856C274.7 206.156 272.5 205.556 270.4 206.556C269.9 206.756 269.4 207.156 269.1 207.656C268.9 207.956 268.8 208.356 268.9 208.756C269.4 209.756 270.2 210.656 271.3 211.056C273.6 212.056 276 212.656 278.5 212.956L279.5 213.156C280.1 213.256 280.7 213.356 281.3 213.656C282 214.056 282.5 214.656 282.6 215.456C282.6 216.456 282 217.356 281.1 217.656C280.6 217.756 280.1 217.856 279.6 217.856ZM270.9 202.956L270.4 203.056C268.9 203.256 267.6 204.056 266.6 205.156C265.5 206.856 265.5 208.956 266.5 210.656C268.3 213.856 272.3 215.756 278.9 216.356C279.4 216.456 280 216.456 280.5 216.256C280.8 216.156 281.1 215.856 281.1 215.456C281 215.156 280.8 214.956 280.6 214.856C280.2 214.656 279.7 214.556 279.3 214.456L278.3 214.256C275.7 213.956 273.1 213.356 270.7 212.256C270.1 211.956 268.1 210.856 267.6 209.056C267.4 208.256 267.5 207.456 267.9 206.856C268.4 206.156 269 205.556 269.8 205.256C272.4 203.956 274.9 204.756 277.3 205.456L278 205.656C278.1 205.656 278.2 205.756 278.3 205.756C278.4 205.656 278.4 205.556 278.4 205.356C278.3 204.456 277.1 203.856 276.6 203.656C274.7 202.956 272.8 202.756 270.9 202.956Z" fill="#231F20"/>
<path d="M272.9 197.557C272.9 197.557 277.2 219.057 277.6 220.357C278 221.657 289.4 224.957 296.2 221.757L303.3 199.757L272.9 197.557Z" fill="white"/>
<path d="M289.1 223.857C285.5 223.857 281.9 223.157 278.5 221.857C277.6 221.457 277.1 221.057 277 220.557C276.6 219.257 272.5 198.557 272.3 197.657C272.3 197.457 272.3 197.157 272.5 197.057C272.6 196.857 272.9 196.757 273.1 196.857L303.5 199.057C303.7 199.057 303.9 199.157 304 199.357C304.1 199.557 304.2 199.757 304.1 199.957L297 221.957C296.9 222.157 296.8 222.357 296.6 222.357C294.2 223.457 291.6 223.957 289.1 223.857ZM273.9 198.357C275.4 205.957 278.1 219.257 278.4 220.157C279.1 221.057 289.2 224.057 295.8 221.257L302.5 200.457L273.9 198.357Z" fill="#231F20"/>
<path d="M303.367 198.802C303.516 195.16 296.837 191.928 288.449 191.584C280.061 191.24 273.14 193.913 272.991 197.555C272.841 201.197 279.52 204.429 287.908 204.773C296.296 205.117 303.217 202.444 303.367 198.802Z" fill="#231F20"/>
<path d="M289.4 205.556H287.9C284.1 205.456 280.4 204.656 276.9 203.056C273.8 201.556 272.1 199.656 272.2 197.556C272.3 195.456 274.1 193.656 277.3 192.456C284.5 190.056 292.4 190.456 299.4 193.356C302.5 194.856 304.2 196.756 304.1 198.856C304 202.656 297.6 205.556 289.4 205.556ZM287 192.256C283.9 192.156 280.8 192.656 277.9 193.756C275.3 194.756 273.8 196.156 273.7 197.656C273.6 199.156 275.1 200.656 277.6 201.856C280.9 203.256 284.4 204.056 288 204.156C296.7 204.556 302.7 201.656 302.8 198.856C302.9 197.456 301.4 195.856 298.9 194.656C295.6 193.256 292.1 192.456 288.5 192.356L287 192.256Z" fill="#231F20"/>
</svg>
