<svg width="402" height="302" viewBox="0 0 402 302" fill="none" xmlns="http://www.w3.org/2000/svg">
<path d="M242.008 130.431C242.008 130.431 259.608 110.231 262.608 101.131C265.608 92.0314 273.708 76.4314 275.808 79.4314C277.908 82.4314 271.208 98.6314 271.208 98.6314C271.208 98.6314 288.108 73.2314 293.408 76.5314C298.708 79.8314 303.108 90.1314 298.808 96.2314C294.508 102.331 264.008 137.931 264.008 137.931L242.008 130.431Z" fill="white"/>
<path d="M264.008 138.831C263.908 138.831 263.808 138.831 263.708 138.831L241.708 131.331C241.408 131.231 241.208 131.031 241.208 130.731C241.108 130.431 241.208 130.131 241.408 129.931C241.608 129.731 259.008 109.731 261.808 100.931C264.308 93.4315 271.308 78.8314 274.908 78.3314C275.508 78.2314 276.208 78.5314 276.508 79.0314C277.908 81.1314 276.108 87.6315 274.408 92.7315C280.008 85.0315 289.608 73.2315 293.908 75.9315C297.208 78.0315 300.108 82.5315 301.108 87.1315C301.608 89.7315 301.808 93.5315 299.608 96.7315C295.408 102.831 266.008 137.031 264.708 138.531C264.508 138.731 264.308 138.831 264.008 138.831ZM243.408 130.031L263.708 136.931C267.208 132.931 294.208 101.431 298.108 95.7315C300.008 93.0315 299.808 89.7314 299.308 87.3314C298.408 83.1314 295.808 78.9315 292.908 77.1315C291.008 75.9315 283.208 81.9314 271.808 99.0314C271.608 99.4314 271.008 99.5314 270.708 99.3314C270.408 99.1314 270.208 98.6314 270.408 98.3314C273.108 91.8314 276.408 81.7315 275.108 79.9315C273.308 79.9315 266.508 91.9315 263.308 101.431C260.708 109.531 247.008 125.931 243.408 130.031Z" fill="#231F20"/>
<path d="M173.108 278.131L176.108 299.831C176.108 299.831 43.3077 301.431 44.9077 299.831C46.5077 298.231 44.9077 266.431 44.9077 266.431L173.108 278.131Z" fill="#231F20"/>
<path d="M77.1077 301.331C44.5077 301.331 44.3077 300.831 44.1077 300.131C44.0077 299.831 44.0077 299.431 44.3077 299.131C45.1077 297.631 44.8077 281.131 44.1077 266.331C44.1077 265.831 44.4077 265.531 44.9077 265.431H45.0077L173.208 277.131C173.608 277.131 173.908 277.431 174.008 277.831L177.008 299.531C177.008 299.731 177.008 300.031 176.808 300.131C176.608 300.331 176.408 300.431 176.208 300.431C175.908 300.431 143.208 300.831 110.808 301.031C96.8077 301.231 85.9077 301.331 77.1077 301.331ZM45.8077 299.231C54.0077 300.131 126.108 299.531 175.008 299.031L172.208 278.931L45.7077 267.331C46.2077 278.031 46.8077 294.531 45.8077 299.231Z" fill="#231F20"/>
<path d="M126.607 16.2315C126.307 15.7315 126.007 15.2315 125.707 14.7315C119.707 5.53146 109.307 0.231456 98.3075 0.731456C93.8075 0.931456 89.4075 1.53146 85.1075 2.73146C80.7075 3.93146 79.2075 7.83146 75.5075 9.73146C74.7075 10.0315 73.9075 10.2315 73.0075 10.2315C70.3075 10.4315 67.6075 11.1315 65.1075 12.2315C58.3075 15.2315 53.7075 24.6315 51.3075 31.2315C46.5075 44.0315 44.1075 57.6315 42.8075 71.2315C41.7075 83.9315 40.2075 97.9314 45.0075 110.031C49.7075 121.931 56.2075 133.531 64.8075 142.931C80.6075 160.331 104.407 170.631 127.807 168.731C141.707 167.631 155.007 162.431 167.407 155.831C174.507 152.031 181.507 147.631 186.307 141.231C195.407 129.131 194.607 110.831 184.907 99.2315C174.407 86.6315 157.807 81.2315 147.307 68.3315C135.707 54.2315 136.107 32.1315 126.607 16.2315Z" fill="white"/>
<path d="M122.508 169.831C101.208 169.831 79.3075 160.031 64.3075 143.531C56.2075 134.631 49.5075 123.531 44.3075 110.331C39.6075 98.4314 40.9075 84.7314 42.0075 72.5314L42.1075 71.1314C43.5075 55.7314 46.3075 42.5314 50.6075 30.9314C53.3075 23.7314 58.0075 14.4314 64.9075 11.5314C67.5075 10.4314 70.2075 9.73141 73.0075 9.53141H73.2075C73.9075 9.53141 74.5075 9.43141 75.1075 9.13141C76.5075 8.33141 77.8075 7.33141 78.9075 6.13141C80.5075 4.53141 82.2075 2.83141 84.9075 2.13141C89.3075 0.931409 93.8075 0.231411 98.3075 0.031411C109.508 -0.468589 120.208 5.03141 126.408 14.3314C126.708 14.8314 127.008 15.3314 127.408 15.8314C131.708 23.0314 134.108 31.6314 136.308 39.9314C139.008 49.8314 141.808 60.1314 148.108 67.8314C153.408 74.2314 160.308 78.9314 167.008 83.4314C173.708 87.9314 180.408 92.4314 185.708 98.7314C195.708 110.631 196.308 129.531 187.108 141.731C182.008 148.531 174.508 153.031 167.908 156.531C153.408 164.331 140.308 168.531 128.008 169.531C126.308 169.831 124.408 169.831 122.508 169.831ZM99.4075 1.63141C99.0075 1.63141 98.6075 1.63141 98.3075 1.63141C93.9075 1.83141 89.5075 2.53141 85.3075 3.63141C83.0075 4.23141 81.6075 5.73141 80.1075 7.23141C78.9075 8.53141 77.5075 9.73141 75.9075 10.5314C75.1075 10.9314 74.2075 11.0314 73.3075 11.1314H73.1075C70.5075 11.3314 67.9075 12.0314 65.5075 13.0314C59.1075 15.8314 54.7075 24.6314 52.1075 31.5314C47.8075 43.0314 45.1075 56.0314 43.7075 71.2314L43.6075 72.5314C42.5075 84.5314 41.3075 98.1314 45.8075 109.631C50.9075 122.531 57.5075 133.531 65.5075 142.331C81.5075 159.931 105.408 169.631 127.908 167.831C140.008 166.831 152.808 162.631 167.208 155.031C173.708 151.631 180.908 147.131 185.808 140.731C194.608 129.131 194.008 111.131 184.408 99.7314C179.308 93.6314 172.608 89.1314 166.008 84.8314C159.208 80.2314 152.108 75.5314 146.708 68.9314C140.208 61.0314 137.408 50.5314 134.608 40.4314C132.408 32.2314 130.108 23.7314 125.808 16.7314C125.508 16.2314 125.208 15.7314 124.908 15.2314C119.308 6.63141 109.708 1.53141 99.4075 1.63141Z" fill="#231F20"/>
<path d="M38.8076 286.132C34.0076 255.332 16.0076 128.632 36.8076 108.332C60.5076 85.2315 125.608 86.2315 137.508 107.132C144.008 118.432 162.208 137.532 163.608 162.332C165.608 197.532 176.108 263.632 178.608 286.232L38.8076 286.132Z" fill="#FF5B30"/>
<path d="M91.4076 286.131L76.8076 107.131L113.808 111.031L133.908 286.131H91.4076Z" fill="#231F20"/>
<path d="M133.908 287.031H91.3076C90.9076 287.031 90.5076 286.731 90.5076 286.231L76.0076 107.231C76.0076 106.731 76.3076 106.331 76.8076 106.331C76.9076 106.331 76.9076 106.331 77.0076 106.331L114.008 110.231C114.408 110.231 114.708 110.531 114.708 110.931L134.808 286.031C134.808 286.531 134.508 286.931 134.108 286.931C134.008 287.031 134.008 287.031 133.908 287.031ZM92.1076 285.331H133.008L113.108 111.831L77.8076 108.131L92.1076 285.331Z" fill="#231F20"/>
<path d="M111.708 87.9313L113.808 111.031C113.808 111.031 106.808 119.131 97.3077 119.831C81.9077 121.031 76.8077 107.131 76.8077 107.131C76.2077 96.4313 75.5077 85.7313 74.9077 75.0313C74.5077 67.7313 70.6077 52.7313 77.6077 47.8313C79.5077 46.4313 81.8077 45.6313 83.8077 44.3313C89.9077 40.4313 93.2077 33.4313 92.4077 26.3313C95.0077 29.5313 97.8077 32.7313 101.508 34.3313C104.608 35.6313 108.108 35.6313 111.508 35.5313C114.908 35.4313 118.908 34.8313 122.208 35.4313C125.708 36.1313 124.608 35.4313 125.508 38.4313C126.608 42.0313 126.108 47.0313 126.308 50.8313C126.708 57.7313 127.308 64.6313 127.308 71.5313C126.608 83.8313 111.708 87.8313 111.708 87.9313Z" fill="white"/>
<path d="M95.4075 120.731C81.0075 120.731 76.1075 107.531 76.0075 107.331C76.0075 107.231 76.0075 107.131 75.9075 107.131C75.6075 102.331 75.4075 97.5313 75.1075 92.6313C74.8075 86.7313 74.4075 80.8313 74.1075 75.0313C74.0075 73.5313 73.8075 71.6313 73.5075 69.6313C72.5075 61.8313 71.2075 51.2313 77.1075 47.1313C78.2075 46.4313 79.4075 45.7313 80.7075 45.1313C81.6075 44.7313 82.5075 44.2314 83.4075 43.7314C89.2075 40.0314 92.3075 33.3313 91.6075 26.5313C91.5075 26.0313 91.9075 25.6313 92.3075 25.6313C92.6075 25.6313 92.9075 25.7314 93.1075 25.9314C95.5075 28.8314 98.2075 32.1314 101.908 33.7314C104.908 34.9314 108.408 34.9314 111.508 34.9314C112.608 34.9314 113.708 34.8314 114.908 34.7314C117.408 34.4314 119.908 34.4313 122.408 34.8313L123.708 35.0313C125.408 35.3313 125.708 35.5314 126.008 36.9314C126.108 37.3314 126.208 37.7313 126.408 38.3313C127.108 41.2313 127.308 44.1313 127.208 47.1313C127.208 48.5313 127.208 49.8313 127.308 51.0313C127.408 52.6313 127.508 54.2313 127.608 55.9314C128.008 61.1314 128.308 66.5313 128.308 71.8313C127.708 83.1313 115.808 87.6313 112.708 88.6313L114.808 111.031C114.808 111.231 114.708 111.431 114.608 111.631C114.308 111.931 107.208 119.931 97.6075 120.731C96.8075 120.731 96.1075 120.831 95.4075 120.731ZM77.7075 106.931C78.2075 108.331 83.2075 120.131 97.3075 119.031C105.308 118.431 111.708 112.131 113.008 110.731L110.908 87.9314C110.908 87.5313 111.108 87.1313 111.508 87.0313C111.608 87.0313 125.908 83.0313 126.508 71.6313C126.508 66.4313 126.108 61.0313 125.808 55.9314C125.708 54.3314 125.608 52.6313 125.508 51.0313C125.408 49.8313 125.408 48.4313 125.408 47.0313C125.408 44.1313 125.408 41.1314 124.708 38.7314C124.508 38.0314 124.408 37.5313 124.308 37.1313C124.308 36.9313 124.208 36.7313 124.208 36.6313C123.908 36.6313 123.608 36.6313 123.408 36.5313C123.007 36.4313 122.608 36.4313 122.108 36.3313C119.808 36.0313 117.408 36.0314 115.108 36.2314C113.908 36.3314 112.708 36.4314 111.608 36.4314C108.308 36.4314 104.608 36.5313 101.308 35.1313C98.0075 33.7313 95.6075 31.3313 93.4075 28.8313C93.2075 35.4313 89.8075 41.5313 84.3075 45.0313C83.4075 45.6313 82.4075 46.1313 81.5075 46.5313C80.3075 47.1313 79.2075 47.7313 78.1075 48.4314C73.0075 52.0314 74.3075 62.0313 75.2075 69.4314C75.5075 71.4314 75.7075 73.3314 75.8075 74.9314C76.1075 80.8314 76.5075 86.7313 76.8075 92.5313C77.1075 97.4313 77.4075 102.231 77.7075 106.931Z" fill="#231F20"/>
<path d="M84.4077 61.9313C82.6077 57.0313 76.2077 53.5313 71.1077 54.8313C64.5077 56.5313 65.3077 64.1313 67.9077 68.8313C71.2077 74.7313 78.6077 76.9313 84.6077 73.6313C84.7077 73.6313 84.7077 73.5313 84.8077 73.5313" fill="white"/>
<path d="M78.6076 75.9315C77.4076 75.9315 76.2076 75.7315 75.1076 75.4315C71.7076 74.4315 68.9076 72.2315 67.2076 69.1315C65.6076 66.2315 64.3076 61.6315 65.9076 58.0315C66.8076 55.9315 68.7076 54.4315 70.9076 53.9315C76.3076 52.5315 83.3076 56.2315 85.2076 61.6315C85.4076 62.0315 85.2076 62.5315 84.8076 62.7315C84.4076 62.9315 83.9076 62.7315 83.7076 62.3315V62.2315C82.1076 57.6315 76.1076 54.4315 71.4076 55.6315C69.7076 56.0315 68.2076 57.1315 67.5076 58.7315C66.3076 61.6315 67.2076 65.6315 68.7076 68.3315C71.8076 73.8315 78.7076 75.8315 84.3076 72.8315C84.3076 72.8315 84.4076 72.8315 84.4076 72.7315C84.8076 72.5315 85.3076 72.7315 85.5076 73.1315C85.7076 73.5315 85.6076 73.9315 85.2076 74.2315C83.1076 75.3315 80.9076 75.9315 78.6076 75.9315Z" fill="#231F20"/>
<path d="M109.608 47.7314C109.608 47.7314 119.308 58.6314 117.708 61.0314C116.108 63.4314 110.508 62.7314 110.508 62.7314" fill="white"/>
<path d="M112.308 63.5314C111.708 63.5314 111.108 63.5314 110.508 63.4314C110.008 63.3314 109.708 62.9314 109.808 62.5314C109.808 62.0314 110.208 61.7314 110.708 61.8314C112.008 61.9314 116.008 62.0314 117.108 60.4314C117.808 59.4314 113.908 53.6314 109.108 48.2314C108.808 47.9314 108.808 47.3314 109.108 47.0314C109.408 46.7314 110.008 46.7314 110.308 47.0314C110.308 47.0314 110.308 47.0314 110.408 47.1314C113.408 50.5314 120.308 58.8314 118.508 61.4314C117.108 63.2314 114.208 63.5314 112.308 63.5314Z" fill="#231F20"/>
<path d="M111.708 87.9315C111.708 87.9315 103.108 90.3315 92.0076 84.5315C92.0076 84.5315 97.4076 100.432 112.908 100.432L111.708 87.9315Z" fill="#231F20"/>
<path d="M112.808 101.231C96.9075 101.231 91.2075 84.9314 91.1075 84.7314C91.0075 84.3314 91.2075 83.8314 91.6075 83.6314C91.8075 83.5314 92.1075 83.5314 92.3075 83.7314C103.008 89.3314 111.308 87.1314 111.408 87.0314C111.608 86.9314 111.908 87.0314 112.108 87.1314C112.308 87.2314 112.408 87.5314 112.508 87.7314L113.608 100.231C113.608 100.431 113.508 100.731 113.408 100.831C113.308 101.131 113.108 101.231 112.808 101.231ZM93.6075 86.2314C95.6075 90.3314 101.108 99.0314 111.908 99.5314L110.908 88.9314C108.508 89.4314 101.908 90.0314 93.6075 86.2314Z" fill="#231F20"/>
<path d="M97.1076 53.4315C97.9912 53.4315 98.7076 51.775 98.7076 49.7315C98.7076 47.6881 97.9912 46.0315 97.1076 46.0315C96.2239 46.0315 95.5076 47.6881 95.5076 49.7315C95.5076 51.775 96.2239 53.4315 97.1076 53.4315Z" fill="#231F20"/>
<path d="M118.611 51.3237C119.493 51.274 120.115 49.5799 120 47.5397C119.885 45.4995 119.077 43.8859 118.195 43.9355C117.313 43.9852 116.69 45.6793 116.805 47.7195C116.92 49.7597 117.728 51.3733 118.611 51.3237Z" fill="#231F20"/>
<path d="M106.508 80.1314C106.108 80.1314 105.608 80.1314 105.208 80.0314C104.008 79.8314 102.908 79.1314 102.208 78.0314C99.8075 74.2314 101.808 66.2314 101.908 65.9314C102.008 65.5314 102.508 65.2314 102.908 65.3314L115.508 67.9314C115.908 68.0314 116.208 68.4314 116.108 68.8314C115.708 72.0314 113.708 76.4314 110.708 78.7314C109.508 79.6314 108.008 80.1314 106.508 80.1314ZM103.408 67.0314C102.808 69.6314 102.108 74.7314 103.608 77.1314C104.008 77.8314 104.708 78.2314 105.508 78.4314C107.008 78.7314 108.608 78.3314 109.808 77.3314C112.208 75.5314 113.908 72.1314 114.408 69.3314L103.408 67.0314Z" fill="#231F20"/>
<path d="M193.908 165.131C200.008 162.131 248.108 109.431 248.108 109.431L276.008 132.831C275.508 136.631 231.508 228.631 205.808 223.931C180.108 219.231 124.808 186.331 124.808 186.331L137.408 107.131C137.408 107.131 187.808 168.131 193.908 165.131Z" fill="#FF5B30"/>
<path d="M176.007 267.231C175.607 267.231 175.207 266.931 175.207 266.531L153.307 139.731C153.207 139.231 153.507 138.831 154.007 138.731C154.507 138.631 154.907 138.931 155.007 139.431L176.907 266.231C177.007 266.631 176.707 267.131 176.307 267.231C176.307 267.231 176.307 267.231 176.207 267.231H176.007Z" fill="#231F20"/>
<path d="M102.808 230.431C102.908 229.631 109.308 228.731 110.208 228.431C113.408 227.431 116.808 226.831 120.108 226.231C126.508 224.931 133.408 223.531 140.008 224.131C151.608 225.131 137.408 232.531 137.408 232.531C137.408 232.531 164.208 225.731 162.608 232.531C161.008 239.331 148.408 245.631 140.508 247.731C132.608 249.831 100.608 247.731 100.608 247.731L102.808 230.431Z" fill="white"/>
<path d="M126.608 249.531C115.108 249.531 101.408 248.631 100.508 248.631C100.308 248.631 100.108 248.532 99.9075 248.332C99.8075 248.132 99.7075 247.931 99.7075 247.731C99.7075 247.731 101.908 230.531 101.908 230.431C102.008 229.431 103.208 229.031 108.308 228.131C109.108 228.031 109.708 227.932 109.908 227.832C112.708 227.032 115.608 226.432 118.508 225.832L120.308 225.431C126.808 224.131 133.508 222.832 140.108 223.332C142.208 223.532 145.008 224.031 145.308 225.931C145.608 227.531 143.908 229.231 142.108 230.631C148.808 229.231 159.908 227.431 162.708 230.131C163.408 230.831 163.708 231.831 163.408 232.731C161.708 239.931 149.108 246.331 140.708 248.631C138.008 249.231 132.608 249.531 126.608 249.531ZM101.508 247.031C106.708 247.331 133.408 248.831 140.308 247.031C148.408 244.831 160.308 238.631 161.808 232.431C161.908 232.031 161.808 231.731 161.608 231.431C159.208 229.031 145.608 231.431 137.608 233.431C137.208 233.531 136.708 233.231 136.608 232.832C136.508 232.432 136.708 232.031 137.008 231.931C140.408 230.131 143.908 227.532 143.708 226.332C143.608 225.932 142.608 225.331 139.908 225.031C133.608 224.431 127.008 225.831 120.608 227.031L118.808 227.431C116.008 228.031 113.108 228.532 110.408 229.332C110.108 229.432 109.508 229.531 108.608 229.731C106.908 230.031 105.208 230.431 103.508 230.931C103.308 232.731 101.908 243.731 101.508 247.031Z" fill="#231F20"/>
<path d="M33.4076 113.631C32.8076 115.031 -17.2924 234.231 8.1076 249.831C33.5076 265.431 112.808 259.431 112.808 259.431L109.608 224.131L46.0076 215.531L33.4076 113.631Z" fill="#FF5B30"/>
<path d="M106.707 224.931H106.607L32.0075 213.131C31.5075 213.031 31.2075 212.631 31.3075 212.131C31.4075 211.631 31.8075 211.331 32.3075 211.431L107.007 223.231C107.507 223.331 107.807 223.731 107.707 224.131C107.507 224.631 107.207 224.931 106.707 224.931Z" fill="#231F20"/>
<path d="M42.2075 213.131C41.7075 213.131 41.4075 212.731 41.4075 212.331C41.2075 192.631 46.6075 142.831 46.7075 142.331C46.8075 141.831 47.2075 141.531 47.6075 141.631C48.1075 141.731 48.4075 142.131 48.3075 142.531C48.3075 143.031 42.8075 192.631 43.0075 212.331C43.0075 212.731 42.6075 213.031 42.2075 213.131C42.2075 213.031 42.2075 213.031 42.2075 213.131Z" fill="#231F20"/>
<path d="M193.608 229.832H99.2075L115.608 171.332H210.108L193.608 229.832Z" fill="white"/>
<path d="M193.607 230.732H99.2075C98.9075 230.732 98.7075 230.631 98.5075 230.431C98.3075 230.231 98.3075 229.932 98.4075 229.732L114.807 171.132C114.907 170.732 115.207 170.531 115.607 170.531H210.007C210.307 170.531 210.507 170.632 210.707 170.832C210.907 171.032 210.907 171.331 210.807 171.531L194.407 230.132C194.307 230.431 194.007 230.732 193.607 230.732ZM100.307 229.031H193.007L209.007 172.132H116.307L100.307 229.031Z" fill="#231F20"/>
<path d="M194.508 229.832H73.8076V234.632H194.508V229.832Z" fill="white"/>
<path d="M194.608 235.531H73.8076C73.3076 235.531 73.0076 235.131 73.0076 234.731V229.931C73.0076 229.431 73.4076 229.131 73.8076 229.131H194.508C195.008 229.131 195.308 229.531 195.308 229.931V234.731C195.408 235.131 195.008 235.531 194.608 235.531ZM74.7076 233.831H193.708V230.631H74.7076V233.831Z" fill="#231F20"/>
<path d="M100.608 229.832H73.8076V234.632H100.608V229.832Z" fill="white"/>
<path d="M100.608 235.531H73.8076C73.3076 235.531 73.0076 235.131 73.0076 234.731V229.931C73.0076 229.431 73.4076 229.131 73.8076 229.131H100.608C101.108 229.131 101.408 229.531 101.408 229.931V234.731C101.408 235.131 101.108 235.531 100.608 235.531ZM74.7076 233.831H99.8076V230.631H74.7076V233.831Z" fill="#231F20"/>
<path d="M126.608 234.831C132.508 232.931 137.608 229.331 142.908 226.231C147.208 223.731 151.808 221.331 156.808 220.631C158.708 220.331 160.508 220.731 162.408 220.631C164.008 220.531 166.308 219.931 167.508 221.631C169.708 224.731 168.008 232.631 155.808 240.631" fill="white"/>
<path d="M155.808 241.531C155.308 241.531 155.008 241.131 155.008 240.731C155.008 240.431 155.108 240.231 155.408 240.031C162.108 235.631 166.508 230.531 167.308 226.131C167.708 224.831 167.508 223.431 166.808 222.231C166.208 221.331 165.008 221.431 163.508 221.531C163.108 221.531 162.808 221.631 162.508 221.631C161.708 221.631 160.908 221.631 160.108 221.531C159.108 221.431 158.008 221.431 157.008 221.531C152.008 222.231 147.408 224.731 143.408 227.031C142.308 227.631 141.208 228.331 140.108 229.031C136.008 231.631 131.708 234.231 126.908 235.731C126.508 235.931 126.008 235.631 125.808 235.231C125.608 234.831 125.908 234.331 126.308 234.131H126.408C131.008 232.631 135.208 230.131 139.208 227.631C140.308 226.931 141.408 226.231 142.508 225.631C146.608 223.231 151.408 220.631 156.708 219.931C157.908 219.831 159.008 219.831 160.208 219.931C160.908 220.031 161.708 220.031 162.408 220.031C162.708 220.031 163.008 220.031 163.308 219.931C164.808 219.831 167.008 219.631 168.208 221.331C169.108 222.931 169.408 224.731 169.008 226.531C168.408 229.431 166.108 235.131 156.308 241.531C156.108 241.531 156.008 241.531 155.808 241.531Z" fill="#231F20"/>
<path d="M274.108 110.231C273.608 110.231 273.308 109.831 273.308 109.331C273.708 102.231 270.708 99.3314 270.708 99.2314C270.408 98.9314 270.408 98.4314 270.708 98.0314C271.008 97.7314 271.508 97.7314 271.908 98.0314C272.008 98.1314 275.408 101.431 275.008 109.431C275.008 109.931 274.608 110.331 274.108 110.231Z" fill="#231F20"/>
<path d="M248.607 66.1314H168.307L176.707 37.9314H257.007L248.607 66.1314Z" fill="white"/>
<path d="M248.607 66.9314H168.307C168.007 66.9314 167.807 66.8313 167.607 66.6313C167.407 66.4313 167.407 66.1314 167.507 65.9314L175.907 37.7314C176.007 37.4314 176.307 37.1313 176.707 37.1313H257.007C257.307 37.1313 257.507 37.2314 257.707 37.4314C257.907 37.6314 257.907 37.9313 257.807 38.1313L249.407 66.3313C249.307 66.7313 249.007 66.9314 248.607 66.9314ZM169.407 65.3313H248.007L255.907 38.7314H177.307L169.407 65.3313Z" fill="#231F20"/>
<path d="M244.707 57.6314L246.707 50.9314H181.507L179.507 57.6314H244.707Z" fill="white"/>
<path d="M244.707 58.5314H179.507C179.207 58.5314 179.007 58.4314 178.807 58.2314C178.607 58.0314 178.607 57.7314 178.707 57.5314L180.707 50.8314C180.807 50.5314 181.107 50.2314 181.507 50.2314H246.707C247.007 50.2314 247.207 50.3314 247.407 50.5314C247.607 50.7314 247.607 51.0314 247.507 51.2314L245.507 57.9314C245.407 58.2314 245.107 58.5314 244.707 58.5314ZM180.607 56.8314H244.107L245.607 51.7314H182.107L180.607 56.8314Z" fill="#231F20"/>
<path d="M211.607 57.6314L213.607 50.9314H181.507L179.507 57.6314H211.607Z" fill="#231F20"/>
<path d="M211.607 58.5314H179.407C179.107 58.5314 178.907 58.4314 178.707 58.2314C178.507 58.0314 178.507 57.7314 178.607 57.5314L180.607 50.8314C180.707 50.4314 181.007 50.2314 181.407 50.2314H213.607C213.907 50.2314 214.107 50.3314 214.307 50.5314C214.507 50.7314 214.507 51.0314 214.407 51.2314L212.407 57.9314C212.307 58.2314 212.007 58.5314 211.607 58.5314ZM180.607 56.8314H211.007L212.507 51.8314H182.107L180.607 56.8314Z" fill="#231F20"/>
<path d="M342.707 203.631H211.007C210.707 203.631 210.507 203.531 210.307 203.331C210.107 203.131 210.107 202.831 210.207 202.631L267.707 24.2313C267.807 23.9313 268.107 23.6313 268.507 23.6313H400.207C400.507 23.6313 400.707 23.7314 400.907 23.9314C401.107 24.1314 401.107 24.4313 401.007 24.6313L343.507 203.031C343.407 203.431 343.107 203.631 342.707 203.631ZM212.207 201.931H342.107L399.107 25.2313H269.207L212.207 201.931Z" fill="#231F20"/>
<path d="M321.007 50.7314H276.907C276.507 50.7314 276.307 50.4314 276.307 50.0314C276.307 49.9314 276.307 49.9314 276.307 49.8314L281.507 33.6314C281.607 33.3314 281.807 33.2314 282.107 33.2314H326.207C326.607 33.2314 326.807 33.5314 326.807 33.9314C326.807 34.0314 326.807 34.0314 326.807 34.1314L321.607 50.3314C321.507 50.4314 321.307 50.6314 321.007 50.7314ZM277.707 49.4314H320.507L325.307 34.5314H282.507L277.707 49.4314Z" fill="#D1D3D4"/>
<path d="M380.907 34.5314H337.707C337.307 34.5314 337.107 34.2314 337.107 33.9314C337.107 33.5314 337.407 33.2314 337.707 33.2314H380.907C381.307 33.2314 381.507 33.5314 381.507 33.9314C381.507 34.2314 381.307 34.5314 380.907 34.5314Z" fill="#D1D3D4"/>
<path d="M377.607 44.7314H334.407C334.007 44.7314 333.807 44.4314 333.807 44.1314C333.807 43.7314 334.107 43.4314 334.407 43.4314H377.607C378.007 43.4314 378.207 43.7314 378.207 44.1314C378.207 44.4314 377.907 44.7314 377.607 44.7314Z" fill="#D1D3D4"/>
<path d="M374.307 55.0314H331.007C330.607 55.0314 330.407 54.7314 330.407 54.4314C330.407 54.0314 330.707 53.7314 331.007 53.7314H374.207C374.607 53.7314 374.807 54.0314 374.807 54.4314C374.907 54.7314 374.607 55.0314 374.307 55.0314Z" fill="#D1D3D4"/>
<path d="M371.007 65.2314H327.807C327.407 65.2314 327.207 64.9314 327.207 64.6314C327.207 64.2314 327.507 63.9314 327.807 63.9314H371.007C371.407 63.9314 371.607 64.2314 371.607 64.6314C371.607 64.9314 371.407 65.2314 371.007 65.2314Z" fill="#D1D3D4"/>
<path d="M323.707 110.031H316.307C315.907 110.031 315.707 109.731 315.707 109.331C315.707 109.231 315.707 109.231 315.707 109.131L320.307 94.9313C320.407 94.6313 320.607 94.5312 320.907 94.5312H328.307C328.707 94.5312 328.907 94.8313 328.907 95.2313C328.907 95.3313 328.907 95.3313 328.907 95.4313L324.307 109.631C324.307 109.931 324.007 110.031 323.707 110.031ZM317.207 108.731H323.307L327.507 95.8313H321.407L317.207 108.731Z" fill="#D1D3D4"/>
<path d="M341.007 110.031H333.607C333.207 110.031 333.007 109.731 333.007 109.331C333.007 109.231 333.007 109.231 333.007 109.131L341.507 82.9313C341.607 82.6313 341.807 82.5312 342.107 82.5312H349.507C349.907 82.5312 350.107 82.8313 350.107 83.2313C350.107 83.3313 350.107 83.3313 350.107 83.4313L341.607 109.731C341.507 109.831 341.307 110.031 341.007 110.031ZM334.507 108.731H340.607L348.607 83.7313H342.507L334.507 108.731Z" fill="#D1D3D4"/>
<path d="M358.207 110.031H350.807C350.407 110.031 350.207 109.731 350.207 109.331C350.207 109.231 350.207 109.231 350.207 109.131L361.407 74.3314C361.507 74.0314 361.707 73.9314 362.007 73.9314H369.407C369.807 73.9314 370.007 74.2314 370.007 74.6314C370.007 74.7314 370.007 74.7314 370.007 74.8314L358.807 109.631C358.707 109.931 358.407 110.031 358.207 110.031ZM351.607 108.731H357.707L368.507 75.2314H362.407L351.607 108.731Z" fill="#D1D3D4"/>
<path d="M364.607 110.031H309.807C309.407 110.031 309.207 109.731 309.207 109.431C309.207 109.031 309.507 108.731 309.807 108.731H364.607C365.007 108.731 365.207 109.031 365.207 109.431C365.307 109.731 365.007 110.031 364.607 110.031Z" fill="#D1D3D4"/>
<path d="M255.107 186.631H233.007C232.607 186.631 232.407 186.331 232.407 185.931C232.407 185.831 232.407 185.831 232.407 185.731L247.707 138.231C247.807 137.931 248.007 137.831 248.307 137.831H270.407C270.807 137.831 271.007 138.131 271.007 138.531C271.007 138.631 271.007 138.631 271.007 138.731L255.707 186.231C255.607 186.431 255.307 186.631 255.107 186.631ZM233.907 185.331H254.607L269.507 139.131H248.807L233.907 185.331Z" fill="#D1D3D4"/>
<path d="M308.707 184.431C301.507 184.431 295.507 181.631 291.807 176.631C287.907 171.231 287.107 164.031 289.607 156.331C294.507 141.031 310.907 128.631 326.207 128.631C326.607 128.631 326.807 128.931 326.807 129.331C326.807 129.431 326.807 129.431 326.807 129.531L318.307 155.931H344.607C345.007 155.931 345.207 156.231 345.207 156.631C345.207 156.731 345.207 156.731 345.207 156.831C340.407 171.931 324.007 184.431 308.707 184.431ZM290.907 156.731C288.507 164.031 289.307 170.831 292.907 175.831C296.307 180.531 301.907 183.031 308.707 183.031C323.207 183.031 338.707 171.431 343.807 157.131H317.507C317.107 157.131 316.907 156.831 316.907 156.431C316.907 156.331 316.907 156.331 316.907 156.231L325.407 129.831C310.907 130.431 295.607 142.231 290.907 156.731Z" fill="#D1D3D4"/>
<path d="M350.407 153.131H323.207C322.807 153.131 322.607 152.831 322.607 152.431C322.607 152.331 322.607 152.331 322.607 152.231L331.407 125.031C331.507 124.731 331.707 124.531 332.007 124.531C339.207 124.531 345.207 127.331 348.907 132.331C352.807 137.731 353.607 144.931 351.107 152.631C351.007 152.931 350.707 153.131 350.407 153.131ZM324.107 151.831H350.007C352.207 144.731 351.407 138.031 347.907 133.131C344.607 128.531 339.107 126.031 332.507 125.931L324.107 151.831Z" fill="#D1D3D4"/>
<path d="M279.407 185.331H264.207C263.807 185.331 263.507 185.031 263.507 184.731C263.507 184.431 263.807 184.031 264.107 184.031H279.307C279.707 184.031 279.907 184.331 279.907 184.731C280.107 185.031 279.807 185.331 279.407 185.331Z" fill="#D1D3D4"/>
<path d="M276.007 176.331H267.107C266.707 176.331 266.507 176.031 266.507 175.631C266.507 175.231 266.807 175.031 267.107 175.031H276.007C276.407 175.031 276.607 175.331 276.607 175.731C276.607 176.031 276.407 176.331 276.007 176.331Z" fill="#D1D3D4"/>
<path d="M277.207 115.731C270.607 115.731 265.007 113.231 261.707 108.631C258.107 103.731 257.407 97.0313 259.707 89.9313C264.207 75.9313 279.307 64.5312 293.307 64.5312C299.907 64.5312 305.507 67.0313 308.807 71.6313C312.407 76.5313 313.107 83.2313 310.807 90.3313C306.307 104.331 291.207 115.731 277.207 115.731ZM293.307 65.7313C279.807 65.7313 265.307 76.7313 260.907 90.2313C258.707 96.9313 259.407 103.131 262.707 107.731C265.807 112.031 270.907 114.331 277.207 114.331C290.707 114.331 305.207 103.331 309.607 89.8313C311.807 83.1313 311.107 76.9313 307.807 72.3313C304.707 68.1313 299.507 65.7313 293.307 65.7313Z" fill="#D1D3D4"/>
<path d="M262.407 286.731H194.607C194.307 286.731 194.107 286.631 193.907 286.431C193.707 286.231 193.707 285.931 193.807 285.731L211.907 229.631C212.007 229.331 212.307 229.031 212.707 229.031H280.507C280.807 229.031 281.007 229.131 281.207 229.331C281.407 229.531 281.407 229.831 281.307 230.031L263.207 286.131C263.007 286.531 262.707 286.731 262.407 286.731ZM195.707 285.131H261.807L279.307 230.731H213.207L195.707 285.131Z" fill="#231F20"/>
<path d="M276.907 241.531H209.207C208.707 241.531 208.407 241.131 208.407 240.731C208.407 240.231 208.807 239.931 209.207 239.931H276.907C277.407 239.931 277.707 240.331 277.707 240.731C277.707 241.131 277.307 241.531 276.907 241.531Z" fill="#231F20"/>
<path d="M373.807 211.531H309.807C309.407 211.531 309.207 211.231 309.207 210.831C309.207 210.431 309.507 210.231 309.807 210.231H373.807C374.207 210.231 374.407 210.531 374.407 210.931C374.507 211.231 374.207 211.531 373.807 211.531Z" fill="#D1D3D4"/>
<path d="M371.007 221.131H357.907C357.507 221.131 357.307 220.831 357.307 220.431C357.307 220.031 357.607 219.831 357.907 219.831H371.007C371.407 219.831 371.607 220.131 371.607 220.531C371.607 220.831 371.407 221.131 371.007 221.131Z" fill="#D1D3D4"/>
<path d="M348.707 221.131H332.707C332.307 221.131 332.107 220.831 332.107 220.431C332.107 220.031 332.407 219.831 332.707 219.831H348.707C349.107 219.831 349.307 220.131 349.307 220.531C349.407 220.831 349.107 221.131 348.707 221.131Z" fill="#D1D3D4"/>
<path d="M322.007 221.131H307.007C306.607 221.131 306.407 220.831 306.407 220.431C306.407 220.031 306.707 219.831 307.007 219.831H322.007C322.407 219.831 322.607 220.131 322.607 220.531C322.607 220.831 322.407 221.131 322.007 221.131Z" fill="#D1D3D4"/>
<path d="M367.807 231.631H319.507C319.107 231.631 318.807 231.331 318.807 231.031C318.807 230.731 319.107 230.331 319.407 230.331H367.707C368.107 230.331 368.307 230.631 368.307 231.031C368.507 231.331 368.207 231.631 367.807 231.631Z" fill="#D1D3D4"/>
<path d="M310.607 231.631H303.807C303.407 231.631 303.107 231.331 303.107 231.031C303.107 230.731 303.407 230.331 303.707 230.331H310.507C310.907 230.331 311.107 230.631 311.107 231.031C311.307 231.331 311.007 231.631 310.607 231.631Z" fill="#D1D3D4"/>
<path d="M363.707 242.131H346.507C346.107 242.131 345.907 241.831 345.907 241.431C345.907 241.031 346.207 240.831 346.507 240.831H363.707C364.107 240.831 364.307 241.131 364.307 241.531C364.307 241.831 364.007 242.131 363.707 242.131Z" fill="#D1D3D4"/>
<path d="M333.207 242.131H299.707C299.307 242.131 299.107 241.831 299.107 241.431C299.107 241.031 299.407 240.831 299.707 240.831H333.207C333.607 240.831 333.807 241.131 333.807 241.531C333.907 241.831 333.607 242.131 333.207 242.131Z" fill="#D1D3D4"/>
<path d="M209.607 44.9314H183.807C183.407 44.9314 183.207 44.6314 183.207 44.2314C183.207 43.8314 183.507 43.6313 183.807 43.6313H209.607C210.007 43.6313 210.207 43.9314 210.207 44.2314C210.307 44.6314 210.007 44.9314 209.607 44.9314Z" fill="#D1D3D4"/>
<path d="M367.207 258.731H285.407C285.107 258.731 284.907 258.631 284.707 258.431C284.507 258.231 284.507 257.931 284.607 257.731L306.407 190.131C306.507 189.831 306.807 189.531 307.207 189.531H389.007C389.307 189.531 389.507 189.631 389.707 189.831C389.907 190.031 389.907 190.331 389.807 190.531L368.007 258.131C367.907 258.531 367.607 258.731 367.207 258.731ZM286.607 257.031H366.607L387.907 191.131H307.907L286.607 257.031Z" fill="#231F20"/>
<path d="M234.507 246.331C235.307 246.131 236.107 245.831 237.007 245.631L238.307 245.331C238.807 245.131 239.307 245.431 239.507 245.831C239.707 246.331 239.807 246.931 240.007 247.531C240.107 247.831 240.207 248.131 240.307 248.431C240.407 248.631 240.607 248.831 240.807 248.831C241.707 249.031 242.707 249.231 243.607 249.331C244.007 249.331 244.307 249.231 244.607 248.931L246.507 247.231C246.707 247.031 247.007 246.831 247.307 246.631C247.507 246.531 247.707 246.531 247.907 246.531C249.007 247.031 250.107 247.731 251.007 248.631C251.307 248.931 251.307 249.431 251.107 249.731C250.707 250.531 250.307 251.231 249.807 252.031C249.407 252.531 249.407 253.131 249.707 253.631C250.107 254.231 250.407 254.931 250.807 255.631C251.007 255.831 251.207 256.031 251.507 256.031C252.007 256.031 252.607 256.031 253.107 256.031C253.607 256.031 254.007 256.031 254.507 256.031C254.907 256.031 255.307 256.231 255.307 256.631C255.307 256.631 255.307 256.631 255.307 256.731C255.407 257.931 255.507 259.031 255.507 260.231C255.507 260.731 255.207 261.131 254.707 261.331C254.107 261.631 253.407 261.831 252.807 262.131C252.507 262.231 252.207 262.431 251.907 262.531C251.507 262.731 251.207 263.031 251.107 263.431C250.807 264.231 250.507 265.031 250.207 265.931C250.007 266.331 250.107 266.831 250.407 267.231C250.907 267.831 251.407 268.331 251.907 268.931C252.307 269.331 252.307 269.931 251.907 270.331L251.807 270.431C251.107 271.331 250.307 272.331 249.607 273.231C249.307 273.831 248.507 274.031 247.907 273.831C247.407 273.731 247.007 273.431 246.507 273.331C246.007 273.231 245.807 273.131 245.507 273.031C245.207 272.931 244.807 273.031 244.507 273.231C243.707 273.731 242.907 274.231 242.107 274.731C241.707 275.031 241.407 275.431 241.307 275.931C241.207 276.431 241.207 277.031 241.107 277.531C241.107 277.831 241.007 278.231 240.907 278.531C240.807 279.031 240.407 279.431 239.907 279.531L236.507 280.331C236.307 280.331 236.207 280.331 236.007 280.331C235.607 280.431 235.307 280.131 235.207 279.831C235.007 279.131 234.807 278.431 234.707 277.831V277.731C234.607 277.131 234.107 276.631 233.507 276.731C232.907 276.631 232.307 276.531 231.607 276.431C231.007 276.331 230.407 276.531 229.907 277.031C229.307 277.631 228.707 278.131 228.107 278.631C227.507 279.131 227.107 279.231 226.507 278.831C225.607 278.231 224.807 277.731 224.007 277.131C223.507 276.831 223.507 276.431 223.807 275.831C224.107 275.231 224.507 274.631 224.807 274.031C225.507 272.731 225.507 272.531 224.907 271.431L224.207 270.131C224.007 269.731 223.507 269.431 223.007 269.531C222.407 269.531 221.707 269.631 221.107 269.631C220.807 269.631 220.407 269.631 220.107 269.531C219.807 269.531 219.607 269.231 219.607 268.931C219.507 267.831 219.507 266.731 219.407 265.531C219.407 265.331 219.407 265.231 219.507 265.031C219.607 264.631 219.807 264.231 220.207 264.131L222.407 263.131L223.107 262.831C223.507 262.631 223.707 262.331 223.907 261.931L224.707 259.531C224.907 259.131 224.807 258.631 224.507 258.331C224.007 257.831 223.607 257.331 223.207 256.831V256.731C222.707 256.031 222.707 255.731 223.307 254.931C223.907 254.131 224.807 253.131 225.507 252.231C225.807 251.731 226.407 251.531 226.907 251.731C227.507 251.931 228.207 252.231 228.807 252.431C229.407 252.731 230.207 252.631 230.807 252.131C231.507 251.631 232.207 251.231 232.907 250.731C233.207 250.531 233.407 250.231 233.507 249.931C233.607 249.131 233.707 248.431 233.907 247.631C233.907 247.131 234.107 246.631 234.507 246.231V246.331ZM240.407 268.831C244.207 266.531 245.907 262.031 244.307 258.631C243.007 255.831 238.607 254.431 234.507 256.931C230.807 259.231 229.007 263.731 230.607 267.031C232.507 270.931 237.507 270.931 240.407 268.831Z" fill="#231F20"/>
<path d="M236.207 281.331C235.507 281.431 234.807 280.931 234.607 280.231L234.107 278.231C234.107 278.131 234.107 278.131 234.107 278.031C234.107 277.831 234.007 277.631 233.607 277.631C233.207 277.631 232.707 277.531 232.207 277.431L231.607 277.331C231.207 277.231 230.807 277.431 230.607 277.731C230.007 278.331 229.407 278.831 228.707 279.431C228.007 280.131 226.907 280.331 226.107 279.731C225.207 279.131 224.407 278.631 223.507 278.031C222.707 277.531 222.507 276.431 223.007 275.731C223.207 275.231 223.507 274.731 223.807 274.231L224.007 273.931C224.407 273.431 224.407 272.731 224.107 272.131L223.407 270.831C223.307 270.631 223.107 270.631 223.007 270.631H222.407L221.107 270.731C220.707 270.731 220.307 270.731 220.007 270.631C219.307 270.531 218.807 269.931 218.807 269.231L218.707 268.131C218.707 267.331 218.607 266.631 218.607 265.931C218.607 265.731 218.607 265.531 218.707 265.331C218.807 264.631 219.307 264.031 219.907 263.731L222.107 262.731C222.307 262.631 222.507 262.531 222.707 262.431C222.907 262.331 223.007 262.231 223.107 262.031C223.307 261.331 223.607 260.531 223.907 259.831L224.007 259.631C224.107 259.431 224.007 259.331 224.007 259.231L223.007 258.131L222.607 257.731C221.807 257.031 221.707 255.731 222.507 254.931L222.607 254.831C223.307 253.931 224.107 252.931 224.907 252.031C225.407 251.231 226.407 251.031 227.207 251.331C227.907 251.531 228.507 251.831 229.207 252.131C229.607 252.331 230.007 252.231 230.307 251.931C230.707 251.631 231.207 251.331 231.607 251.031L232.407 250.531C232.607 250.431 232.607 250.331 232.607 250.231L232.707 249.331C232.807 248.831 232.807 248.431 232.907 247.931C233.007 247.231 233.207 246.631 233.707 246.031L233.907 245.931L234.207 245.731L234.407 245.631L235.107 245.431L236.907 244.931C237.307 244.831 237.807 244.731 238.207 244.631C239.107 244.331 240.107 244.831 240.307 245.731C240.407 246.131 240.507 246.531 240.607 246.931L240.807 247.731C240.807 247.931 240.907 248.031 240.907 248.231C241.707 248.431 242.707 248.631 243.607 248.731C243.707 248.731 243.807 248.631 243.907 248.531L244.707 247.831C245.107 247.531 245.407 247.231 245.807 246.831C246.107 246.531 246.407 246.331 246.807 246.131C247.207 245.931 247.707 245.831 248.207 246.031C249.407 246.531 250.607 247.331 251.507 248.231C252.007 248.831 252.107 249.631 251.707 250.331L251.207 251.131C250.907 251.631 250.707 252.131 250.407 252.631C250.107 253.131 250.207 253.231 250.307 253.431C250.507 253.831 250.807 254.331 251.007 254.731L251.407 255.431C251.707 255.331 252.007 255.331 252.307 255.331H253.207H254.307C255.207 255.231 255.907 255.931 255.907 256.831C256.007 258.031 256.107 259.231 256.107 260.331C256.107 261.131 255.607 261.931 254.907 262.231C254.507 262.431 254.007 262.631 253.607 262.831L253.007 263.131L252.207 263.531C252.007 263.631 251.807 263.731 251.807 264.031L251.607 264.631C251.407 265.231 251.107 265.931 250.907 266.531C250.807 266.831 250.907 266.931 250.907 267.031C251.107 267.331 251.407 267.631 251.607 267.831C251.807 268.031 252.107 268.431 252.407 268.731C253.107 269.431 253.107 270.531 252.407 271.231C251.707 272.131 250.907 273.131 250.207 274.031C249.607 274.931 248.607 275.231 247.607 274.931C247.307 274.831 247.007 274.731 246.707 274.631L246.207 274.431C245.907 274.331 245.607 274.231 245.207 274.131C245.107 274.131 245.007 274.131 244.907 274.231L244.407 274.531C243.807 274.931 243.107 275.331 242.507 275.731C242.307 275.831 242.107 276.131 242.107 276.331L242.007 277.031L241.907 277.931C241.907 278.331 241.807 278.631 241.707 279.031C241.507 279.831 240.907 280.431 240.107 280.631C239.007 280.931 237.907 281.231 236.707 281.431C236.707 281.231 236.507 281.231 236.207 281.331ZM236.107 279.631L236.207 280.431V279.631C236.307 279.631 236.407 279.631 236.507 279.631L239.807 278.831C240.007 278.831 240.207 278.631 240.207 278.431C240.307 278.131 240.307 277.831 240.407 277.531L240.507 276.631L240.607 275.931C240.707 275.231 241.107 274.531 241.707 274.131C242.307 273.731 243.007 273.331 243.607 272.931L244.107 272.631C244.607 272.331 245.207 272.231 245.707 272.331C246.107 272.431 246.407 272.531 246.807 272.731L247.407 272.931L248.207 273.231C248.507 273.331 248.607 273.331 249.007 272.931C249.807 272.031 250.507 271.131 251.207 270.131C251.407 269.831 251.407 269.831 251.307 269.731C251.107 269.431 250.807 269.131 250.607 268.931C250.407 268.731 250.107 268.331 249.807 268.031C249.307 267.431 249.107 266.631 249.507 265.831C249.707 265.231 250.007 264.631 250.207 263.931L250.407 263.331C250.607 262.731 251.107 262.231 251.607 261.931C251.907 261.731 252.207 261.631 252.507 261.531L253.207 261.231C253.607 261.031 254.007 260.931 254.407 260.731C254.607 260.631 254.707 260.531 254.707 260.331C254.707 259.131 254.607 258.031 254.507 256.831C254.107 256.831 253.807 256.931 253.407 256.931H252.507H251.507C250.907 256.931 250.407 256.631 250.007 256.131L249.607 255.431C249.407 255.031 249.107 254.631 248.907 254.231C248.407 253.431 248.507 252.531 249.007 251.731C249.307 251.231 249.507 250.731 249.807 250.331L250.307 249.531L250.407 249.431C249.607 248.731 248.707 248.031 247.707 247.631C247.407 247.731 247.207 247.931 247.007 248.131L245.907 249.031L245.107 249.831C244.707 250.231 244.007 250.531 243.407 250.431C242.407 250.331 241.507 250.131 240.507 249.931C240.007 249.831 239.707 249.531 239.507 249.031C239.407 248.731 239.307 248.431 239.207 248.131L239.007 247.331C238.907 246.931 238.807 246.631 238.707 246.331C238.707 246.331 238.607 246.331 238.507 246.331L237.307 246.631L235.507 247.131L234.907 247.331C234.707 247.631 234.607 247.931 234.607 248.231L234.207 250.531C234.107 251.131 233.807 251.631 233.307 251.931L232.507 252.431C232.107 252.731 231.607 253.031 231.207 253.331C230.407 253.931 229.407 254.031 228.407 253.631C227.807 253.331 227.207 253.131 226.607 252.931C226.407 252.831 226.307 252.831 226.107 253.131C225.307 254.031 224.607 254.931 223.907 255.831C223.807 255.931 223.707 256.131 223.607 256.331C223.707 256.431 223.707 256.531 223.807 256.631L224.207 257.031L225.207 258.131C225.707 258.631 225.907 259.531 225.607 260.231L225.507 260.431C225.207 261.131 225.007 261.931 224.707 262.631C224.507 263.231 224.107 263.731 223.507 263.931C223.307 264.031 223.007 264.131 222.807 264.331L220.607 265.331C220.507 265.331 220.407 265.531 220.407 265.631C220.407 265.731 220.407 265.831 220.407 265.931C220.407 266.731 220.507 267.431 220.507 268.131V269.031C220.707 269.031 220.907 269.031 221.207 269.031C221.607 269.031 222.007 269.031 222.407 268.931H223.007C223.807 268.831 224.607 269.231 225.007 269.931L225.707 271.231C226.507 272.631 226.407 273.231 225.607 274.631L225.407 275.031C225.107 275.531 224.907 276.031 224.607 276.431C224.607 276.531 224.507 276.631 224.507 276.731C225.407 277.331 226.207 277.831 227.007 278.431C227.107 278.431 227.107 278.531 227.207 278.531C227.407 278.431 227.507 278.331 227.607 278.231C228.207 277.731 228.807 277.131 229.407 276.631C230.007 276.031 230.907 275.731 231.807 275.831L232.407 275.931C232.807 276.031 233.207 276.031 233.607 276.131C234.607 276.131 235.407 276.831 235.607 277.831L236.207 279.931C236.207 279.731 236.207 279.631 236.107 279.631ZM236.007 271.031C235.307 271.031 234.707 270.931 234.007 270.831C232.207 270.431 230.707 269.131 229.907 267.431C228.107 263.831 230.007 258.731 234.107 256.231C236.207 254.931 238.707 254.431 241.107 255.131C242.807 255.531 244.207 256.731 245.007 258.331C246.807 262.131 245.007 267.031 240.807 269.631C239.407 270.531 237.707 271.031 236.007 271.031ZM238.907 256.531C237.507 256.531 236.207 256.931 235.007 257.631C231.707 259.631 230.007 263.831 231.407 266.631C232.007 267.831 233.107 268.831 234.507 269.131C236.407 269.531 238.407 269.231 240.007 268.131C243.507 266.031 245.007 262.031 243.607 259.031C243.007 257.931 241.907 257.031 240.707 256.731C240.107 256.531 239.507 256.431 238.907 256.531Z" fill="#231F20"/>
</svg>
